Atma-Light.ufo
<glyph name="numbersign" format="1">
  <advance width="600"/>
  <unicode hex="0023"/>
  <outline>
    <contour>
      <point x="193" y="224" type="qcurve"/>
      <point x="240" y="218"/>
      <point x="329" y="213"/>
      <point x="371" y="213" type="qcurve"/>
      <point x="383" y="252"/>
      <point x="404" y="330"/>
      <point x="412" y="367" type="qcurve"/>
      <point x="364" y="367"/>
      <point x="277" y="371"/>
      <point x="235" y="375" type="qcurve"/>
      <point x="227" y="339"/>
      <point x="206" y="264"/>
    </contour>
    <contour>
      <point x="405" y="170" type="qcurve"/>
      <point x="384" y="110"/>
      <point x="344" y="9"/>
      <point x="323" y="-39" type="qcurve"/>
      <point x="303" y="-35"/>
      <point x="286" y="-28"/>
      <point x="278" y="-24" type="qcurve"/>
      <point x="301" y="24"/>
      <point x="340" y="121"/>
      <point x="357" y="170" type="qcurve"/>
      <point x="311" y="171"/>
      <point x="223" y="178"/>
      <point x="180" y="184" type="qcurve"/>
      <point x="161" y="130"/>
      <point x="118" y="22"/>
      <point x="94" y="-35" type="qcurve"/>
      <point x="77" y="-31"/>
      <point x="57" y="-24"/>
      <point x="49" y="-19" type="qcurve"/>
      <point x="73" y="30"/>
      <point x="115" y="135"/>
      <point x="134" y="190" type="qcurve"/>
      <point x="64" y="203"/>
      <point x="26" y="210"/>
      <point x="10" y="214" type="qcurve"/>
      <point x="10" y="224"/>
      <point x="12" y="242"/>
      <point x="16" y="257" type="qcurve"/>
      <point x="53" y="248"/>
      <point x="117" y="235"/>
      <point x="147" y="231" type="qcurve"/>
      <point x="160" y="271"/>
      <point x="180" y="346"/>
      <point x="188" y="381" type="qcurve"/>
      <point x="143" y="387"/>
      <point x="61" y="401"/>
      <point x="22" y="410" type="qcurve"/>
      <point x="22" y="424"/>
      <point x="25" y="444"/>
      <point x="28" y="453" type="qcurve"/>
      <point x="67" y="443"/>
      <point x="152" y="428"/>
      <point x="197" y="422" type="qcurve"/>
      <point x="207" y="473"/>
      <point x="222" y="573"/>
      <point x="226" y="620" type="qcurve"/>
      <point x="236" y="618"/>
      <point x="255" y="610"/>
      <point x="270" y="603" type="qcurve"/>
      <point x="265" y="551"/>
      <point x="252" y="459"/>
      <point x="244" y="416" type="qcurve"/>
      <point x="288" y="412"/>
      <point x="377" y="409"/>
      <point x="421" y="410" type="qcurve"/>
      <point x="432" y="462"/>
      <point x="447" y="564"/>
      <point x="451" y="615" type="qcurve"/>
      <point x="462" y="613"/>
      <point x="482" y="606"/>
      <point x="495" y="599" type="qcurve"/>
      <point x="490" y="546"/>
      <point x="477" y="454"/>
      <point x="469" y="411" type="qcurve"/>
      <point x="499" y="412"/>
      <point x="560" y="417"/>
      <point x="590" y="420" type="qcurve"/>
      <point x="590" y="414"/>
      <point x="587" y="399"/>
      <point x="582" y="378" type="qcurve"/>
      <point x="529" y="373"/>
      <point x="481" y="370"/>
      <point x="460" y="369" type="qcurve"/>
      <point x="451" y="325"/>
      <point x="430" y="248"/>
      <point x="419" y="213" type="qcurve"/>
      <point x="462" y="214"/>
      <point x="541" y="219"/>
      <point x="578" y="223" type="qcurve"/>
      <point x="577" y="212"/>
      <point x="573" y="193"/>
      <point x="570" y="181" type="qcurve"/>
      <point x="524" y="176"/>
      <point x="443" y="171"/>
    </contour>
  </outline>
</glyph>
<glyph name="dollar" format="1">
  <advance width="329"/>
  <unicode hex="0024"/>
  <outline>
    <contour>
      <point x="189" y="46" type="qcurve"/>
      <point x="191" y="8"/>
      <point x="190" y="-41"/>
      <point x="188" y="-60" type="qcurve"/>
      <point x="177" y="-64"/>
      <point x="157" y="-65"/>
      <point x="141" y="-63" type="qcurve"/>
      <point x="146" y="-29"/>
      <point x="149" y="20"/>
      <point x="148" y="47" type="qcurve"/>
      <point x="92" y="56"/>
      <point x="31" y="154"/>
      <point x="31" y="234" type="qcurve"/>
      <point x="46" y="238"/>
      <point x="74" y="242"/>
      <point x="86" y="241" type="qcurve"/>
      <point x="82" y="169"/>
      <point x="130" y="89"/>
      <point x="178" y="89" type="qcurve" smooth="yes"/>
      <point x="217" y="89"/>
      <point x="259" y="136"/>
      <point x="259" y="179" type="qcurve" smooth="yes"/>
      <point x="259" y="217"/>
      <point x="218" y="286"/>
      <point x="150" y="346" type="qcurve" smooth="yes"/>
      <point x="77" y="409"/>
      <point x="30" y="494"/>
      <point x="30" y="542" type="qcurve" smooth="yes"/>
      <point x="30" y="601"/>
      <point x="91" y="674"/>
      <point x="146" y="681" type="qcurve"/>
      <point x="141" y="710"/>
      <point x="137" y="752"/>
      <point x="138" y="767" type="qcurve"/>
      <point x="148" y="772"/>
      <point x="170" y="774"/>
      <point x="186" y="773" type="qcurve"/>
      <point x="185" y="755"/>
      <point x="185" y="710"/>
      <point x="187" y="681" type="qcurve"/>
      <point x="237" y="675"/>
      <point x="292" y="605"/>
      <point x="302" y="533" type="qcurve"/>
      <point x="292" y="528"/>
      <point x="268" y="522"/>
      <point x="254" y="521" type="qcurve"/>
      <point x="246" y="582"/>
      <point x="203" y="638"/>
      <point x="165" y="638" type="qcurve"/>
      <point x="127" y="638"/>
      <point x="85" y="591"/>
      <point x="85" y="548" type="qcurve" smooth="yes"/>
      <point x="85" y="506"/>
      <point x="128" y="432"/>
      <point x="195" y="375" type="qcurve" smooth="yes"/>
      <point x="269" y="310"/>
      <point x="314" y="230"/>
      <point x="314" y="185" type="qcurve" smooth="yes"/>
      <point x="314" y="126"/>
      <point x="246" y="51"/>
    </contour>
  </outline>
</glyph>
<glyph name="ampersand" format="1">
  <advance width="744"/>
  <unicode hex="0026"/>
  <outline>
    <contour>
      <point x="358" y="679" type="qcurve" smooth="yes"/>
      <point x="321" y="679"/>
      <point x="275" y="598"/>
      <point x="275" y="528" type="qcurve" smooth="yes"/>
      <point x="275" y="502"/>
      <point x="280" y="452"/>
      <point x="284" y="427" type="qcurve"/>
      <point x="354" y="443"/>
      <point x="427" y="522"/>
      <point x="427" y="581" type="qcurve" smooth="yes"/>
      <point x="427" y="628"/>
      <point x="391" y="679"/>
    </contour>
    <contour>
      <point x="95" y="189" type="qcurve" smooth="yes"/>
      <point x="95" y="98"/>
      <point x="212" y="-10"/>
      <point x="309" y="-10" type="qcurve" smooth="yes"/>
      <point x="355" y="-10"/>
      <point x="438" y="25"/>
      <point x="473" y="59" type="qcurve"/>
      <point x="386" y="122"/>
      <point x="268" y="283"/>
      <point x="241" y="376" type="qcurve"/>
      <point x="174" y="357"/>
      <point x="95" y="258"/>
    </contour>
    <contour>
      <point x="685" y="2" type="qcurve"/>
      <point x="680" y="-10"/>
      <point x="659" y="-30"/>
      <point x="645" y="-36" type="qcurve"/>
      <point x="608" y="-21"/>
      <point x="543" y="13"/>
      <point x="515" y="31" type="qcurve"/>
      <point x="474" y="-10"/>
      <point x="367" y="-54"/>
      <point x="310" y="-54" type="qcurve" smooth="yes"/>
      <point x="187" y="-54"/>
      <point x="40" y="79"/>
      <point x="40" y="185" type="qcurve" smooth="yes"/>
      <point x="40" y="269"/>
      <point x="139" y="387"/>
      <point x="232" y="413" type="qcurve"/>
      <point x="226" y="441"/>
      <point x="220" y="499"/>
      <point x="220" y="529" type="qcurve" smooth="yes"/>
      <point x="220" y="618"/>
      <point x="297" y="721"/>
      <point x="364" y="721" type="qcurve" smooth="yes"/>
      <point x="416" y="721"/>
      <point x="482" y="646"/>
      <point x="482" y="586" type="qcurve" smooth="yes"/>
      <point x="482" y="515"/>
      <point x="385" y="416"/>
      <point x="292" y="393" type="qcurve"/>
      <point x="315" y="307"/>
      <point x="423" y="160"/>
      <point x="506" y="100" type="qcurve"/>
      <point x="531" y="138"/>
      <point x="558" y="229"/>
      <point x="558" y="279" type="qcurve" smooth="yes"/>
      <point x="558" y="309"/>
      <point x="553" y="356"/>
      <point x="547" y="383" type="qcurve"/>
      <point x="559" y="386"/>
      <point x="588" y="387"/>
      <point x="604" y="385" type="qcurve"/>
      <point x="608" y="359"/>
      <point x="611" y="313"/>
      <point x="611" y="290" type="qcurve" smooth="yes"/>
      <point x="611" y="226"/>
      <point x="580" y="117"/>
      <point x="549" y="72" type="qcurve"/>
      <point x="577" y="54"/>
      <point x="645" y="19"/>
    </contour>
  </outline>
</glyph>
<glyph name="parenleft" format="1">
  <advance width="331"/>
  <unicode hex="0028"/>
  <outline>
    <contour>
      <point x="321" y="761" type="qcurve"/>
      <point x="202" y="689"/>
      <point x="80" y="461"/>
      <point x="80" y="315" type="qcurve" smooth="yes"/>
      <point x="80" y="172"/>
      <point x="200" y="-51"/>
      <point x="317" y="-124" type="qcurve"/>
      <point x="301" y="-141"/>
      <point x="283" y="-156"/>
      <point x="275" y="-160" type="qcurve"/>
      <point x="151" y="-74"/>
      <point x="25" y="163"/>
      <point x="25" y="309" type="qcurve" smooth="yes"/>
      <point x="25" y="466"/>
      <point x="154" y="714"/>
      <point x="279" y="797" type="qcurve"/>
      <point x="287" y="793"/>
      <point x="305" y="778"/>
    </contour>
  </outline>
</glyph>
<glyph name="one" format="1">
  <advance width="313"/>
  <unicode hex="0031"/>
  <outline>
    <contour>
      <point x="185" y="-43" type="qcurve" smooth="yes"/>
      <point x="181" y="-44"/>
      <point x="170" y="-44"/>
      <point x="159" y="-44" type="qcurve"/>
      <point x="163" y="29"/>
      <point x="173" y="136"/>
      <point x="182" y="205" type="qcurve" smooth="yes"/>
      <point x="195" y="312"/>
      <point x="231" y="510"/>
      <point x="252" y="593" type="qcurve"/>
      <point x="212" y="558"/>
      <point x="115" y="487"/>
      <point x="55" y="449" type="qcurve"/>
      <point x="43" y="460"/>
      <point x="31" y="476"/>
      <point x="25" y="488" type="qcurve"/>
      <point x="108" y="537"/>
      <point x="242" y="638"/>
      <point x="296" y="693" type="qcurve"/>
      <point x="309" y="685"/>
      <point x="322" y="676"/>
      <point x="328" y="670" type="qcurve"/>
      <point x="290" y="572"/>
      <point x="223" y="182"/>
      <point x="204" y="-38" type="qcurve"/>
      <point x="200" y="-40"/>
      <point x="190" y="-42"/>
    </contour>
  </outline>
</glyph>
<glyph name="two" format="1">
  <advance width="368"/>
  <unicode hex="0032"/>
  <outline>
    <contour>
      <point x="358" y="21" type="qcurve"/>
      <point x="357" y="8"/>
      <point x="349" y="-17"/>
      <point x="343" y="-31" type="qcurve"/>
      <point x="229" y="-21"/>
      <point x="70" y="3"/>
      <point x="5" y="21" type="qcurve"/>
      <point x="6" y="32"/>
      <point x="10" y="54"/>
      <point x="14" y="64" type="qcurve"/>
      <point x="166" y="180"/>
      <point x="295" y="370"/>
      <point x="295" y="480" type="qcurve" smooth="yes"/>
      <point x="295" y="533"/>
      <point x="246" y="597"/>
      <point x="204" y="597" type="qcurve" smooth="yes"/>
      <point x="162" y="597"/>
      <point x="100" y="513"/>
      <point x="87" y="439" type="qcurve"/>
      <point x="76" y="439"/>
      <point x="49" y="446"/>
      <point x="35" y="452" type="qcurve"/>
      <point x="53" y="542"/>
      <point x="143" y="641"/>
      <point x="205" y="641" type="qcurve" smooth="yes"/>
      <point x="270" y="641"/>
      <point x="350" y="549"/>
      <point x="350" y="473" type="qcurve" smooth="yes"/>
      <point x="350" y="374"/>
      <point x="204" y="156"/>
      <point x="64" y="48" type="qcurve"/>
      <point x="136" y="34"/>
      <point x="270" y="22"/>
    </contour>
  </outline>
</glyph>
<glyph name="four" format="1">
  <advance width="478"/>
  <unicode hex="0034"/>
  <outline>
    <contour>
      <point x="483" y="182" type="qcurve"/>
      <point x="482" y="169"/>
      <point x="476" y="145"/>
      <point x="471" y="134" type="qcurve"/>
      <point x="413" y="137"/>
      <point x="339" y="142"/>
      <point x="307" y="145" type="qcurve"/>
      <point x="305" y="103"/>
      <point x="303" y="9"/>
      <point x="303" y="-42" type="qcurve"/>
      <point x="298" y="-42"/>
      <point x="287" y="-41"/>
      <point x="279" y="-40" type="qcurve" smooth="yes"/>
      <point x="274" y="-39"/>
      <point x="265" y="-37"/>
      <point x="260" y="-35" type="qcurve"/>
      <point x="259" y="12"/>
      <point x="258" y="52"/>
      <point x="258" y="69" type="qcurve" smooth="yes"/>
      <point x="258" y="103"/>
      <point x="258" y="137"/>
      <point x="259" y="151" type="qcurve"/>
      <point x="210" y="157"/>
      <point x="103" y="174"/>
      <point x="37" y="186" type="qcurve"/>
      <point x="32" y="195"/>
      <point x="23" y="213"/>
      <point x="20" y="224" type="qcurve"/>
      <point x="113" y="357"/>
      <point x="224" y="587"/>
      <point x="275" y="752" type="qcurve"/>
      <point x="288" y="750"/>
      <point x="316" y="741"/>
      <point x="332" y="733" type="qcurve"/>
      <point x="281" y="590"/>
      <point x="156" y="340"/>
      <point x="81" y="229" type="qcurve"/>
      <point x="135" y="217"/>
      <point x="221" y="202"/>
      <point x="261" y="197" type="qcurve"/>
      <point x="265" y="256"/>
      <point x="278" y="358"/>
      <point x="287" y="404" type="qcurve"/>
      <point x="293" y="407"/>
      <point x="307" y="410"/>
      <point x="315" y="411" type="qcurve" smooth="yes"/>
      <point x="323" y="412"/>
      <point x="339" y="411"/>
      <point x="345" y="409" type="qcurve"/>
      <point x="333" y="366"/>
      <point x="316" y="256"/>
      <point x="311" y="192" type="qcurve"/>
      <point x="348" y="189"/>
      <point x="432" y="184"/>
    </contour>
  </outline>
</glyph>
<glyph name="five" format="1">
  <advance width="374"/>
  <unicode hex="0035"/>
  <outline>
    <contour>
      <point x="348" y="183" type="qcurve" smooth="yes"/>
      <point x="348" y="85"/>
      <point x="256" y="-37"/>
      <point x="183" y="-37" type="qcurve" smooth="yes"/>
      <point x="104" y="-37"/>
      <point x="11" y="86"/>
      <point x="5" y="198" type="qcurve"/>
      <point x="13" y="198"/>
      <point x="53" y="194"/>
      <point x="59" y="193" type="qcurve"/>
      <point x="59" y="102"/>
      <point x="122" y="8"/>
      <point x="182" y="8" type="qcurve" smooth="yes"/>
      <point x="236" y="8"/>
      <point x="293" y="95"/>
      <point x="293" y="178" type="qcurve" smooth="yes"/>
      <point x="293" y="260"/>
      <point x="220" y="355"/>
      <point x="155" y="355" type="qcurve" smooth="yes"/>
      <point x="136" y="355"/>
      <point x="99" y="346"/>
      <point x="83" y="338" type="qcurve"/>
      <point x="74" y="344"/>
      <point x="62" y="357"/>
      <point x="57" y="365" type="qcurve"/>
      <point x="55" y="386"/>
      <point x="54" y="420"/>
      <point x="54" y="438" type="qcurve" smooth="yes"/>
      <point x="54" y="496"/>
      <point x="66" y="616"/>
      <point x="75" y="660" type="qcurve"/>
      <point x="169" y="639"/>
      <point x="299" y="623"/>
      <point x="384" y="621" type="qcurve"/>
      <point x="383" y="608"/>
      <point x="374" y="580"/>
      <point x="368" y="566" type="qcurve"/>
      <point x="288" y="574"/>
      <point x="177" y="591"/>
      <point x="116" y="605" type="qcurve"/>
      <point x="105" y="543"/>
      <point x="97" y="430"/>
      <point x="100" y="383" type="qcurve"/>
      <point x="115" y="390"/>
      <point x="154" y="398"/>
      <point x="174" y="398" type="qcurve" smooth="yes"/>
      <point x="255" y="398"/>
      <point x="348" y="284"/>
    </contour>
  </outline>
</glyph>
<glyph name="six" format="1">
  <advance width="447"/>
  <unicode hex="0036"/>
  <outline>
    <contour>
      <point x="255" y="378" type="qcurve" smooth="yes"/>
      <point x="329" y="378"/>
      <point x="422" y="272"/>
      <point x="422" y="191" type="qcurve" smooth="yes"/>
      <point x="422" y="83"/>
      <point x="319" y="-50"/>
      <point x="233" y="-50" type="qcurve" smooth="yes"/>
      <point x="144" y="-50"/>
      <point x="40" y="135"/>
      <point x="40" y="293" type="qcurve" smooth="yes"/>
      <point x="40" y="482"/>
      <point x="160" y="691"/>
      <point x="267" y="691" type="qcurve" smooth="yes"/>
      <point x="332" y="691"/>
      <point x="406" y="600"/>
      <point x="419" y="505" type="qcurve"/>
      <point x="406" y="499"/>
      <point x="380" y="491"/>
      <point x="365" y="488" type="qcurve"/>
      <point x="357" y="570"/>
      <point x="306" y="647"/>
      <point x="260" y="647" type="qcurve" smooth="yes"/>
      <point x="188" y="647"/>
      <point x="95" y="458"/>
      <point x="95" y="302" type="qcurve" smooth="yes"/>
      <point x="95" y="287"/>
      <point x="95" y="273"/>
      <point x="96" y="267" type="qcurve"/>
      <point x="123" y="321"/>
      <point x="204" y="378"/>
    </contour>
    <contour>
      <point x="103" y="189" type="qcurve"/>
      <point x="117" y="97"/>
      <point x="188" y="-6"/>
      <point x="239" y="-6" type="qcurve" smooth="yes"/>
      <point x="294" y="-6"/>
      <point x="367" y="94"/>
      <point x="367" y="164" type="qcurve" smooth="yes"/>
      <point x="367" y="244"/>
      <point x="302" y="334"/>
      <point x="245" y="334" type="qcurve" smooth="yes"/>
      <point x="200" y="334"/>
      <point x="125" y="257"/>
    </contour>
  </outline>
</glyph>
<glyph name="less" format="1">
  <advance width="340"/>
  <unicode hex="003C"/>
  <outline>
    <contour>
      <point x="308" y="218" type="qcurve"/>
      <point x="307" y="209"/>
      <point x="301" y="191"/>
      <point x="295" y="181" type="qcurve"/>
      <point x="210" y="214"/>
      <point x="83" y="282"/>
      <point x="31" y="322" type="qcurve"/>
      <point x="34" y="357" type="line"/>
      <point x="91" y="398"/>
      <point x="212" y="463"/>
      <point x="298" y="498" type="qcurve"/>
      <point x="300" y="492"/>
      <point x="309" y="469"/>
      <point x="311" y="461" type="qcurve"/>
      <point x="242" y="431"/>
      <point x="131" y="372"/>
      <point x="80" y="338" type="qcurve"/>
      <point x="118" y="310"/>
      <point x="225" y="254"/>
    </contour>
  </outline>
</glyph>
<glyph name="at" format="1">
  <advance width="875"/>
  <unicode hex="0040"/>
  <outline>
    <contour>
      <point x="634" y="-33" type="qcurve"/>
      <point x="586" y="-62"/>
      <point x="472" y="-93"/>
      <point x="411" y="-93" type="qcurve" smooth="yes"/>
      <point x="248" y="-93"/>
      <point x="45" y="119"/>
      <point x="45" y="292" type="qcurve" smooth="yes"/>
      <point x="45" y="488"/>
      <point x="261" y="718"/>
      <point x="446" y="718" type="qcurve" smooth="yes"/>
      <point x="614" y="718"/>
      <point x="805" y="518"/>
      <point x="805" y="355" type="qcurve" smooth="yes"/>
      <point x="805" y="235"/>
      <point x="699" y="85"/>
      <point x="617" y="85" type="qcurve" smooth="yes"/>
      <point x="571" y="85"/>
      <point x="511" y="136"/>
      <point x="499" y="185" type="qcurve"/>
      <point x="481" y="140"/>
      <point x="427" y="96"/>
      <point x="388" y="96" type="qcurve" smooth="yes"/>
      <point x="329" y="96"/>
      <point x="254" y="206"/>
      <point x="254" y="295" type="qcurve" smooth="yes"/>
      <point x="254" y="403"/>
      <point x="350" y="533"/>
      <point x="428" y="533" type="qcurve" smooth="yes"/>
      <point x="442" y="533"/>
      <point x="473" y="528"/>
      <point x="488" y="523" type="qcurve"/>
      <point x="488" y="530"/>
      <point x="488" y="543"/>
      <point x="488" y="550" type="qcurve"/>
      <point x="501" y="556"/>
      <point x="534" y="558"/>
      <point x="551" y="554" type="qcurve"/>
      <point x="545" y="473"/>
      <point x="540" y="359"/>
      <point x="540" y="312" type="qcurve" smooth="yes"/>
      <point x="540" y="215"/>
      <point x="576" y="129"/>
      <point x="618" y="129" type="qcurve" smooth="yes"/>
      <point x="676" y="129"/>
      <point x="750" y="255"/>
      <point x="750" y="357" type="qcurve" smooth="yes"/>
      <point x="750" y="499"/>
      <point x="580" y="674"/>
      <point x="434" y="674" type="qcurve" smooth="yes"/>
      <point x="285" y="674"/>
      <point x="100" y="471"/>
      <point x="100" y="305" type="qcurve" smooth="yes"/>
      <point x="100" y="142"/>
      <point x="272" y="-49"/>
      <point x="419" y="-49" type="qcurve" smooth="yes"/>
      <point x="479" y="-49"/>
      <point x="571" y="-21"/>
      <point x="606" y="9" type="qcurve"/>
      <point x="613" y="2"/>
      <point x="624" y="-12"/>
    </contour>
    <contour>
      <point x="309" y="304" type="qcurve" smooth="yes"/>
      <point x="309" y="227"/>
      <point x="352" y="140"/>
      <point x="390" y="140" type="qcurve" smooth="yes"/>
      <point x="425" y="140"/>
      <point x="476" y="200"/>
      <point x="491" y="258" type="qcurve"/>
      <point x="491" y="259" type="line" smooth="yes"/>
      <point x="491" y="275"/>
      <point x="490" y="325"/>
      <point x="489" y="384" type="qcurve" smooth="yes"/>
      <point x="489" y="424"/>
      <point x="488" y="464"/>
      <point x="488" y="481" type="qcurve"/>
      <point x="478" y="485"/>
      <point x="452" y="489"/>
      <point x="436" y="489" type="qcurve" smooth="yes"/>
      <point x="380" y="489"/>
      <point x="309" y="387"/>
    </contour>
  </outline>
</glyph>
<glyph name="A" format="1">
  <advance width="605"/>
  <unicode hex="0041"/>
  <outline>
    <contour>
      <point x="582" y="-85" type="qcurve"/>
      <point x="570" y="-92"/>
      <point x="545" y="-100"/>
      <point x="526" y="-103" type="qcurve"/>
      <point x="510" y="3"/>
      <point x="479" y="166"/>
      <point x="462" y="233" type="qcurve"/>
      <point x="390" y="234"/>
      <point x="249" y="225"/>
      <point x="187" y="215" type="qcurve"/>
      <point x="166" y="162"/>
      <point x="112" y="47"/>
      <point x="77" y="-20" type="qcurve"/>
      <point x="63" y="-17"/>
      <point x="41" y="-6"/>
      <point x="25" y="8" type="qcurve"/>
      <point x="117" y="169"/>
      <point x="229" y="472"/>
      <point x="280" y="705" type="qcurve"/>
      <point x="313" y="702"/>
      <point x="334" y="700"/>
      <point x="343" y="698" type="qcurve"/>
      <point x="445" y="495"/>
      <point x="547" y="156"/>
    </contour>
    <contour>
      <point x="314" y="636" type="qcurve"/>
      <point x="288" y="521"/>
      <point x="237" y="344"/>
      <point x="205" y="261" type="qcurve"/>
      <point x="260" y="269"/>
      <point x="386" y="279"/>
      <point x="451" y="280" type="qcurve"/>
      <point x="424" y="376"/>
      <point x="360" y="545"/>
    </contour>
    <contour>
      <point x="309" y="745" type="move" name="top"/>
    </contour>
  </outline>
</glyph>
<glyph name="D" format="1">
  <advance width="566"/>
  <unicode hex="0044"/>
  <outline>
    <contour>
      <point x="522" y="445" type="qcurve" smooth="yes"/>
      <point x="522" y="292"/>
      <point x="313" y="47"/>
      <point x="131" y="-12" type="qcurve"/>
      <point x="131" y="-12"/>
      <point x="124" y="-11"/>
      <point x="113" y="-9" type="qcurve" smooth="yes"/>
      <point x="94" y="-7"/>
      <point x="82" y="-5"/>
      <point x="81" y="-5" type="qcurve"/>
      <point x="74" y="142"/>
      <point x="68" y="377"/>
      <point x="68" y="508" type="qcurve" smooth="yes"/>
      <point x="68" y="550"/>
      <point x="70" y="643"/>
      <point x="71" y="678" type="qcurve"/>
      <point x="109" y="698"/>
      <point x="198" y="717"/>
      <point x="249" y="717" type="qcurve" smooth="yes"/>
      <point x="382" y="717"/>
      <point x="522" y="577"/>
    </contour>
    <contour>
      <point x="134" y="652" type="qcurve"/>
      <point x="129" y="572"/>
      <point x="125" y="440"/>
      <point x="125" y="236" type="qcurve" smooth="yes"/>
      <point x="125" y="170"/>
      <point x="127" y="78"/>
      <point x="129" y="35" type="qcurve"/>
      <point x="293" y="96"/>
      <point x="461" y="305"/>
      <point x="461" y="448" type="qcurve" smooth="yes"/>
      <point x="461" y="557"/>
      <point x="346" y="670"/>
      <point x="234" y="670" type="qcurve" smooth="yes"/>
      <point x="206" y="670"/>
      <point x="157" y="661"/>
    </contour>
  </outline>
</glyph>
<glyph name="F" format="1">
  <advance width="497"/>
  <unicode hex="0046"/>
  <outline>
    <contour>
      <point x="151" y="325" type="qcurve" smooth="yes"/>
      <point x="156" y="138"/>
      <point x="157" y="-3"/>
      <point x="156" y="-74" type="qcurve"/>
      <point x="144" y="-76"/>
      <point x="113" y="-78"/>
      <point x="103" y="-77" type="qcurve"/>
      <point x="108" y="163"/>
      <point x="86" y="545"/>
      <point x="58" y="723" type="qcurve"/>
      <point x="174" y="732"/>
      <point x="338" y="754"/>
      <point x="439" y="774" type="qcurve"/>
      <point x="442" y="768"/>
      <point x="445" y="756"/>
      <point x="446" y="751" type="qcurve" smooth="yes"/>
      <point x="447" y="744"/>
      <point x="448" y="731"/>
      <point x="447" y="723" type="qcurve"/>
      <point x="340" y="704"/>
      <point x="197" y="685"/>
      <point x="122" y="680" type="qcurve"/>
      <point x="132" y="609"/>
      <point x="144" y="479"/>
      <point x="147" y="418" type="qcurve"/>
      <point x="199" y="427"/>
      <point x="312" y="441"/>
      <point x="382" y="446" type="qcurve"/>
      <point x="385" y="434"/>
      <point x="387" y="412"/>
      <point x="387" y="400" type="qcurve"/>
      <point x="333" y="397"/>
      <point x="213" y="384"/>
      <point x="150" y="374" type="qcurve"/>
      <point x="150" y="369"/>
      <point x="150" y="359"/>
      <point x="151" y="349" type="qcurve" smooth="yes"/>
      <point x="151" y="339"/>
      <point x="151" y="329"/>
    </contour>
  </outline>
</glyph>
<glyph name="H" format="1">
  <advance width="589"/>
  <unicode hex="0048"/>
  <outline>
    <contour>
      <point x="489" y="737" type="qcurve"/>
      <point x="498" y="554"/>
      <point x="510" y="101"/>
      <point x="510" y="-55" type="qcurve"/>
      <point x="499" y="-55"/>
      <point x="468" y="-50"/>
      <point x="454" y="-47" type="qcurve"/>
      <point x="454" y="31"/>
      <point x="451" y="247"/>
      <point x="448" y="352" type="qcurve"/>
      <point x="351" y="352"/>
      <point x="195" y="343"/>
      <point x="127" y="333" type="qcurve"/>
      <point x="128" y="246"/>
      <point x="133" y="79"/>
      <point x="138" y="12" type="qcurve"/>
      <point x="126" y="9"/>
      <point x="98" y="7"/>
      <point x="86" y="8" type="qcurve"/>
      <point x="77" y="176"/>
      <point x="68" y="517"/>
      <point x="68" y="709" type="qcurve"/>
      <point x="75" y="711"/>
      <point x="94" y="714"/>
      <point x="104" y="714" type="qcurve" smooth="yes"/>
      <point x="113" y="714"/>
      <point x="127" y="712"/>
      <point x="135" y="710" type="qcurve"/>
      <point x="130" y="653"/>
      <point x="125" y="476"/>
      <point x="126" y="374" type="qcurve"/>
      <point x="199" y="387"/>
      <point x="355" y="399"/>
      <point x="447" y="400" type="qcurve"/>
      <point x="444" y="506"/>
      <point x="435" y="681"/>
      <point x="430" y="736" type="qcurve"/>
      <point x="443" y="740"/>
      <point x="458" y="742"/>
      <point x="466" y="742" type="qcurve" smooth="yes"/>
      <point x="473" y="742"/>
      <point x="485" y="739"/>
    </contour>
  </outline>
</glyph>
<glyph name="I" format="1">
  <advance width="219"/>
  <unicode hex="0049"/>
  <outline>
    <contour>
      <point x="136" y="481" type="qcurve" smooth="yes"/>
      <point x="136" y="205"/>
      <point x="133" y="58"/>
      <point x="131" y="-22" type="qcurve"/>
      <point x="124" y="-24"/>
      <point x="99" y="-27"/>
      <point x="83" y="-28" type="qcurve"/>
      <point x="86" y="163"/>
      <point x="79" y="514"/>
      <point x="69" y="670" type="qcurve"/>
      <point x="79" y="675"/>
      <point x="99" y="679"/>
      <point x="110" y="679" type="qcurve" smooth="yes"/>
      <point x="114" y="679"/>
      <point x="123" y="678"/>
      <point x="130" y="677" type="qcurve"/>
      <point x="133" y="634"/>
      <point x="136" y="545"/>
    </contour>
  </outline>
</glyph>
<glyph name="J" format="1">
  <advance width="445"/>
  <unicode hex="004A"/>
  <outline>
    <contour>
      <point x="334" y="43" type="qcurve" smooth="yes"/>
      <point x="314" y="-22"/>
      <point x="245" y="-88"/>
      <point x="197" y="-88" type="qcurve" smooth="yes"/>
      <point x="132" y="-88"/>
      <point x="51" y="40"/>
      <point x="38" y="164" type="qcurve"/>
      <point x="48" y="170"/>
      <point x="72" y="178"/>
      <point x="92" y="183" type="qcurve"/>
      <point x="107" y="60"/>
      <point x="154" y="-41"/>
      <point x="200" y="-41" type="qcurve" smooth="yes"/>
      <point x="251" y="-41"/>
      <point x="302" y="95"/>
      <point x="302" y="232" type="qcurve" smooth="yes"/>
      <point x="302" y="336"/>
      <point x="288" y="552"/>
      <point x="270" y="711" type="qcurve"/>
      <point x="277" y="715"/>
      <point x="294" y="721"/>
      <point x="304" y="722" type="qcurve" smooth="yes"/>
      <point x="311" y="723"/>
      <point x="328" y="725"/>
      <point x="336" y="725" type="qcurve"/>
      <point x="349" y="603"/>
      <point x="362" y="404"/>
      <point x="362" y="322" type="qcurve" smooth="yes"/>
      <point x="362" y="226"/>
      <point x="348" y="91"/>
    </contour>
  </outline>
</glyph>
<glyph name="K" format="1">
  <advance width="547"/>
  <unicode hex="004B"/>
  <outline>
    <contour>
      <point x="533" y="-40" type="qcurve"/>
      <point x="522" y="-54"/>
      <point x="503" y="-71"/>
      <point x="491" y="-78" type="qcurve"/>
      <point x="419" y="44"/>
      <point x="296" y="200"/>
      <point x="202" y="290" type="qcurve"/>
      <point x="194" y="283"/>
      <point x="156" y="252"/>
      <point x="127" y="228" type="qcurve"/>
      <point x="129" y="153"/>
      <point x="139" y="21"/>
      <point x="150" y="-64" type="qcurve"/>
      <point x="123" y="-68"/>
      <point x="106" y="-69"/>
      <point x="100" y="-69" type="qcurve"/>
      <point x="82" y="77"/>
      <point x="68" y="296"/>
      <point x="68" y="440" type="qcurve" smooth="yes"/>
      <point x="68" y="490"/>
      <point x="73" y="617"/>
      <point x="79" y="700" type="qcurve"/>
      <point x="92" y="702"/>
      <point x="110" y="704"/>
      <point x="117" y="704" type="qcurve" smooth="yes"/>
      <point x="125" y="704"/>
      <point x="141" y="702"/>
      <point x="149" y="700" type="qcurve"/>
      <point x="137" y="622"/>
      <point x="126" y="464"/>
      <point x="126" y="343" type="qcurve" smooth="yes"/>
      <point x="126" y="326"/>
      <point x="126" y="291"/>
      <point x="126" y="273" type="qcurve"/>
      <point x="237" y="371"/>
      <point x="357" y="530"/>
      <point x="430" y="681" type="qcurve"/>
      <point x="441" y="676"/>
      <point x="463" y="657"/>
      <point x="474" y="644" type="qcurve"/>
      <point x="414" y="533"/>
      <point x="308" y="389"/>
      <point x="238" y="323" type="qcurve"/>
      <point x="328" y="240"/>
      <point x="441" y="100"/>
    </contour>
  </outline>
</glyph>
<glyph name="L" format="1">
  <advance width="471"/>
  <unicode hex="004C"/>
  <outline>
    <contour>
      <point x="454" y="-22" type="qcurve"/>
      <point x="456" y="-33"/>
      <point x="458" y="-63"/>
      <point x="458" y="-72" type="qcurve"/>
      <point x="366" y="-73"/>
      <point x="213" y="-83"/>
      <point x="117" y="-97" type="qcurve"/>
      <point x="90" y="106"/>
      <point x="68" y="487"/>
      <point x="73" y="666" type="qcurve"/>
      <point x="84" y="671"/>
      <point x="102" y="674"/>
      <point x="115" y="674" type="qcurve" smooth="yes"/>
      <point x="120" y="674"/>
      <point x="133" y="673"/>
      <point x="137" y="672" type="qcurve"/>
      <point x="132" y="616"/>
      <point x="129" y="493"/>
      <point x="130" y="392" type="qcurve" smooth="yes"/>
      <point x="132" y="271"/>
      <point x="147" y="67"/>
      <point x="163" y="-43" type="qcurve"/>
      <point x="235" y="-33"/>
      <point x="386" y="-22"/>
    </contour>
  </outline>
</glyph>
<glyph name="Q" format="1">
  <advance width="580"/>
  <unicode hex="0051"/>
  <outline>
    <contour>
      <point x="568" y="-60" type="qcurve"/>
      <point x="559" y="-73"/>
      <point x="539" y="-94"/>
      <point x="528" y="-101" type="qcurve"/>
      <point x="493" y="-52"/>
      <point x="446" y="10"/>
      <point x="425" y="33" type="qcurve"/>
      <point x="391" y="-3"/>
      <point x="309" y="-40"/>
      <point x="262" y="-40" type="qcurve" smooth="yes"/>
      <point x="165" y="-40"/>
      <point x="44" y="133"/>
      <point x="44" y="278" type="qcurve" smooth="yes"/>
      <point x="44" y="452"/>
      <point x="196" y="673"/>
      <point x="318" y="673" type="qcurve" smooth="yes"/>
      <point x="421" y="673"/>
      <point x="531" y="507"/>
      <point x="531" y="357" type="qcurve" smooth="yes"/>
      <point x="531" y="274"/>
      <point x="492" y="126"/>
      <point x="456" y="72" type="qcurve"/>
      <point x="474" y="52"/>
      <point x="519" y="-1"/>
    </contour>
    <contour>
      <point x="104" y="287" type="qcurve" smooth="yes"/>
      <point x="104" y="157"/>
      <point x="189" y="7"/>
      <point x="263" y="7" type="qcurve" smooth="yes"/>
      <point x="300" y="7"/>
      <point x="366" y="39"/>
      <point x="392" y="70" type="qcurve"/>
      <point x="372" y="91"/>
      <point x="326" y="132"/>
      <point x="295" y="157" type="qcurve"/>
      <point x="296" y="158"/>
      <point x="314" y="185"/>
      <point x="321" y="190" type="qcurve"/>
      <point x="356" y="163"/>
      <point x="400" y="127"/>
      <point x="418" y="109" type="qcurve"/>
      <point x="444" y="154"/>
      <point x="471" y="275"/>
      <point x="471" y="346" type="qcurve" smooth="yes"/>
      <point x="471" y="484"/>
      <point x="390" y="625"/>
      <point x="311" y="625" type="qcurve" smooth="yes"/>
      <point x="219" y="625"/>
      <point x="104" y="438"/>
    </contour>
  </outline>
</glyph>
<glyph name="R" format="1">
  <advance width="549"/>
  <unicode hex="0052"/>
  <outline>
    <contour>
      <point x="525" y="0" type="qcurve"/>
      <point x="519" y="-6"/>
      <point x="485" y="-22"/>
      <point x="474" y="-24" type="qcurve"/>
      <point x="421" y="97"/>
      <point x="336" y="250"/>
      <point x="280" y="326" type="qcurve"/>
      <point x="248" y="312"/>
      <point x="181" y="289"/>
      <point x="146" y="280" type="qcurve"/>
      <point x="143" y="200"/>
      <point x="135" y="60"/>
      <point x="129" y="-5" type="qcurve"/>
      <point x="119" y="-7"/>
      <point x="89" y="-6"/>
      <point x="82" y="-3" type="qcurve"/>
      <point x="88" y="115"/>
      <point x="91" y="202"/>
      <point x="91" y="248" type="qcurve" smooth="yes"/>
      <point x="91" y="423"/>
      <point x="82" y="590"/>
      <point x="69" y="707" type="qcurve"/>
      <point x="112" y="737"/>
      <point x="220" y="770"/>
      <point x="274" y="770" type="qcurve" smooth="yes"/>
      <point x="367" y="770"/>
      <point x="478" y="668"/>
      <point x="478" y="584" type="qcurve" smooth="yes"/>
      <point x="478" y="507"/>
      <point x="403" y="391"/>
      <point x="326" y="348" type="qcurve"/>
      <point x="373" y="291"/>
      <point x="474" y="115"/>
    </contour>
    <contour>
      <point x="133" y="689" type="qcurve"/>
      <point x="141" y="599"/>
      <point x="147" y="464"/>
      <point x="147" y="395" type="qcurve" smooth="yes"/>
      <point x="147" y="378"/>
      <point x="147" y="344"/>
      <point x="147" y="327" type="qcurve"/>
      <point x="285" y="360"/>
      <point x="419" y="480"/>
      <point x="419" y="570" type="qcurve" smooth="yes"/>
      <point x="419" y="645"/>
      <point x="342" y="724"/>
      <point x="270" y="724" type="qcurve" smooth="yes"/>
      <point x="233" y="724"/>
      <point x="162" y="706"/>
    </contour>
  </outline>
</glyph>
<glyph name="S" format="1">
  <advance width="461"/>
  <unicode hex="0053"/>
  <outline>
    <contour>
      <point x="378" y="279" type="qcurve" smooth="yes"/>
      <point x="398" y="250"/>
      <point x="417" y="181"/>
      <point x="417" y="140" type="qcurve" smooth="yes"/>
      <point x="417" y="60"/>
      <point x="318" y="-40"/>
      <point x="240" y="-40" type="qcurve" smooth="yes"/>
      <point x="143" y="-40"/>
      <point x="38" y="105"/>
      <point x="38" y="229" type="qcurve"/>
      <point x="50" y="236"/>
      <point x="80" y="245"/>
      <point x="96" y="246" type="qcurve"/>
      <point x="95" y="133"/>
      <point x="170" y="7"/>
      <point x="239" y="7" type="qcurve" smooth="yes"/>
      <point x="292" y="7"/>
      <point x="357" y="79"/>
      <point x="357" y="137" type="qcurve" smooth="yes"/>
      <point x="357" y="172"/>
      <point x="339" y="232"/>
      <point x="320" y="257" type="qcurve" smooth="yes"/>
      <point x="307" y="275"/>
      <point x="269" y="311"/>
      <point x="226" y="342" type="qcurve" smooth="yes"/>
      <point x="178" y="378"/>
      <point x="134" y="421"/>
      <point x="120" y="443" type="qcurve" smooth="yes"/>
      <point x="100" y="473"/>
      <point x="81" y="542"/>
      <point x="81" y="584" type="qcurve" smooth="yes"/>
      <point x="81" y="669"/>
      <point x="172" y="767"/>
      <point x="249" y="767" type="qcurve" smooth="yes"/>
      <point x="321" y="767"/>
      <point x="399" y="683"/>
      <point x="418" y="578" type="qcurve"/>
      <point x="407" y="572"/>
      <point x="382" y="566"/>
      <point x="363" y="565" type="qcurve"/>
      <point x="353" y="647"/>
      <point x="299" y="720"/>
      <point x="246" y="720" type="qcurve" smooth="yes"/>
      <point x="195" y="720"/>
      <point x="141" y="652"/>
      <point x="141" y="587" type="qcurve" smooth="yes"/>
      <point x="141" y="551"/>
      <point x="159" y="491"/>
      <point x="178" y="465" type="qcurve" smooth="yes"/>
      <point x="192" y="447"/>
      <point x="230" y="411"/>
      <point x="273" y="378" type="qcurve" smooth="yes"/>
      <point x="321" y="343"/>
      <point x="364" y="301"/>
    </contour>
  </outline>
</glyph>
<glyph name="V" format="1">
  <advance width="549"/>
  <unicode hex="0056"/>
  <outline>
    <contour>
      <point x="503" y="751" type="qcurve"/>
      <point x="477" y="505"/>
      <point x="380" y="156"/>
      <point x="266" y="-90" type="qcurve"/>
      <point x="254" y="-93"/>
      <point x="235" y="-95"/>
      <point x="222" y="-95" type="qcurve"/>
      <point x="149" y="70"/>
      <point x="53" y="421"/>
      <point x="26" y="615" type="qcurve"/>
      <point x="43" y="623"/>
      <point x="68" y="631"/>
      <point x="83" y="633" type="qcurve"/>
      <point x="102" y="467"/>
      <point x="184" y="142"/>
      <point x="250" y="-24" type="qcurve"/>
      <point x="341" y="192"/>
      <point x="426" y="535"/>
      <point x="446" y="760" type="qcurve"/>
      <point x="460" y="761"/>
      <point x="485" y="757"/>
    </contour>
  </outline>
</glyph>
<glyph name="W" format="1">
  <advance width="715"/>
  <unicode hex="0057"/>
  <outline>
    <contour>
      <point x="345" y="331" type="qcurve"/>
      <point x="324" y="235"/>
      <point x="263" y="51"/>
      <point x="219" y="-53" type="qcurve"/>
      <point x="205" y="-57"/>
      <point x="186" y="-61"/>
      <point x="179" y="-62" type="qcurve"/>
      <point x="103" y="176"/>
      <point x="37" y="477"/>
      <point x="20" y="660" type="qcurve"/>
      <point x="34" y="665"/>
      <point x="61" y="671"/>
      <point x="78" y="672" type="qcurve"/>
      <point x="88" y="517"/>
      <point x="146" y="225"/>
      <point x="205" y="33" type="qcurve"/>
      <point x="265" y="206"/>
      <point x="315" y="413"/>
      <point x="327" y="527" type="qcurve"/>
      <point x="339" y="530"/>
      <point x="366" y="534"/>
      <point x="380" y="536" type="qcurve"/>
      <point x="386" y="401"/>
      <point x="426" y="171"/>
      <point x="468" y="35" type="qcurve"/>
      <point x="539" y="215"/>
      <point x="617" y="529"/>
      <point x="636" y="710" type="qcurve"/>
      <point x="650" y="710"/>
      <point x="679" y="703"/>
      <point x="693" y="695" type="qcurve"/>
      <point x="663" y="478"/>
      <point x="572" y="158"/>
      <point x="489" y="-30" type="qcurve"/>
      <point x="475" y="-33"/>
      <point x="453" y="-36"/>
      <point x="440" y="-37" type="qcurve"/>
      <point x="398" y="93"/>
      <point x="356" y="257"/>
    </contour>
  </outline>
</glyph>
<glyph name="X" format="1">
  <advance width="641"/>
  <unicode hex="0058"/>
  <outline>
    <contour>
      <point x="569" y="8" type="qcurve"/>
      <point x="560" y="-2"/>
      <point x="538" y="-18"/>
      <point x="526" y="-24" type="qcurve"/>
      <point x="474" y="98"/>
      <point x="386" y="282"/>
      <point x="345" y="357" type="qcurve"/>
      <point x="272" y="264"/>
      <point x="129" y="102"/>
      <point x="52" y="23" type="qcurve"/>
      <point x="42" y="30"/>
      <point x="25" y="46"/>
      <point x="20" y="55" type="qcurve"/>
      <point x="113" y="153"/>
      <point x="256" y="319"/>
      <point x="319" y="402" type="qcurve"/>
      <point x="267" y="488"/>
      <point x="151" y="641"/>
      <point x="73" y="724" type="qcurve"/>
      <point x="89" y="738"/>
      <point x="116" y="756"/>
      <point x="131" y="762" type="qcurve"/>
      <point x="206" y="672"/>
      <point x="314" y="522"/>
      <point x="358" y="447" type="qcurve"/>
      <point x="411" y="520"/>
      <point x="501" y="663"/>
      <point x="541" y="737" type="qcurve"/>
      <point x="553" y="731"/>
      <point x="576" y="710"/>
      <point x="586" y="697" type="qcurve"/>
      <point x="543" y="625"/>
      <point x="445" y="481"/>
      <point x="385" y="401" type="qcurve"/>
      <point x="426" y="326"/>
      <point x="512" y="144"/>
    </contour>
  </outline>
</glyph>
<glyph name="Y" format="1">
  <advance width="504"/>
  <unicode hex="0059"/>
  <outline>
    <contour>
      <point x="465" y="689" type="qcurve"/>
      <point x="387" y="381"/>
      <point x="245" y="55"/>
      <point x="144" y="-80" type="qcurve"/>
      <point x="131" y="-76"/>
      <point x="107" y="-66"/>
      <point x="96" y="-59" type="qcurve"/>
      <point x="141" y="4"/>
      <point x="215" y="126"/>
      <point x="244" y="188" type="qcurve"/>
      <point x="164" y="299"/>
      <point x="60" y="537"/>
      <point x="18" y="710" type="qcurve"/>
      <point x="35" y="717"/>
      <point x="66" y="726"/>
      <point x="82" y="727" type="qcurve"/>
      <point x="109" y="593"/>
      <point x="199" y="361"/>
      <point x="270" y="245" type="qcurve"/>
      <point x="313" y="344"/>
      <point x="376" y="572"/>
      <point x="399" y="713" type="qcurve"/>
      <point x="416" y="709"/>
      <point x="449" y="697"/>
    </contour>
  </outline>
</glyph>
<glyph name="bracketleft" format="1">
  <advance width="341"/>
  <unicode hex="005B"/>
  <outline>
    <contour>
      <point x="328" y="-86" type="qcurve"/>
      <point x="329" y="-96"/>
      <point x="331" y="-120"/>
      <point x="331" y="-131" type="qcurve"/>
      <point x="286" y="-138"/>
      <point x="182" y="-143"/>
      <point x="125" y="-142" type="qcurve"/>
      <point x="91" y="91"/>
      <point x="59" y="522"/>
      <point x="60" y="753" type="qcurve"/>
      <point x="105" y="765"/>
      <point x="205" y="780"/>
      <point x="262" y="784" type="qcurve"/>
      <point x="263" y="774"/>
      <point x="263" y="751"/>
      <point x="262" y="739" type="qcurve"/>
      <point x="208" y="735"/>
      <point x="143" y="728"/>
      <point x="120" y="723" type="qcurve"/>
      <point x="114" y="498"/>
      <point x="137" y="138"/>
      <point x="170" y="-99" type="qcurve"/>
      <point x="208" y="-99"/>
      <point x="292" y="-92"/>
    </contour>
  </outline>
</glyph>
<glyph name="bracketright" format="1">
  <advance width="312.862576285"/>
  <unicode hex="005D"/>
  <outline>
    <contour>
      <point x="216" y="804" type="qcurve"/>
      <point x="239" y="670"/>
      <point x="246" y="182"/>
      <point x="229" y="-87" type="qcurve"/>
      <point x="183" y="-97"/>
      <point x="84" y="-110"/>
      <point x="27" y="-114" type="qcurve"/>
      <point x="26" y="-104"/>
      <point x="26" y="-81"/>
      <point x="27" y="-69" type="qcurve"/>
      <point x="74" y="-67"/>
      <point x="153" y="-58"/>
      <point x="177" y="-52" type="qcurve"/>
      <point x="194" y="151"/>
      <point x="188" y="562"/>
      <point x="166" y="762" type="qcurve"/>
      <point x="132" y="762"/>
      <point x="53" y="755"/>
      <point x="13" y="748" type="qcurve"/>
      <point x="12" y="758"/>
      <point x="10" y="782"/>
      <point x="10" y="793" type="qcurve"/>
      <point x="55" y="800"/>
      <point x="159" y="805"/>
    </contour>
  </outline>
</glyph>
<glyph name="a" format="1">
  <advance width="435"/>
  <unicode hex="0061"/>
  <outline>
    <contour>
      <point x="374" y="338" type="qcurve" smooth="yes"/>
      <point x="374" y="271"/>
      <point x="338" y="54"/>
      <point x="313" y="-34" type="qcurve"/>
      <point x="302" y="-34"/>
      <point x="277" y="-29"/>
      <point x="264" y="-24" type="qcurve"/>
      <point x="268" y="-8"/>
      <point x="279" y="40"/>
      <point x="280" y="43" type="qcurve"/>
      <point x="259" y="26"/>
      <point x="205" y="8"/>
      <point x="175" y="8" type="qcurve" smooth="yes"/>
      <point x="109" y="8"/>
      <point x="28" y="80"/>
      <point x="28" y="138" type="qcurve" smooth="yes"/>
      <point x="28" y="202"/>
      <point x="138" y="269"/>
      <point x="243" y="269" type="qcurve" smooth="yes"/>
      <point x="257" y="269"/>
      <point x="286" y="268"/>
      <point x="314" y="267" type="qcurve"/>
      <point x="315" y="279"/>
      <point x="315" y="308"/>
      <point x="315" y="341" type="qcurve" smooth="yes"/>
      <point x="315" y="419"/>
      <point x="273" y="488"/>
      <point x="224" y="488" type="qcurve" smooth="yes"/>
      <point x="175" y="488"/>
      <point x="108" y="404"/>
      <point x="106" y="340" type="qcurve"/>
      <point x="84" y="345"/>
      <point x="59" y="358"/>
      <point x="51" y="369" type="qcurve"/>
      <point x="62" y="437"/>
      <point x="167" y="533"/>
      <point x="233" y="533" type="qcurve" smooth="yes"/>
      <point x="303" y="533"/>
      <point x="374" y="435"/>
    </contour>
    <contour>
      <point x="86" y="138" type="qcurve" smooth="yes"/>
      <point x="86" y="99"/>
      <point x="138" y="52"/>
      <point x="180" y="52" type="qcurve" smooth="yes"/>
      <point x="211" y="52"/>
      <point x="268" y="71"/>
      <point x="291" y="89" type="qcurve"/>
      <point x="301" y="136"/>
      <point x="310" y="201"/>
      <point x="312" y="232" type="qcurve"/>
      <point x="200" y="239"/>
      <point x="86" y="192"/>
    </contour>
  </outline>
</glyph>
<glyph name="d" format="1">
  <advance width="437"/>
  <unicode hex="0064"/>
  <outline>
    <contour>
      <point x="371" y="-36" type="qcurve"/>
      <point x="363" y="-39"/>
      <point x="340" y="-42"/>
      <point x="331" y="-42" type="qcurve"/>
      <point x="330" y="-17"/>
      <point x="327" y="50"/>
      <point x="325" y="92" type="qcurve"/>
      <point x="307" y="30"/>
      <point x="245" y="-30"/>
      <point x="198" y="-30" type="qcurve" smooth="yes"/>
      <point x="123" y="-30"/>
      <point x="34" y="117"/>
      <point x="34" y="236" type="qcurve" smooth="yes"/>
      <point x="34" y="365"/>
      <point x="147" y="518"/>
      <point x="243" y="518" type="qcurve" smooth="yes"/>
      <point x="260" y="518"/>
      <point x="299" y="513"/>
      <point x="315" y="508" type="qcurve"/>
      <point x="314" y="603"/>
      <point x="313" y="686"/>
      <point x="313" y="719" type="qcurve"/>
      <point x="320" y="723"/>
      <point x="338" y="727"/>
      <point x="346" y="727" type="qcurve" smooth="yes"/>
      <point x="354" y="727"/>
      <point x="369" y="725"/>
      <point x="376" y="723" type="qcurve"/>
      <point x="372" y="669"/>
      <point x="368" y="481"/>
      <point x="368" y="127" type="qcurve" smooth="yes"/>
      <point x="368" y="79"/>
      <point x="369" y="9"/>
    </contour>
    <contour>
      <point x="89" y="245" type="qcurve" smooth="yes"/>
      <point x="89" y="135"/>
      <point x="148" y="14"/>
      <point x="200" y="14" type="qcurve" smooth="yes"/>
      <point x="249" y="14"/>
      <point x="311" y="121"/>
      <point x="320" y="224" type="qcurve"/>
      <point x="319" y="245"/>
      <point x="318" y="296"/>
      <point x="317" y="348" type="qcurve" smooth="yes"/>
      <point x="317" y="397"/>
      <point x="316" y="445"/>
      <point x="315" y="466" type="qcurve"/>
      <point x="303" y="470"/>
      <point x="271" y="474"/>
      <point x="251" y="474" type="qcurve" smooth="yes"/>
      <point x="178" y="474"/>
      <point x="89" y="352"/>
    </contour>
  </outline>
</glyph>
<glyph name="e" format="1">
  <advance width="416"/>
  <unicode hex="0065"/>
  <outline>
    <contour>
      <point x="97" y="309" type="qcurve"/>
      <point x="128" y="296"/>
      <point x="200" y="284"/>
      <point x="247" y="284" type="qcurve" smooth="yes"/>
      <point x="259" y="284"/>
      <point x="286" y="287"/>
      <point x="292" y="289" type="qcurve"/>
      <point x="299" y="318"/>
      <point x="307" y="368"/>
      <point x="307" y="389" type="qcurve" smooth="yes"/>
      <point x="307" y="437"/>
      <point x="275" y="478"/>
      <point x="239" y="478" type="qcurve" smooth="yes"/>
      <point x="193" y="478"/>
      <point x="115" y="384"/>
    </contour>
    <contour>
      <point x="339" y="167" type="qcurve"/>
      <point x="351" y="165"/>
      <point x="376" y="151"/>
      <point x="385" y="141" type="qcurve"/>
      <point x="367" y="83"/>
      <point x="253" y="-10"/>
      <point x="196" y="-10" type="qcurve" smooth="yes"/>
      <point x="119" y="-10"/>
      <point x="31" y="118"/>
      <point x="31" y="225" type="qcurve" smooth="yes"/>
      <point x="31" y="339"/>
      <point x="156" y="524"/>
      <point x="244" y="524" type="qcurve" smooth="yes"/>
      <point x="299" y="524"/>
      <point x="362" y="451"/>
      <point x="362" y="388" type="qcurve" smooth="yes"/>
      <point x="362" y="353"/>
      <point x="349" y="285"/>
      <point x="337" y="255" type="qcurve"/>
      <point x="318" y="249"/>
      <point x="266" y="243"/>
      <point x="230" y="243" type="qcurve" smooth="yes"/>
      <point x="195" y="243"/>
      <point x="123" y="256"/>
      <point x="89" y="268" type="qcurve"/>
      <point x="87" y="256"/>
      <point x="86" y="233"/>
      <point x="86" y="221" type="qcurve" smooth="yes"/>
      <point x="86" y="138"/>
      <point x="145" y="35"/>
      <point x="195" y="35" type="qcurve" smooth="yes"/>
      <point x="239" y="35"/>
      <point x="324" y="112"/>
    </contour>
  </outline>
</glyph>
<glyph name="f" format="1">
  <advance width="365"/>
  <unicode hex="0066"/>
  <outline>
    <contour>
      <point x="148" y="386" type="qcurve"/>
      <point x="150" y="271"/>
      <point x="172" y="73"/>
      <point x="191" y="-9" type="qcurve"/>
      <point x="173" y="-15"/>
      <point x="146" y="-21"/>
      <point x="135" y="-21" type="qcurve"/>
      <point x="122" y="39"/>
      <point x="97" y="289"/>
      <point x="96" y="392" type="qcurve"/>
      <point x="78" y="395"/>
      <point x="46" y="402"/>
      <point x="34" y="407" type="qcurve"/>
      <point x="34" y="419"/>
      <point x="37" y="439"/>
      <point x="40" y="442" type="qcurve"/>
      <point x="49" y="440"/>
      <point x="73" y="437"/>
      <point x="96" y="435" type="qcurve"/>
      <point x="100" y="587"/>
      <point x="165" y="727"/>
      <point x="233" y="727" type="qcurve" smooth="yes"/>
      <point x="282" y="727"/>
      <point x="339" y="659"/>
      <point x="339" y="604" type="qcurve" smooth="yes"/>
      <point x="339" y="588"/>
      <point x="331" y="552"/>
      <point x="326" y="542" type="qcurve"/>
      <point x="313" y="542"/>
      <point x="289" y="547"/>
      <point x="278" y="551" type="qcurve"/>
      <point x="283" y="568"/>
      <point x="288" y="597"/>
      <point x="288" y="611" type="qcurve" smooth="yes"/>
      <point x="288" y="643"/>
      <point x="258" y="682"/>
      <point x="233" y="682" type="qcurve" smooth="yes"/>
      <point x="192" y="682"/>
      <point x="147" y="561"/>
      <point x="147" y="448" type="qcurve" smooth="yes"/>
      <point x="147" y="444"/>
      <point x="147" y="435"/>
      <point x="147" y="430" type="qcurve"/>
      <point x="177" y="429"/>
      <point x="213" y="428"/>
      <point x="229" y="428" type="qcurve" smooth="yes"/>
      <point x="246" y="428"/>
      <point x="280" y="431"/>
      <point x="297" y="434" type="qcurve"/>
      <point x="297" y="425"/>
      <point x="294" y="400"/>
      <point x="292" y="386" type="qcurve"/>
      <point x="281" y="384"/>
      <point x="247" y="382"/>
      <point x="224" y="382" type="qcurve" smooth="yes"/>
      <point x="202" y="382"/>
      <point x="164" y="384"/>
    </contour>
  </outline>
</glyph>
<glyph name="g" format="1">
  <advance width="430"/>
  <unicode hex="0067"/>
  <outline>
    <contour>
      <point x="105" y="253" type="qcurve" smooth="yes"/>
      <point x="105" y="159"/>
      <point x="158" y="51"/>
      <point x="203" y="51" type="qcurve" smooth="yes"/>
      <point x="241" y="51"/>
      <point x="294" y="131"/>
      <point x="312" y="217" type="qcurve"/>
      <point x="309" y="289"/>
      <point x="292" y="403"/>
      <point x="275" y="459" type="qcurve"/>
      <point x="266" y="463"/>
      <point x="244" y="467"/>
      <point x="231" y="467" type="qcurve" smooth="yes"/>
      <point x="167" y="467"/>
      <point x="105" y="361"/>
    </contour>
    <contour>
      <point x="369" y="169" type="qcurve" smooth="yes"/>
      <point x="369" y="-32"/>
      <point x="270" y="-247"/>
      <point x="185" y="-247" type="qcurve" smooth="yes"/>
      <point x="125" y="-247"/>
      <point x="46" y="-161"/>
      <point x="33" y="-87" type="qcurve"/>
      <point x="47" y="-78"/>
      <point x="74" y="-66"/>
      <point x="87" y="-62" type="qcurve"/>
      <point x="98" y="-136"/>
      <point x="146" y="-202"/>
      <point x="188" y="-202" type="qcurve" smooth="yes"/>
      <point x="243" y="-202"/>
      <point x="307" y="-48"/>
      <point x="312" y="100" type="qcurve"/>
      <point x="292" y="51"/>
      <point x="239" y="4"/>
      <point x="202" y="4" type="qcurve" smooth="yes"/>
      <point x="130" y="4"/>
      <point x="45" y="140"/>
      <point x="45" y="257" type="qcurve" smooth="yes"/>
      <point x="45" y="374"/>
      <point x="146" y="513"/>
      <point x="230" y="513" type="qcurve" smooth="yes"/>
      <point x="257" y="513"/>
      <point x="311" y="499"/>
      <point x="335" y="486" type="qcurve"/>
      <point x="350" y="420"/>
      <point x="369" y="245"/>
    </contour>
  </outline>
</glyph>
<glyph name="h" format="1">
  <advance width="444"/>
  <unicode hex="0068"/>
  <outline>
    <contour>
      <point x="393" y="323" type="qcurve" smooth="yes"/>
      <point x="393" y="243"/>
      <point x="345" y="27"/>
      <point x="319" y="-32" type="qcurve"/>
      <point x="305" y="-29"/>
      <point x="282" y="-21"/>
      <point x="273" y="-15" type="qcurve"/>
      <point x="303" y="63"/>
      <point x="338" y="243"/>
      <point x="338" y="322" type="qcurve" smooth="yes"/>
      <point x="338" y="408"/>
      <point x="304" y="476"/>
      <point x="261" y="476" type="qcurve" smooth="yes"/>
      <point x="215" y="476"/>
      <point x="127" y="373"/>
      <point x="105" y="286" type="qcurve"/>
      <point x="106" y="230"/>
      <point x="117" y="77"/>
      <point x="122" y="33" type="qcurve"/>
      <point x="113" y="30"/>
      <point x="85" y="27"/>
      <point x="72" y="27" type="qcurve"/>
      <point x="65" y="126"/>
      <point x="57" y="303"/>
      <point x="57" y="378" type="qcurve" smooth="yes"/>
      <point x="57" y="463"/>
      <point x="71" y="692"/>
      <point x="79" y="744" type="qcurve"/>
      <point x="92" y="751"/>
      <point x="108" y="755"/>
      <point x="116" y="755" type="qcurve" smooth="yes"/>
      <point x="120" y="755"/>
      <point x="129" y="753"/>
      <point x="138" y="751" type="qcurve" smooth="yes"/>
      <point x="142" y="749"/>
      <point x="148" y="748"/>
      <point x="150" y="747" type="qcurve"/>
      <point x="133" y="670"/>
      <point x="111" y="482"/>
      <point x="107" y="391" type="qcurve"/>
      <point x="137" y="452"/>
      <point x="221" y="523"/>
      <point x="264" y="523" type="qcurve" smooth="yes"/>
      <point x="333" y="523"/>
      <point x="393" y="429"/>
    </contour>
  </outline>
</glyph>
<glyph name="i" format="1">
  <advance width="189"/>
  <unicode hex="0069"/>
  <outline>
    <contour>
      <point x="142" y="739" type="qcurve" smooth="yes"/>
      <point x="153" y="738"/>
      <point x="168" y="734"/>
      <point x="176" y="729" type="qcurve"/>
      <point x="164" y="704"/>
      <point x="145" y="647"/>
      <point x="139" y="621" type="qcurve"/>
      <point x="132" y="620"/>
      <point x="107" y="620"/>
      <point x="95" y="621" type="qcurve"/>
      <point x="94" y="625"/>
      <point x="94" y="634"/>
      <point x="94" y="643" type="qcurve" smooth="yes"/>
      <point x="94" y="666"/>
      <point x="104" y="718"/>
      <point x="112" y="735" type="qcurve"/>
      <point x="121" y="738"/>
      <point x="133" y="740"/>
    </contour>
    <contour>
      <point x="75" y="498" type="qcurve"/>
      <point x="84" y="503"/>
      <point x="102" y="508"/>
      <point x="111" y="508" type="qcurve" smooth="yes"/>
      <point x="115" y="508"/>
      <point x="125" y="507"/>
      <point x="130" y="505" type="qcurve"/>
      <point x="110" y="393"/>
      <point x="98" y="111"/>
      <point x="108" y="-4" type="qcurve"/>
      <point x="102" y="-6"/>
      <point x="89" y="-9"/>
      <point x="82" y="-9" type="qcurve" smooth="yes"/>
      <point x="78" y="-9"/>
      <point x="70" y="-8"/>
      <point x="66" y="-7" type="qcurve"/>
      <point x="49" y="117"/>
      <point x="55" y="390"/>
    </contour>
  </outline>
</glyph>
<glyph name="l" format="1">
  <advance width="182"/>
  <unicode hex="006C"/>
  <outline>
    <contour>
      <point x="118" y="-55" type="qcurve"/>
      <point x="111" y="-57"/>
      <point x="78" y="-61"/>
      <point x="68" y="-61" type="qcurve"/>
      <point x="52" y="168"/>
      <point x="50" y="531"/>
      <point x="62" y="734" type="qcurve"/>
      <point x="69" y="738"/>
      <point x="87" y="742"/>
      <point x="95" y="742" type="qcurve" smooth="yes"/>
      <point x="103" y="742"/>
      <point x="118" y="740"/>
      <point x="125" y="738" type="qcurve"/>
      <point x="108" y="574"/>
      <point x="104" y="161"/>
    </contour>
  </outline>
</glyph>
<glyph name="m" format="1">
  <advance width="678"/>
  <unicode hex="006D"/>
  <outline>
    <contour>
      <point x="106" y="180" type="qcurve" smooth="yes"/>
      <point x="106" y="127"/>
      <point x="110" y="0"/>
      <point x="114" y="-27" type="qcurve"/>
      <point x="105" y="-31"/>
      <point x="78" y="-35"/>
      <point x="66" y="-35" type="qcurve"/>
      <point x="61" y="66"/>
      <point x="52" y="400"/>
      <point x="52" y="519" type="qcurve"/>
      <point x="60" y="523"/>
      <point x="78" y="527"/>
      <point x="88" y="527" type="qcurve" smooth="yes"/>
      <point x="100" y="527"/>
      <point x="114" y="526"/>
      <point x="121" y="524" type="qcurve"/>
      <point x="118" y="501"/>
      <point x="114" y="441"/>
      <point x="112" y="405" type="qcurve"/>
      <point x="142" y="453"/>
      <point x="215" y="503"/>
      <point x="256" y="503" type="qcurve" smooth="yes"/>
      <point x="293" y="503"/>
      <point x="340" y="468"/>
      <point x="352" y="432" type="qcurve"/>
      <point x="386" y="495"/>
      <point x="464" y="558"/>
      <point x="507" y="558" type="qcurve" smooth="yes"/>
      <point x="565" y="558"/>
      <point x="617" y="469"/>
      <point x="617" y="373" type="qcurve" smooth="yes"/>
      <point x="617" y="286"/>
      <point x="584" y="70"/>
      <point x="560" y="-19" type="qcurve"/>
      <point x="547" y="-18"/>
      <point x="518" y="-11"/>
      <point x="510" y="-7" type="qcurve"/>
      <point x="537" y="101"/>
      <point x="562" y="284"/>
      <point x="562" y="377" type="qcurve" smooth="yes"/>
      <point x="562" y="447"/>
      <point x="531" y="507"/>
      <point x="495" y="507" type="qcurve" smooth="yes"/>
      <point x="460" y="507"/>
      <point x="390" y="438"/>
      <point x="363" y="375" type="qcurve"/>
      <point x="365" y="362"/>
      <point x="366" y="334"/>
      <point x="366" y="318" type="qcurve" smooth="yes"/>
      <point x="366" y="247"/>
      <point x="342" y="69"/>
      <point x="327" y="12" type="qcurve"/>
      <point x="314" y="13"/>
      <point x="285" y="20"/>
      <point x="277" y="24" type="qcurve"/>
      <point x="296" y="126"/>
      <point x="311" y="260"/>
      <point x="311" y="322" type="qcurve" smooth="yes"/>
      <point x="311" y="392"/>
      <point x="280" y="452"/>
      <point x="244" y="452" type="qcurve" smooth="yes"/>
      <point x="206" y="452"/>
      <point x="132" y="387"/>
      <point x="109" y="331" type="qcurve"/>
      <point x="108" y="291"/>
      <point x="106" y="213"/>
    </contour>
  </outline>
</glyph>
<glyph name="s" format="1">
  <advance width="352"/>
  <unicode hex="0073"/>
  <outline>
    <contour>
      <point x="206" y="280" type="qcurve" smooth="yes"/>
      <point x="275" y="229"/>
      <point x="318" y="158"/>
      <point x="318" y="115" type="qcurve" smooth="yes"/>
      <point x="318" y="48"/>
      <point x="239" y="-40"/>
      <point x="177" y="-40" type="qcurve" smooth="yes"/>
      <point x="109" y="-40"/>
      <point x="25" y="64"/>
      <point x="25" y="149" type="qcurve"/>
      <point x="40" y="153"/>
      <point x="64" y="156"/>
      <point x="77" y="155" type="qcurve"/>
      <point x="75" y="84"/>
      <point x="129" y="4"/>
      <point x="179" y="4" type="qcurve" smooth="yes"/>
      <point x="218" y="4"/>
      <point x="263" y="58"/>
      <point x="263" y="104" type="qcurve" smooth="yes"/>
      <point x="263" y="141"/>
      <point x="224" y="202"/>
      <point x="161" y="250" type="qcurve" smooth="yes"/>
      <point x="89" y="304"/>
      <point x="44" y="380"/>
      <point x="44" y="427" type="qcurve" smooth="yes"/>
      <point x="44" y="488"/>
      <point x="111" y="557"/>
      <point x="171" y="557" type="qcurve" smooth="yes"/>
      <point x="227" y="557"/>
      <point x="290" y="487"/>
      <point x="303" y="408" type="qcurve"/>
      <point x="292" y="404"/>
      <point x="269" y="398"/>
      <point x="258" y="396" type="qcurve"/>
      <point x="250" y="457"/>
      <point x="207" y="513"/>
      <point x="169" y="513" type="qcurve" smooth="yes"/>
      <point x="136" y="513"/>
      <point x="99" y="471"/>
      <point x="99" y="433" type="qcurve" smooth="yes"/>
      <point x="99" y="394"/>
      <point x="140" y="329"/>
    </contour>
  </outline>
</glyph>
<glyph name="t" format="1">
  <advance width="356"/>
  <unicode hex="0074"/>
  <outline>
    <contour>
      <point x="266" y="203" type="qcurve"/>
      <point x="278" y="202"/>
      <point x="302" y="196"/>
      <point x="311" y="191" type="qcurve"/>
      <point x="308" y="106"/>
      <point x="250" y="11"/>
      <point x="201" y="11" type="qcurve" smooth="yes"/>
      <point x="144" y="11"/>
      <point x="89" y="150"/>
      <point x="89" y="295" type="qcurve" smooth="yes"/>
      <point x="89" y="345"/>
      <point x="95" y="441"/>
      <point x="102" y="489" type="qcurve"/>
      <point x="80" y="491"/>
      <point x="43" y="496"/>
      <point x="26" y="499" type="qcurve"/>
      <point x="27" y="509"/>
      <point x="32" y="529"/>
      <point x="36" y="541" type="qcurve"/>
      <point x="56" y="537"/>
      <point x="92" y="531"/>
      <point x="108" y="530" type="qcurve"/>
      <point x="114" y="564"/>
      <point x="128" y="630"/>
      <point x="136" y="663" type="qcurve"/>
      <point x="150" y="662"/>
      <point x="176" y="657"/>
      <point x="195" y="651" type="qcurve"/>
      <point x="185" y="619"/>
      <point x="169" y="556"/>
      <point x="163" y="526" type="qcurve"/>
      <point x="195" y="525"/>
      <point x="270" y="527"/>
      <point x="315" y="531" type="qcurve"/>
      <point x="315" y="522"/>
      <point x="311" y="502"/>
      <point x="308" y="491" type="qcurve"/>
      <point x="265" y="487"/>
      <point x="189" y="485"/>
      <point x="155" y="486" type="qcurve"/>
      <point x="147" y="438"/>
      <point x="139" y="337"/>
      <point x="139" y="286" type="qcurve" smooth="yes"/>
      <point x="139" y="174"/>
      <point x="173" y="56"/>
      <point x="206" y="56" type="qcurve" smooth="yes"/>
      <point x="236" y="56"/>
      <point x="265" y="126"/>
    </contour>
  </outline>
</glyph>
<glyph name="u" format="1">
  <advance width="386"/>
  <unicode hex="0075"/>
  <outline>
    <contour>
      <point x="177" y="-10" type="qcurve" smooth="yes"/>
      <point x="110" y="-10"/>
      <point x="41" y="133"/>
      <point x="41" y="271" type="qcurve" smooth="yes"/>
      <point x="41" y="341"/>
      <point x="63" y="478"/>
      <point x="80" y="510" type="qcurve"/>
      <point x="86" y="512"/>
      <point x="99" y="515"/>
      <point x="106" y="515" type="qcurve" smooth="yes"/>
      <point x="111" y="515"/>
      <point x="122" y="512"/>
      <point x="127" y="510" type="qcurve"/>
      <point x="111" y="462"/>
      <point x="94" y="337"/>
      <point x="94" y="261" type="qcurve" smooth="yes"/>
      <point x="94" y="163"/>
      <point x="143" y="35"/>
      <point x="185" y="35" type="qcurve" smooth="yes"/>
      <point x="236" y="35"/>
      <point x="290" y="183"/>
      <point x="290" y="320" type="qcurve" smooth="yes"/>
      <point x="290" y="360"/>
      <point x="282" y="444"/>
      <point x="278" y="461" type="qcurve"/>
      <point x="289" y="466"/>
      <point x="322" y="472"/>
      <point x="335" y="472" type="qcurve"/>
      <point x="340" y="450"/>
      <point x="345" y="387"/>
      <point x="345" y="355" type="qcurve" smooth="yes"/>
      <point x="345" y="178"/>
      <point x="260" y="-10"/>
    </contour>
  </outline>
</glyph>
<glyph name="v" format="1">
  <advance width="421"/>
  <unicode hex="0076"/>
  <outline>
    <contour>
      <point x="385" y="510" type="qcurve"/>
      <point x="348" y="353"/>
      <point x="274" y="152"/>
      <point x="205" y="12" type="qcurve"/>
      <point x="202" y="11"/>
      <point x="182" y="10"/>
      <point x="165" y="10" type="qcurve"/>
      <point x="135" y="166"/>
      <point x="59" y="430"/>
      <point x="11" y="546" type="qcurve"/>
      <point x="24" y="554"/>
      <point x="54" y="564"/>
      <point x="69" y="565" type="qcurve"/>
      <point x="108" y="457"/>
      <point x="166" y="242"/>
      <point x="197" y="91" type="qcurve"/>
      <point x="251" y="210"/>
      <point x="320" y="435"/>
      <point x="333" y="530" type="qcurve"/>
      <point x="346" y="528"/>
      <point x="372" y="518"/>
    </contour>
  </outline>
</glyph>
<glyph name="x" format="1">
  <advance width="471"/>
  <unicode hex="0078"/>
  <outline>
    <contour>
      <point x="440" y="2" type="qcurve"/>
      <point x="428" y="-7"/>
      <point x="405" y="-20"/>
      <point x="397" y="-23" type="qcurve"/>
      <point x="367" y="47"/>
      <point x="297" y="185"/>
      <point x="258" y="253" type="qcurve"/>
      <point x="211" y="193"/>
      <point x="105" y="75"/>
      <point x="35" y="5" type="qcurve"/>
      <point x="25" y="11"/>
      <point x="8" y="27"/>
      <point x="1" y="37" type="qcurve"/>
      <point x="63" y="96"/>
      <point x="179" y="226"/>
      <point x="232" y="296" type="qcurve"/>
      <point x="196" y="354"/>
      <point x="118" y="465"/>
      <point x="75" y="518" type="qcurve"/>
      <point x="93" y="530"/>
      <point x="123" y="547"/>
      <point x="137" y="552" type="qcurve"/>
      <point x="174" y="496"/>
      <point x="239" y="391"/>
      <point x="269" y="340" type="qcurve"/>
      <point x="306" y="392"/>
      <point x="371" y="493"/>
      <point x="399" y="543" type="qcurve"/>
      <point x="413" y="533"/>
      <point x="438" y="503"/>
      <point x="440" y="500" type="qcurve"/>
      <point x="400" y="441"/>
      <point x="329" y="341"/>
      <point x="295" y="295" type="qcurve"/>
      <point x="333" y="228"/>
      <point x="404" y="85"/>
    </contour>
  </outline>
</glyph>
<glyph name="y" format="1">
  <advance width="421"/>
  <unicode hex="0079"/>
  <outline>
    <contour>
      <point x="360" y="199" type="qcurve" smooth="yes"/>
      <point x="360" y="-2"/>
      <point x="266" y="-217"/>
      <point x="186" y="-217" type="qcurve" smooth="yes"/>
      <point x="131" y="-217"/>
      <point x="57" y="-131"/>
      <point x="44" y="-57" type="qcurve"/>
      <point x="58" y="-48"/>
      <point x="85" y="-36"/>
      <point x="98" y="-32" type="qcurve"/>
      <point x="109" y="-107"/>
      <point x="151" y="-172"/>
      <point x="189" y="-172" type="qcurve" smooth="yes"/>
      <point x="237" y="-172"/>
      <point x="295" y="-35"/>
      <point x="302" y="98" type="qcurve"/>
      <point x="279" y="59"/>
      <point x="220" y="19"/>
      <point x="185" y="19" type="qcurve" smooth="yes"/>
      <point x="120" y="19"/>
      <point x="41" y="142"/>
      <point x="41" y="245" type="qcurve" smooth="yes"/>
      <point x="41" y="313"/>
      <point x="60" y="430"/>
      <point x="92" y="530" type="qcurve"/>
      <point x="105" y="529"/>
      <point x="134" y="522"/>
      <point x="142" y="518" type="qcurve"/>
      <point x="117" y="427"/>
      <point x="98" y="312"/>
      <point x="98" y="246" type="qcurve" smooth="yes"/>
      <point x="98" y="167"/>
      <point x="151" y="70"/>
      <point x="197" y="70" type="qcurve" smooth="yes"/>
      <point x="229" y="70"/>
      <point x="283" y="129"/>
      <point x="304" y="188" type="qcurve"/>
      <point x="303" y="285"/>
      <point x="285" y="430"/>
      <point x="263" y="499" type="qcurve"/>
      <point x="275" y="511"/>
      <point x="310" y="520"/>
      <point x="326" y="516" type="qcurve"/>
      <point x="341" y="450"/>
      <point x="360" y="275"/>
    </contour>
  </outline>
</glyph>
<glyph name="bar" format="1">
  <advance width="264"/>
  <unicode hex="007C"/>
  <outline>
    <contour>
      <point x="168" y="-165" type="qcurve"/>
      <point x="161" y="-167"/>
      <point x="130" y="-171"/>
      <point x="120" y="-171" type="qcurve"/>
      <point x="110" y="21"/>
      <point x="99" y="480"/>
      <point x="100" y="714" type="qcurve"/>
      <point x="113" y="720"/>
      <point x="146" y="726"/>
      <point x="163" y="725" type="qcurve"/>
      <point x="154" y="558"/>
      <point x="158" y="40"/>
    </contour>
  </outline>
</glyph>
<glyph name="sterling" format="1">
  <advance width="404"/>
  <unicode hex="00A3"/>
  <outline>
    <contour>
      <point x="181" y="9" type="qcurve" smooth="yes"/>
      <point x="153" y="13"/>
      <point x="127" y="15"/>
      <point x="116" y="15" type="qcurve" smooth="yes"/>
      <point x="99" y="15"/>
      <point x="62" y="6"/>
      <point x="39" y="-4" type="qcurve"/>
      <point x="33" y="6"/>
      <point x="27" y="25"/>
      <point x="27" y="35" type="qcurve"/>
      <point x="44" y="43"/>
      <point x="82" y="53"/>
      <point x="104" y="55" type="qcurve"/>
      <point x="137" y="77"/>
      <point x="167" y="128"/>
      <point x="167" y="162" type="qcurve" smooth="yes"/>
      <point x="167" y="186"/>
      <point x="156" y="222"/>
      <point x="143" y="243" type="qcurve"/>
      <point x="114" y="242"/>
      <point x="56" y="242"/>
      <point x="28" y="244" type="qcurve"/>
      <point x="25" y="267"/>
      <point x="26" y="280"/>
      <point x="28" y="286" type="qcurve"/>
      <point x="49" y="284"/>
      <point x="94" y="281"/>
      <point x="116" y="281" type="qcurve"/>
      <point x="74" y="339"/>
      <point x="41" y="431"/>
      <point x="41" y="478" type="qcurve" smooth="yes"/>
      <point x="41" y="562"/>
      <point x="137" y="673"/>
      <point x="212" y="673" type="qcurve" smooth="yes"/>
      <point x="293" y="673"/>
      <point x="372" y="553"/>
      <point x="367" y="436" type="qcurve"/>
      <point x="355" y="434"/>
      <point x="329" y="436"/>
      <point x="316" y="440" type="qcurve"/>
      <point x="320" y="535"/>
      <point x="268" y="629"/>
      <point x="211" y="629" type="qcurve" smooth="yes"/>
      <point x="158" y="629"/>
      <point x="96" y="549"/>
      <point x="96" y="480" type="qcurve" smooth="yes"/>
      <point x="96" y="452"/>
      <point x="106" y="400"/>
      <point x="117" y="375" type="qcurve" smooth="yes"/>
      <point x="122" y="363"/>
      <point x="136" y="339"/>
      <point x="172" y="283" type="qcurve"/>
      <point x="210" y="284"/>
      <point x="301" y="293"/>
      <point x="354" y="301" type="qcurve"/>
      <point x="354" y="294"/>
      <point x="354" y="286"/>
      <point x="353" y="283" type="qcurve" smooth="yes"/>
      <point x="351" y="272"/>
      <point x="350" y="264"/>
      <point x="349" y="261" type="qcurve"/>
      <point x="307" y="255"/>
      <point x="228" y="247"/>
      <point x="193" y="245" type="qcurve"/>
      <point x="202" y="225"/>
      <point x="211" y="188"/>
      <point x="211" y="168" type="qcurve" smooth="yes"/>
      <point x="211" y="134"/>
      <point x="183" y="76"/>
      <point x="154" y="52" type="qcurve"/>
      <point x="190" y="49"/>
      <point x="235" y="46"/>
      <point x="244" y="46" type="qcurve" smooth="yes"/>
      <point x="277" y="46"/>
      <point x="349" y="54"/>
      <point x="385" y="61" type="qcurve"/>
      <point x="392" y="47"/>
      <point x="395" y="24"/>
      <point x="393" y="6" type="qcurve"/>
      <point x="342" y="0"/>
      <point x="249" y="1"/>
    </contour>
  </outline>
</glyph>
<glyph name="yen" format="1">
  <advance width="456"/>
  <unicode hex="00A5"/>
  <outline>
    <contour>
      <point x="231" y="-43" type="qcurve"/>
      <point x="220" y="-45"/>
      <point x="197" y="-47"/>
      <point x="186" y="-47" type="qcurve"/>
      <point x="190" y="11"/>
      <point x="195" y="110"/>
      <point x="196" y="156" type="qcurve"/>
      <point x="159" y="156"/>
      <point x="89" y="160"/>
      <point x="53" y="164" type="qcurve"/>
      <point x="53" y="182"/>
      <point x="55" y="199"/>
      <point x="57" y="206" type="qcurve"/>
      <point x="95" y="202"/>
      <point x="162" y="197"/>
      <point x="196" y="196" type="qcurve"/>
      <point x="196" y="231"/>
      <point x="196" y="266"/>
      <point x="195" y="281" type="qcurve"/>
      <point x="166" y="281"/>
      <point x="101" y="285"/>
      <point x="58" y="289" type="qcurve"/>
      <point x="58" y="307"/>
      <point x="60" y="324"/>
      <point x="62" y="331" type="qcurve"/>
      <point x="96" y="327"/>
      <point x="154" y="323"/>
      <point x="181" y="322" type="qcurve"/>
      <point x="149" y="409"/>
      <point x="78" y="553"/>
      <point x="22" y="641" type="qcurve"/>
      <point x="25" y="644"/>
      <point x="34" y="650"/>
      <point x="40" y="654" type="qcurve" smooth="yes"/>
      <point x="44" y="656"/>
      <point x="54" y="661"/>
      <point x="65" y="666" type="qcurve"/>
      <point x="117" y="577"/>
      <point x="183" y="432"/>
      <point x="221" y="324" type="qcurve"/>
      <point x="279" y="420"/>
      <point x="352" y="578"/>
      <point x="384" y="678" type="qcurve"/>
      <point x="393" y="677"/>
      <point x="409" y="671"/>
      <point x="426" y="661" type="qcurve"/>
      <point x="401" y="580"/>
      <point x="328" y="427"/>
      <point x="263" y="322" type="qcurve"/>
      <point x="286" y="323"/>
      <point x="341" y="326"/>
      <point x="404" y="332" type="qcurve"/>
      <point x="404" y="328"/>
      <point x="403" y="319"/>
      <point x="402" y="313" type="qcurve" smooth="yes"/>
      <point x="401" y="309"/>
      <point x="399" y="301"/>
      <point x="397" y="292" type="qcurve"/>
      <point x="345" y="287"/>
      <point x="274" y="282"/>
      <point x="245" y="281" type="qcurve"/>
      <point x="245" y="260"/>
      <point x="245" y="217"/>
      <point x="245" y="196" type="qcurve"/>
      <point x="286" y="198"/>
      <point x="361" y="203"/>
      <point x="399" y="207" type="qcurve"/>
      <point x="399" y="204"/>
      <point x="398" y="197"/>
      <point x="397" y="187" type="qcurve" smooth="yes"/>
      <point x="396" y="183"/>
      <point x="394" y="173"/>
      <point x="392" y="167" type="qcurve"/>
      <point x="356" y="163"/>
      <point x="285" y="158"/>
      <point x="245" y="156" type="qcurve"/>
      <point x="243" y="107"/>
      <point x="236" y="9"/>
    </contour>
  </outline>
</glyph>
<glyph name="ordfeminine" format="1">
  <advance width="237"/>
  <unicode hex="00AA"/>
  <outline>
    <contour>
      <point x="211" y="633" type="qcurve" smooth="yes"/>
      <point x="211" y="597"/>
      <point x="191" y="480"/>
      <point x="178" y="431" type="qcurve"/>
      <point x="169" y="431"/>
      <point x="148" y="435"/>
      <point x="137" y="438" type="qcurve"/>
      <point x="139" y="445"/>
      <point x="144" y="468"/>
      <point x="144" y="469" type="qcurve"/>
      <point x="133" y="462"/>
      <point x="104" y="454"/>
      <point x="89" y="454" type="qcurve" smooth="yes"/>
      <point x="51" y="454"/>
      <point x="5" y="493"/>
      <point x="5" y="526" type="qcurve" smooth="yes"/>
      <point x="5" y="561"/>
      <point x="65" y="598"/>
      <point x="122" y="598" type="qcurve" smooth="yes"/>
      <point x="131" y="598"/>
      <point x="147" y="597"/>
      <point x="161" y="596" type="qcurve"/>
      <point x="161" y="603"/>
      <point x="161" y="616"/>
      <point x="161" y="623" type="qcurve" smooth="yes"/>
      <point x="161" y="667"/>
      <point x="141" y="706"/>
      <point x="118" y="706" type="qcurve" smooth="yes"/>
      <point x="95" y="706"/>
      <point x="65" y="665"/>
      <point x="64" y="632" type="qcurve"/>
      <point x="47" y="634"/>
      <point x="24" y="646"/>
      <point x="19" y="656" type="qcurve"/>
      <point x="25" y="691"/>
      <point x="85" y="739"/>
      <point x="124" y="739" type="qcurve" smooth="yes"/>
      <point x="167" y="739"/>
      <point x="211" y="685"/>
    </contour>
    <contour>
      <point x="56" y="524" type="qcurve" smooth="yes"/>
      <point x="56" y="506"/>
      <point x="80" y="484"/>
      <point x="100" y="484" type="qcurve" smooth="yes"/>
      <point x="114" y="484"/>
      <point x="139" y="492"/>
      <point x="150" y="500" type="qcurve"/>
      <point x="154" y="519"/>
      <point x="158" y="553"/>
      <point x="160" y="571" type="qcurve"/>
      <point x="108" y="574"/>
      <point x="56" y="550"/>
    </contour>
  </outline>
</glyph>
<glyph name="registered" format="1">
  <advance width="725"/>
  <unicode hex="00AE"/>
  <outline>
    <contour>
      <point x="390" y="698" type="qcurve" smooth="yes"/>
      <point x="529" y="698"/>
      <point x="680" y="511"/>
      <point x="680" y="345" type="qcurve" smooth="yes"/>
      <point x="680" y="181"/>
      <point x="506" y="-8"/>
      <point x="355" y="-8" type="qcurve" smooth="yes"/>
      <point x="217" y="-8"/>
      <point x="45" y="174"/>
      <point x="45" y="322" type="qcurve" smooth="yes"/>
      <point x="45" y="494"/>
      <point x="233" y="698"/>
    </contour>
    <contour>
      <point x="100" y="335" type="qcurve" smooth="yes"/>
      <point x="100" y="197"/>
      <point x="241" y="36"/>
      <point x="363" y="36" type="qcurve" smooth="yes"/>
      <point x="489" y="36"/>
      <point x="625" y="198"/>
      <point x="625" y="347" type="qcurve" smooth="yes"/>
      <point x="625" y="491"/>
      <point x="495" y="654"/>
      <point x="378" y="654" type="qcurve" smooth="yes"/>
      <point x="263" y="654"/>
      <point x="100" y="468"/>
    </contour>
    <contour>
      <point x="511" y="155" type="qcurve"/>
      <point x="504" y="148"/>
      <point x="478" y="135"/>
      <point x="465" y="132" type="qcurve"/>
      <point x="436" y="199"/>
      <point x="393" y="278"/>
      <point x="366" y="315" type="qcurve"/>
      <point x="351" y="309"/>
      <point x="322" y="299"/>
      <point x="310" y="296" type="qcurve"/>
      <point x="309" y="259"/>
      <point x="305" y="183"/>
      <point x="301" y="146" type="qcurve"/>
      <point x="291" y="145"/>
      <point x="266" y="147"/>
      <point x="258" y="149" type="qcurve"/>
      <point x="260" y="179"/>
      <point x="262" y="230"/>
      <point x="262" y="263" type="qcurve" smooth="yes"/>
      <point x="262" y="348"/>
      <point x="256" y="455"/>
      <point x="249" y="523" type="qcurve"/>
      <point x="272" y="540"/>
      <point x="334" y="560"/>
      <point x="364" y="560" type="qcurve" smooth="yes"/>
      <point x="419" y="560"/>
      <point x="483" y="504"/>
      <point x="483" y="457" type="qcurve" smooth="yes"/>
      <point x="483" y="418"/>
      <point x="444" y="357"/>
      <point x="405" y="334" type="qcurve"/>
      <point x="431" y="305"/>
      <point x="483" y="215"/>
    </contour>
    <contour>
      <point x="305" y="513" type="qcurve"/>
      <point x="308" y="465"/>
      <point x="311" y="394"/>
      <point x="311" y="360" type="qcurve" smooth="yes"/>
      <point x="311" y="353"/>
      <point x="311" y="339"/>
      <point x="311" y="332" type="qcurve"/>
      <point x="373" y="348"/>
      <point x="431" y="405"/>
      <point x="431" y="449" type="qcurve" smooth="yes"/>
      <point x="431" y="486"/>
      <point x="393" y="526"/>
      <point x="359" y="526" type="qcurve" smooth="yes"/>
      <point x="345" y="526"/>
      <point x="318" y="519"/>
    </contour>
  </outline>
</glyph>
<glyph name="degree" format="1">
  <advance width="239"/>
  <unicode hex="00B0"/>
  <outline>
    <contour>
      <point x="10" y="629" type="qcurve" smooth="yes"/>
      <point x="10" y="679"/>
      <point x="74" y="740"/>
      <point x="128" y="740" type="qcurve" smooth="yes"/>
      <point x="174" y="740"/>
      <point x="229" y="689"/>
      <point x="229" y="648" type="qcurve" smooth="yes"/>
      <point x="229" y="590"/>
      <point x="167" y="523"/>
      <point x="114" y="523" type="qcurve" smooth="yes"/>
      <point x="67" y="523"/>
      <point x="10" y="582"/>
    </contour>
    <contour>
      <point x="179" y="639" type="qcurve" smooth="yes"/>
      <point x="179" y="669"/>
      <point x="149" y="702"/>
      <point x="123" y="702" type="qcurve" smooth="yes"/>
      <point x="94" y="702"/>
      <point x="56" y="660"/>
      <point x="56" y="628" type="qcurve" smooth="yes"/>
      <point x="56" y="599"/>
      <point x="89" y="564"/>
      <point x="117" y="564" type="qcurve" smooth="yes"/>
      <point x="143" y="564"/>
      <point x="179" y="606"/>
    </contour>
  </outline>
</glyph>
<glyph name="plusminus" format="1">
  <advance width="340"/>
  <unicode hex="00B1"/>
  <outline>
    <contour>
      <point x="187" y="316" type="qcurve"/>
      <point x="186" y="278"/>
      <point x="182" y="220"/>
      <point x="179" y="194" type="qcurve"/>
      <point x="169" y="192"/>
      <point x="148" y="192"/>
      <point x="137" y="195" type="qcurve"/>
      <point x="141" y="228"/>
      <point x="145" y="287"/>
      <point x="145" y="316" type="qcurve"/>
      <point x="108" y="317"/>
      <point x="48" y="321"/>
      <point x="22" y="324" type="qcurve"/>
      <point x="22" y="335"/>
      <point x="24" y="354"/>
      <point x="27" y="366" type="qcurve"/>
      <point x="59" y="362"/>
      <point x="117" y="358"/>
      <point x="145" y="358" type="qcurve"/>
      <point x="145" y="384"/>
      <point x="142" y="443"/>
      <point x="139" y="477" type="qcurve"/>
      <point x="149" y="479"/>
      <point x="169" y="479"/>
      <point x="179" y="477" type="qcurve"/>
      <point x="182" y="452"/>
      <point x="186" y="395"/>
      <point x="187" y="358" type="qcurve"/>
      <point x="213" y="358"/>
      <point x="273" y="361"/>
      <point x="309" y="364" type="qcurve"/>
      <point x="309" y="353"/>
      <point x="307" y="333"/>
      <point x="305" y="324" type="qcurve"/>
      <point x="281" y="321"/>
      <point x="224" y="317"/>
    </contour>
    <contour>
      <point x="21" y="122" type="qcurve"/>
      <point x="21" y="133"/>
      <point x="23" y="152"/>
      <point x="26" y="164" type="qcurve"/>
      <point x="94" y="156"/>
      <point x="222" y="155"/>
      <point x="308" y="162" type="qcurve"/>
      <point x="308" y="151"/>
      <point x="306" y="131"/>
      <point x="304" y="122" type="qcurve"/>
      <point x="236" y="114"/>
      <point x="92" y="114"/>
    </contour>
  </outline>
</glyph>
<glyph name="twosuperior" format="1">
  <advance width="254"/>
  <unicode hex="00B2"/>
  <outline>
    <contour>
      <point x="244" y="338" type="qcurve"/>
      <point x="243" y="327"/>
      <point x="238" y="306"/>
      <point x="233" y="294" type="qcurve"/>
      <point x="153" y="300"/>
      <point x="38" y="316"/>
      <point x="-4" y="328" type="qcurve"/>
      <point x="-3" y="339"/>
      <point x="1" y="357"/>
      <point x="3" y="364" type="qcurve"/>
      <point x="104" y="437"/>
      <point x="190" y="552"/>
      <point x="190" y="615" type="qcurve" smooth="yes"/>
      <point x="190" y="646"/>
      <point x="161" y="682"/>
      <point x="136" y="682" type="qcurve" smooth="yes"/>
      <point x="110" y="682"/>
      <point x="72" y="632"/>
      <point x="63" y="586" type="qcurve"/>
      <point x="50" y="586"/>
      <point x="26" y="591"/>
      <point x="14" y="596" type="qcurve"/>
      <point x="27" y="654"/>
      <point x="91" y="717"/>
      <point x="137" y="717" type="qcurve" smooth="yes"/>
      <point x="184" y="717"/>
      <point x="243" y="658"/>
      <point x="243" y="609" type="qcurve" smooth="yes"/>
      <point x="243" y="550"/>
      <point x="147" y="420"/>
      <point x="53" y="352" type="qcurve"/>
      <point x="99" y="345"/>
      <point x="186" y="339"/>
    </contour>
  </outline>
</glyph>
<glyph name="threesuperior" format="1">
  <advance width="270"/>
  <unicode hex="00B3"/>
  <outline>
    <contour>
      <point x="266" y="409" type="qcurve" smooth="yes"/>
      <point x="266" y="349"/>
      <point x="197" y="274"/>
      <point x="144" y="274" type="qcurve" smooth="yes"/>
      <point x="91" y="274"/>
      <point x="24" y="350"/>
      <point x="21" y="417" type="qcurve"/>
      <point x="31" y="421"/>
      <point x="53" y="425"/>
      <point x="70" y="426" type="qcurve"/>
      <point x="70" y="371"/>
      <point x="111" y="309"/>
      <point x="145" y="309" type="qcurve" smooth="yes"/>
      <point x="177" y="309"/>
      <point x="213" y="355"/>
      <point x="213" y="396" type="qcurve" smooth="yes"/>
      <point x="213" y="456"/>
      <point x="142" y="517"/>
      <point x="76" y="513" type="qcurve"/>
      <point x="74" y="525"/>
      <point x="72" y="541"/>
      <point x="72" y="544" type="qcurve"/>
      <point x="115" y="570"/>
      <point x="178" y="626"/>
      <point x="203" y="662" type="qcurve"/>
      <point x="141" y="658"/>
      <point x="52" y="644"/>
      <point x="10" y="634" type="qcurve"/>
      <point x="8" y="645"/>
      <point x="7" y="667"/>
      <point x="8" y="677" type="qcurve"/>
      <point x="69" y="689"/>
      <point x="191" y="703"/>
      <point x="250" y="704" type="qcurve"/>
      <point x="253" y="693"/>
      <point x="255" y="674"/>
      <point x="254" y="665" type="qcurve"/>
      <point x="232" y="628"/>
      <point x="178" y="572"/>
      <point x="138" y="543" type="qcurve"/>
      <point x="200" y="532"/>
      <point x="266" y="463"/>
    </contour>
  </outline>
</glyph>
<glyph name="uni00B5" format="1">
  <advance width="421"/>
  <unicode hex="00B5"/>
  <outline>
    <contour>
      <point x="80" y="51" type="qcurve"/>
      <point x="84" y="-20"/>
      <point x="98" y="-147"/>
      <point x="106" y="-193" type="qcurve"/>
      <point x="100" y="-194"/>
      <point x="86" y="-195"/>
      <point x="74" y="-195" type="qcurve" smooth="yes"/>
      <point x="64" y="-195"/>
      <point x="46" y="-191"/>
      <point x="38" y="-187" type="qcurve"/>
      <point x="38" y="-8"/>
      <point x="41" y="141"/>
      <point x="44" y="212" type="qcurve" smooth="yes"/>
      <point x="47" y="288"/>
      <point x="71" y="465"/>
      <point x="83" y="510" type="qcurve"/>
      <point x="96" y="509"/>
      <point x="125" y="502"/>
      <point x="133" y="498" type="qcurve"/>
      <point x="115" y="399"/>
      <point x="99" y="250"/>
      <point x="99" y="180" type="qcurve" smooth="yes"/>
      <point x="99" y="111"/>
      <point x="133" y="50"/>
      <point x="171" y="50" type="qcurve" smooth="yes"/>
      <point x="211" y="50"/>
      <point x="288" y="128"/>
      <point x="314" y="197" type="qcurve"/>
      <point x="316" y="302"/>
      <point x="309" y="486"/>
      <point x="301" y="549" type="qcurve"/>
      <point x="310" y="552"/>
      <point x="341" y="557"/>
      <point x="354" y="557" type="qcurve"/>
      <point x="359" y="456"/>
      <point x="368" y="122"/>
      <point x="368" y="3" type="qcurve"/>
      <point x="360" y="-1"/>
      <point x="342" y="-5"/>
      <point x="332" y="-5" type="qcurve" smooth="yes"/>
      <point x="327" y="-5"/>
      <point x="318" y="-4"/>
      <point x="305" y="-2" type="qcurve"/>
      <point x="307" y="18"/>
      <point x="310" y="74"/>
      <point x="312" y="121" type="qcurve"/>
      <point x="278" y="60"/>
      <point x="201" y="-1"/>
      <point x="159" y="-1" type="qcurve" smooth="yes"/>
      <point x="132" y="-1"/>
      <point x="93" y="25"/>
    </contour>
  </outline>
</glyph>
<glyph name="cedilla" format="1">
  <advance width="261"/>
  <unicode hex="00B8"/>
  <outline>
    <contour>
      <point x="224" y="-132" type="qcurve" smooth="yes"/>
      <point x="224" y="-173"/>
      <point x="167" y="-225"/>
      <point x="121" y="-225" type="qcurve" smooth="yes"/>
      <point x="84" y="-225"/>
      <point x="34" y="-188"/>
      <point x="20" y="-151" type="qcurve"/>
      <point x="33" y="-142"/>
      <point x="49" y="-133"/>
      <point x="58" y="-130" type="qcurve"/>
      <point x="66" y="-154"/>
      <point x="98" y="-182"/>
      <point x="119" y="-182" type="qcurve" smooth="yes"/>
      <point x="143" y="-182"/>
      <point x="171" y="-157"/>
      <point x="171" y="-135" type="qcurve" smooth="yes"/>
      <point x="171" y="-117"/>
      <point x="144" y="-92"/>
      <point x="125" y="-92" type="qcurve" smooth="yes"/>
      <point x="114" y="-92"/>
      <point x="97" y="-97"/>
      <point x="88" y="-102" type="qcurve"/>
      <point x="80" y="-96"/>
      <point x="64" y="-80"/>
      <point x="61" y="-75" type="qcurve"/>
      <point x="75" y="-54"/>
      <point x="91" y="-13"/>
      <point x="94" y="9" type="qcurve"/>
      <point x="141" y="-1" type="line"/>
      <point x="139" y="-16"/>
      <point x="131" y="-43"/>
      <point x="123" y="-57" type="qcurve"/>
      <point x="133" y="-56"/>
      <point x="140" y="-55"/>
      <point x="143" y="-55" type="qcurve" smooth="yes"/>
      <point x="180" y="-55"/>
      <point x="224" y="-97"/>
    </contour>
    <contour>
      <point x="114.0" y="0.0" type="move" name="_bottom"/>
    </contour>
  </outline>
</glyph>
<glyph name="questiondown" format="1">
  <advance width="343"/>
  <unicode hex="00BF"/>
  <outline>
    <contour>
      <point x="162" y="488" type="qcurve"/>
      <point x="161" y="504"/>
      <point x="159" y="546"/>
      <point x="159" y="550" type="qcurve"/>
      <point x="167" y="552"/>
      <point x="183" y="553"/>
      <point x="190" y="553" type="qcurve" smooth="yes"/>
      <point x="194" y="553"/>
      <point x="203" y="552"/>
      <point x="216" y="551" type="qcurve"/>
      <point x="217" y="535"/>
      <point x="217" y="503"/>
      <point x="216" y="488" type="qcurve"/>
      <point x="200" y="487"/>
      <point x="176" y="487"/>
    </contour>
    <contour>
      <point x="338" y="7" type="qcurve"/>
      <point x="331" y="-103"/>
      <point x="251" y="-211"/>
      <point x="176" y="-211" type="qcurve" smooth="yes"/>
      <point x="110" y="-211"/>
      <point x="30" y="-108"/>
      <point x="30" y="-23" type="qcurve" smooth="yes"/>
      <point x="30" y="53"/>
      <point x="106" y="166"/>
      <point x="176" y="191" type="qcurve"/>
      <point x="176" y="352" type="line"/>
      <point x="185" y="353"/>
      <point x="204" y="353"/>
      <point x="213" y="352" type="qcurve"/>
      <point x="213" y="350"/>
      <point x="225" y="209"/>
      <point x="226" y="164" type="qcurve"/>
      <point x="157" y="147"/>
      <point x="85" y="54"/>
      <point x="85" y="-19" type="qcurve" smooth="yes"/>
      <point x="85" y="-86"/>
      <point x="138" y="-167"/>
      <point x="182" y="-167" type="qcurve" smooth="yes"/>
      <point x="233" y="-167"/>
      <point x="288" y="-72"/>
      <point x="288" y="14" type="qcurve"/>
      <point x="300" y="14"/>
      <point x="325" y="10"/>
    </contour>
  </outline>
</glyph>
<glyph name="multiply" format="1">
  <advance width="341"/>
  <unicode hex="00D7"/>
  <outline>
    <contour>
      <point x="291" y="213" type="qcurve"/>
      <point x="284" y="206"/>
      <point x="269" y="194"/>
      <point x="258" y="187" type="qcurve"/>
      <point x="229" y="223"/>
      <point x="192" y="267"/>
      <point x="173" y="286" type="qcurve"/>
      <point x="164" y="276"/>
      <point x="144" y="253"/>
      <point x="122" y="227" type="qcurve" smooth="yes"/>
      <point x="109" y="212"/>
      <point x="96" y="197"/>
      <point x="90" y="190" type="qcurve"/>
      <point x="82" y="195"/>
      <point x="67" y="210"/>
      <point x="62" y="218" type="qcurve"/>
      <point x="84" y="246"/>
      <point x="124" y="294"/>
      <point x="143" y="316" type="qcurve"/>
      <point x="117" y="341"/>
      <point x="72" y="381"/>
      <point x="50" y="400" type="qcurve"/>
      <point x="57" y="407"/>
      <point x="73" y="420"/>
      <point x="81" y="425" type="qcurve"/>
      <point x="100" y="410"/>
      <point x="143" y="373"/>
      <point x="172" y="346" type="qcurve"/>
      <point x="195" y="370"/>
      <point x="240" y="411"/>
      <point x="262" y="428" type="qcurve"/>
      <point x="270" y="423"/>
      <point x="284" y="408"/>
      <point x="291" y="398" type="qcurve"/>
      <point x="268" y="380"/>
      <point x="225" y="341"/>
      <point x="201" y="316" type="qcurve"/>
      <point x="226" y="290"/>
      <point x="271" y="239"/>
    </contour>
  </outline>
</glyph>
<glyph name="Oslash" format="1">
  <advance width="575"/>
  <unicode hex="00D8"/>
  <outline>
    <contour>
      <point x="304" y="685" type="qcurve" smooth="yes"/>
      <point x="216" y="685"/>
      <point x="101" y="498"/>
      <point x="101" y="351" type="qcurve" smooth="yes"/>
      <point x="101" y="284"/>
      <point x="126" y="158"/>
      <point x="149" y="113" type="qcurve"/>
      <point x="202" y="211"/>
      <point x="320" y="455"/>
      <point x="406" y="645" type="qcurve"/>
      <point x="387" y="665"/>
      <point x="336" y="685"/>
    </contour>
    <contour>
      <point x="179" y="69" type="qcurve"/>
      <point x="197" y="48"/>
      <point x="242" y="27"/>
      <point x="268" y="27" type="qcurve" smooth="yes"/>
      <point x="362" y="27"/>
      <point x="473" y="224"/>
      <point x="473" y="377" type="qcurve" smooth="yes"/>
      <point x="473" y="450"/>
      <point x="456" y="560"/>
      <point x="438" y="597" type="qcurve"/>
      <point x="377" y="464"/>
      <point x="250" y="205"/>
    </contour>
    <contour>
      <point x="533" y="388" type="qcurve" smooth="yes"/>
      <point x="533" y="215"/>
      <point x="389" y="-20"/>
      <point x="266" y="-20" type="qcurve" smooth="yes"/>
      <point x="235" y="-20"/>
      <point x="179" y="1"/>
      <point x="154" y="22" type="qcurve"/>
      <point x="141" y="-2"/>
      <point x="116" y="-50"/>
      <point x="103" y="-74" type="qcurve"/>
      <point x="89" y="-70"/>
      <point x="68" y="-58"/>
      <point x="57" y="-49" type="qcurve"/>
      <point x="74" y="-20"/>
      <point x="105" y="33"/>
      <point x="119" y="58" type="qcurve"/>
      <point x="81" y="108"/>
      <point x="40" y="254"/>
      <point x="40" y="342" type="qcurve" smooth="yes"/>
      <point x="40" y="512"/>
      <point x="192" y="733"/>
      <point x="311" y="733" type="qcurve" smooth="yes"/>
      <point x="346" y="733"/>
      <point x="405" y="715"/>
      <point x="430" y="696" type="qcurve"/>
      <point x="437" y="713"/>
      <point x="455" y="753"/>
      <point x="474" y="794" type="qcurve"/>
      <point x="484" y="790"/>
      <point x="502" y="778"/>
      <point x="514" y="769" type="qcurve"/>
      <point x="494" y="723"/>
      <point x="474" y="678"/>
      <point x="466" y="660" type="qcurve"/>
      <point x="499" y="616"/>
      <point x="533" y="479"/>
    </contour>
  </outline>
</glyph>
<glyph name="ae" format="1">
  <advance width="698"/>
  <unicode hex="00E6"/>
  <outline>
    <contour>
      <point x="379" y="309" type="qcurve"/>
      <point x="410" y="296"/>
      <point x="482" y="284"/>
      <point x="529" y="284" type="qcurve" smooth="yes"/>
      <point x="541" y="284"/>
      <point x="568" y="287"/>
      <point x="574" y="289" type="qcurve"/>
      <point x="581" y="318"/>
      <point x="589" y="368"/>
      <point x="589" y="389" type="qcurve" smooth="yes"/>
      <point x="589" y="437"/>
      <point x="557" y="478"/>
      <point x="521" y="478" type="qcurve" smooth="yes"/>
      <point x="475" y="478"/>
      <point x="397" y="384"/>
    </contour>
    <contour>
      <point x="621" y="167" type="qcurve"/>
      <point x="633" y="165"/>
      <point x="658" y="151"/>
      <point x="667" y="141" type="qcurve"/>
      <point x="649" y="83"/>
      <point x="535" y="-10"/>
      <point x="478" y="-10" type="qcurve" smooth="yes"/>
      <point x="430" y="-10"/>
      <point x="358" y="42"/>
      <point x="337" y="92" type="qcurve"/>
      <point x="304" y="50"/>
      <point x="218" y="8"/>
      <point x="165" y="8" type="qcurve" smooth="yes"/>
      <point x="102" y="8"/>
      <point x="28" y="76"/>
      <point x="28" y="133" type="qcurve" smooth="yes"/>
      <point x="28" y="198"/>
      <point x="139" y="269"/>
      <point x="243" y="269" type="qcurve" smooth="yes"/>
      <point x="257" y="269"/>
      <point x="283" y="268"/>
      <point x="315" y="267" type="qcurve"/>
      <point x="316" y="288"/>
      <point x="315" y="339"/>
      <point x="315" y="341" type="qcurve" smooth="yes"/>
      <point x="315" y="419"/>
      <point x="273" y="488"/>
      <point x="224" y="488" type="qcurve" smooth="yes"/>
      <point x="175" y="488"/>
      <point x="108" y="404"/>
      <point x="106" y="340" type="qcurve"/>
      <point x="84" y="345"/>
      <point x="59" y="358"/>
      <point x="51" y="369" type="qcurve"/>
      <point x="62" y="437"/>
      <point x="167" y="533"/>
      <point x="233" y="533" type="qcurve" smooth="yes"/>
      <point x="285" y="533"/>
      <point x="353" y="468"/>
      <point x="366" y="408" type="qcurve"/>
      <point x="398" y="464"/>
      <point x="480" y="524"/>
      <point x="526" y="524" type="qcurve" smooth="yes"/>
      <point x="581" y="524"/>
      <point x="644" y="451"/>
      <point x="644" y="388" type="qcurve" smooth="yes"/>
      <point x="644" y="353"/>
      <point x="631" y="285"/>
      <point x="619" y="255" type="qcurve"/>
      <point x="600" y="249"/>
      <point x="548" y="243"/>
      <point x="512" y="243" type="qcurve" smooth="yes"/>
      <point x="477" y="243"/>
      <point x="405" y="256"/>
      <point x="371" y="268" type="qcurve"/>
      <point x="369" y="256"/>
      <point x="368" y="233"/>
      <point x="368" y="221" type="qcurve" smooth="yes"/>
      <point x="368" y="138"/>
      <point x="427" y="35"/>
      <point x="477" y="35" type="qcurve" smooth="yes"/>
      <point x="521" y="35"/>
      <point x="606" y="112"/>
    </contour>
    <contour>
      <point x="86" y="133" type="qcurve" smooth="yes"/>
      <point x="86" y="95"/>
      <point x="131" y="52"/>
      <point x="170" y="52" type="qcurve" smooth="yes"/>
      <point x="215" y="52"/>
      <point x="295" y="88"/>
      <point x="326" y="123" type="qcurve"/>
      <point x="320" y="145"/>
      <point x="313" y="197"/>
      <point x="313" y="225" type="qcurve" smooth="yes"/>
      <point x="313" y="227"/>
      <point x="313" y="230"/>
      <point x="313" y="232" type="qcurve"/>
      <point x="202" y="241"/>
      <point x="86" y="189"/>
    </contour>
  </outline>
</glyph>
<glyph name="eth" format="1">
  <advance width="437"/>
  <unicode hex="00F0"/>
  <outline>
    <contour>
      <point x="371" y="-36" type="qcurve"/>
      <point x="363" y="-39"/>
      <point x="340" y="-42"/>
      <point x="331" y="-42" type="qcurve"/>
      <point x="330" y="-17"/>
      <point x="327" y="50"/>
      <point x="325" y="92" type="qcurve"/>
      <point x="307" y="30"/>
      <point x="245" y="-30"/>
      <point x="198" y="-30" type="qcurve" smooth="yes"/>
      <point x="123" y="-30"/>
      <point x="34" y="117"/>
      <point x="34" y="236" type="qcurve" smooth="yes"/>
      <point x="34" y="365"/>
      <point x="147" y="518"/>
      <point x="243" y="518" type="qcurve" smooth="yes"/>
      <point x="260" y="518"/>
      <point x="299" y="513"/>
      <point x="315" y="508" type="qcurve"/>
      <point x="314" y="521"/>
      <point x="314" y="550"/>
      <point x="314" y="579" type="qcurve"/>
      <point x="278" y="578"/>
      <point x="205" y="581"/>
      <point x="166" y="585" type="qcurve"/>
      <point x="166" y="607"/>
      <point x="167" y="623"/>
      <point x="168" y="630" type="qcurve"/>
      <point x="212" y="625"/>
      <point x="281" y="621"/>
      <point x="313" y="622" type="qcurve"/>
      <point x="313" y="646"/>
      <point x="313" y="695"/>
      <point x="313" y="719" type="qcurve"/>
      <point x="320" y="723"/>
      <point x="338" y="727"/>
      <point x="346" y="727" type="qcurve" smooth="yes"/>
      <point x="354" y="727"/>
      <point x="369" y="725"/>
      <point x="376" y="723" type="qcurve"/>
      <point x="374" y="698"/>
      <point x="372" y="649"/>
      <point x="371" y="625" type="qcurve"/>
      <point x="395" y="627"/>
      <point x="449" y="634"/>
      <point x="483" y="640" type="qcurve"/>
      <point x="484" y="631"/>
      <point x="483" y="608"/>
      <point x="481" y="595" type="qcurve"/>
      <point x="453" y="590"/>
      <point x="398" y="584"/>
      <point x="370" y="582" type="qcurve"/>
      <point x="369" y="536"/>
      <point x="368" y="424"/>
      <point x="368" y="127" type="qcurve" smooth="yes"/>
      <point x="368" y="79"/>
      <point x="369" y="9"/>
    </contour>
    <contour>
      <point x="89" y="245" type="qcurve" smooth="yes"/>
      <point x="89" y="135"/>
      <point x="148" y="14"/>
      <point x="200" y="14" type="qcurve" smooth="yes"/>
      <point x="249" y="14"/>
      <point x="311" y="121"/>
      <point x="320" y="224" type="qcurve"/>
      <point x="319" y="245"/>
      <point x="318" y="296"/>
      <point x="317" y="348" type="qcurve" smooth="yes"/>
      <point x="317" y="397"/>
      <point x="316" y="445"/>
      <point x="315" y="466" type="qcurve"/>
      <point x="303" y="470"/>
      <point x="271" y="474"/>
      <point x="251" y="474" type="qcurve" smooth="yes"/>
      <point x="178" y="474"/>
      <point x="89" y="352"/>
    </contour>
  </outline>
</glyph>
<glyph name="divide" format="1">
  <advance width="341"/>
  <unicode hex="00F7"/>
  <outline>
    <contour>
      <point x="225" y="460" type="qcurve"/>
      <point x="224" y="434"/>
      <point x="221" y="406"/>
      <point x="219" y="392" type="qcurve"/>
      <point x="199" y="390"/>
      <point x="166" y="390"/>
      <point x="149" y="392" type="qcurve"/>
      <point x="149" y="397"/>
      <point x="148" y="409"/>
      <point x="148" y="419" type="qcurve" smooth="yes"/>
      <point x="147" y="434"/>
      <point x="146" y="449"/>
      <point x="146" y="457" type="qcurve"/>
      <point x="168" y="462"/>
      <point x="206" y="463"/>
    </contour>
    <contour>
      <point x="27" y="300" type="qcurve"/>
      <point x="27" y="311"/>
      <point x="29" y="330"/>
      <point x="32" y="342" type="qcurve"/>
      <point x="100" y="334"/>
      <point x="228" y="333"/>
      <point x="314" y="340" type="qcurve"/>
      <point x="314" y="329"/>
      <point x="312" y="309"/>
      <point x="310" y="300" type="qcurve"/>
      <point x="242" y="292"/>
      <point x="98" y="292"/>
    </contour>
    <contour>
      <point x="223" y="240" type="qcurve"/>
      <point x="222" y="214"/>
      <point x="219" y="186"/>
      <point x="217" y="172" type="qcurve"/>
      <point x="197" y="170"/>
      <point x="164" y="170"/>
      <point x="147" y="172" type="qcurve"/>
      <point x="147" y="177"/>
      <point x="146" y="189"/>
      <point x="146" y="199" type="qcurve" smooth="yes"/>
      <point x="145" y="214"/>
      <point x="144" y="229"/>
      <point x="144" y="237" type="qcurve"/>
      <point x="166" y="242"/>
      <point x="204" y="243"/>
    </contour>
  </outline>
</glyph>
<glyph name="oslash" format="1">
  <advance width="431"/>
  <unicode hex="00F8"/>
  <outline>
    <contour>
      <point x="217" y="488" type="qcurve" smooth="yes"/>
      <point x="164" y="488"/>
      <point x="86" y="350"/>
      <point x="86" y="251" type="qcurve" smooth="yes"/>
      <point x="86" y="214"/>
      <point x="98" y="144"/>
      <point x="110" y="117" type="qcurve"/>
      <point x="152" y="200"/>
      <point x="232" y="372"/>
      <point x="275" y="470" type="qcurve"/>
      <point x="263" y="479"/>
      <point x="234" y="488"/>
    </contour>
    <contour>
      <point x="143" y="64" type="qcurve"/>
      <point x="157" y="49"/>
      <point x="189" y="35"/>
      <point x="208" y="35" type="qcurve" smooth="yes"/>
      <point x="257" y="35"/>
      <point x="331" y="176"/>
      <point x="331" y="277" type="qcurve" smooth="yes"/>
      <point x="331" y="323"/>
      <point x="320" y="396"/>
      <point x="309" y="423" type="qcurve"/>
      <point x="273" y="337"/>
      <point x="191" y="160"/>
    </contour>
    <contour>
      <point x="390" y="317" type="qcurve" smooth="yes"/>
      <point x="390" y="171"/>
      <point x="285" y="-10"/>
      <point x="200" y="-10" type="qcurve" smooth="yes"/>
      <point x="178" y="-10"/>
      <point x="136" y="3"/>
      <point x="118" y="16" type="qcurve"/>
      <point x="111" y="1"/>
      <point x="93" y="-33"/>
      <point x="74" y="-68" type="qcurve"/>
      <point x="60" y="-64"/>
      <point x="39" y="-52"/>
      <point x="28" y="-43" type="qcurve"/>
      <point x="37" y="-25"/>
      <point x="59" y="16"/>
      <point x="80" y="57" type="qcurve"/>
      <point x="56" y="92"/>
      <point x="31" y="188"/>
      <point x="31" y="244" type="qcurve" smooth="yes"/>
      <point x="31" y="372"/>
      <point x="142" y="533"/>
      <point x="230" y="533" type="qcurve" smooth="yes"/>
      <point x="249" y="533"/>
      <point x="282" y="526"/>
      <point x="297" y="518" type="qcurve"/>
      <point x="303" y="532"/>
      <point x="317" y="565"/>
      <point x="332" y="600" type="qcurve"/>
      <point x="342" y="596"/>
      <point x="360" y="584"/>
      <point x="372" y="575" type="qcurve"/>
      <point x="366" y="559"/>
      <point x="351" y="523"/>
      <point x="336" y="487" type="qcurve"/>
      <point x="362" y="459"/>
      <point x="390" y="372"/>
    </contour>
  </outline>
</glyph>
<glyph name="thorn" format="1">
  <advance width="424"/>
  <unicode hex="00FE"/>
  <outline>
    <contour>
      <point x="111" y="79" type="qcurve"/>
      <point x="123" y="66"/>
      <point x="152" y="53"/>
      <point x="169" y="53" type="qcurve" smooth="yes"/>
      <point x="232" y="53"/>
      <point x="325" y="225"/>
      <point x="325" y="352" type="qcurve" smooth="yes"/>
      <point x="325" y="419"/>
      <point x="279" y="497"/>
      <point x="240" y="497" type="qcurve" smooth="yes"/>
      <point x="193" y="497"/>
      <point x="123" y="410"/>
      <point x="103" y="326" type="qcurve"/>
      <point x="103" y="268"/>
      <point x="107" y="143"/>
    </contour>
    <contour>
      <point x="115" y="20" type="qcurve"/>
      <point x="120" y="-47"/>
      <point x="134" y="-163"/>
      <point x="142" y="-210" type="qcurve"/>
      <point x="129" y="-214"/>
      <point x="104" y="-218"/>
      <point x="92" y="-218" type="qcurve"/>
      <point x="57" y="44"/>
      <point x="46" y="574"/>
      <point x="77" y="737" type="qcurve"/>
      <point x="87" y="743"/>
      <point x="107" y="748"/>
      <point x="120" y="748" type="qcurve" smooth="yes"/>
      <point x="127" y="748"/>
      <point x="137" y="747"/>
      <point x="143" y="745" type="qcurve"/>
      <point x="127" y="688"/>
      <point x="108" y="528"/>
      <point x="105" y="424" type="qcurve"/>
      <point x="131" y="486"/>
      <point x="211" y="553"/>
      <point x="260" y="553" type="qcurve" smooth="yes"/>
      <point x="316" y="553"/>
      <point x="384" y="445"/>
      <point x="384" y="355" type="qcurve" smooth="yes"/>
      <point x="384" y="209"/>
      <point x="258" y="10"/>
      <point x="169" y="10" type="qcurve" smooth="yes"/>
      <point x="154" y="10"/>
      <point x="128" y="15"/>
    </contour>
  </outline>
</glyph>
<glyph name="Aogonek" format="1">
  <advance width="605"/>
  <unicode hex="0104"/>
  <outline>
    <contour>
      <point x="633" y="-232" type="qcurve"/>
      <point x="614" y="-262"/>
      <point x="568" y="-289"/>
      <point x="537" y="-289" type="qcurve" smooth="yes"/>
      <point x="502" y="-289"/>
      <point x="460" y="-248"/>
      <point x="460" y="-215" type="qcurve" smooth="yes"/>
      <point x="460" y="-184"/>
      <point x="492" y="-126"/>
      <point x="525" y="-99" type="qcurve"/>
      <point x="512" y="-6"/>
      <point x="480" y="159"/>
      <point x="462" y="233" type="qcurve"/>
      <point x="390" y="234"/>
      <point x="249" y="225"/>
      <point x="187" y="215" type="qcurve"/>
      <point x="166" y="162"/>
      <point x="112" y="47"/>
      <point x="77" y="-20" type="qcurve"/>
      <point x="63" y="-17"/>
      <point x="41" y="-6"/>
      <point x="25" y="8" type="qcurve"/>
      <point x="117" y="169"/>
      <point x="229" y="472"/>
      <point x="280" y="705" type="qcurve"/>
      <point x="313" y="702"/>
      <point x="334" y="700"/>
      <point x="343" y="698" type="qcurve"/>
      <point x="445" y="495"/>
      <point x="547" y="156"/>
      <point x="582" y="-85" type="qcurve"/>
      <point x="547" y="-118"/>
      <point x="515" y="-173"/>
      <point x="515" y="-202" type="qcurve" smooth="yes"/>
      <point x="515" y="-221"/>
      <point x="534" y="-241"/>
      <point x="551" y="-241" type="qcurve" smooth="yes"/>
      <point x="569" y="-241"/>
      <point x="598" y="-219"/>
      <point x="610" y="-196" type="qcurve"/>
      <point x="618" y="-202"/>
      <point x="628" y="-219"/>
    </contour>
    <contour>
      <point x="314" y="636" type="qcurve"/>
      <point x="288" y="521"/>
      <point x="237" y="344"/>
      <point x="205" y="261" type="qcurve"/>
      <point x="260" y="269"/>
      <point x="386" y="279"/>
      <point x="451" y="280" type="qcurve"/>
      <point x="424" y="376"/>
      <point x="360" y="545"/>
    </contour>
  </outline>
</glyph>
<glyph name="aogonek" format="1">
  <advance width="432"/>
  <unicode hex="0105"/>
  <outline>
    <contour>
      <point x="86" y="138" type="qcurve" smooth="yes"/>
      <point x="86" y="99"/>
      <point x="138" y="52"/>
      <point x="180" y="52" type="qcurve" smooth="yes"/>
      <point x="211" y="52"/>
      <point x="268" y="71"/>
      <point x="291" y="89" type="qcurve"/>
      <point x="301" y="136"/>
      <point x="310" y="201"/>
      <point x="312" y="232" type="qcurve"/>
      <point x="200" y="239"/>
      <point x="86" y="192"/>
    </contour>
    <contour>
      <point x="328" y="-137" type="qcurve"/>
      <point x="336" y="-143"/>
      <point x="346" y="-160"/>
      <point x="351" y="-173" type="qcurve"/>
      <point x="332" y="-203"/>
      <point x="286" y="-230"/>
      <point x="255" y="-230" type="qcurve" smooth="yes"/>
      <point x="220" y="-230"/>
      <point x="178" y="-189"/>
      <point x="178" y="-156" type="qcurve" smooth="yes"/>
      <point x="178" y="-121"/>
      <point x="221" y="-55"/>
      <point x="264" y="-24" type="qcurve"/>
      <point x="267" y="-11"/>
      <point x="274" y="17"/>
      <point x="280" y="43" type="qcurve"/>
      <point x="259" y="26"/>
      <point x="205" y="8"/>
      <point x="175" y="8" type="qcurve" smooth="yes"/>
      <point x="109" y="8"/>
      <point x="28" y="80"/>
      <point x="28" y="138" type="qcurve" smooth="yes"/>
      <point x="28" y="202"/>
      <point x="138" y="269"/>
      <point x="243" y="269" type="qcurve" smooth="yes"/>
      <point x="257" y="269"/>
      <point x="286" y="268"/>
      <point x="314" y="267" type="qcurve"/>
      <point x="315" y="279"/>
      <point x="315" y="308"/>
      <point x="315" y="341" type="qcurve" smooth="yes"/>
      <point x="315" y="419"/>
      <point x="273" y="488"/>
      <point x="224" y="488" type="qcurve" smooth="yes"/>
      <point x="175" y="488"/>
      <point x="108" y="404"/>
      <point x="106" y="340" type="qcurve"/>
      <point x="84" y="345"/>
      <point x="59" y="358"/>
      <point x="51" y="369" type="qcurve"/>
      <point x="62" y="437"/>
      <point x="167" y="533"/>
      <point x="233" y="533" type="qcurve" smooth="yes"/>
      <point x="303" y="533"/>
      <point x="374" y="435"/>
      <point x="374" y="338" type="qcurve" smooth="yes"/>
      <point x="374" y="271"/>
      <point x="338" y="54"/>
      <point x="313" y="-34" type="qcurve"/>
      <point x="309" y="-34"/>
      <point x="300" y="-33"/>
      <point x="294" y="-32" type="qcurve"/>
      <point x="262" y="-63"/>
      <point x="233" y="-116"/>
      <point x="233" y="-143" type="qcurve" smooth="yes"/>
      <point x="233" y="-162"/>
      <point x="252" y="-182"/>
      <point x="269" y="-182" type="qcurve" smooth="yes"/>
      <point x="287" y="-182"/>
      <point x="316" y="-160"/>
    </contour>
  </outline>
</glyph>
<glyph name="Eogonek" format="1">
  <advance width="505"/>
  <unicode hex="0118"/>
  <outline>
    <contour>
      <point x="514" y="-161" type="qcurve"/>
      <point x="495" y="-191"/>
      <point x="449" y="-218"/>
      <point x="418" y="-218" type="qcurve" smooth="yes"/>
      <point x="383" y="-218"/>
      <point x="341" y="-177"/>
      <point x="341" y="-144" type="qcurve" smooth="yes"/>
      <point x="341" y="-111"/>
      <point x="378" y="-50"/>
      <point x="416" y="-20" type="qcurve"/>
      <point x="347" y="-28"/>
      <point x="218" y="-38"/>
      <point x="126" y="-41" type="qcurve"/>
      <point x="97" y="156"/>
      <point x="60" y="549"/>
      <point x="58" y="693" type="qcurve"/>
      <point x="192" y="716"/>
      <point x="350" y="733"/>
      <point x="440" y="735" type="qcurve"/>
      <point x="441" y="722"/>
      <point x="439" y="699"/>
      <point x="437" y="688" type="qcurve"/>
      <point x="355" y="687"/>
      <point x="200" y="672"/>
      <point x="118" y="657" type="qcurve"/>
      <point x="117" y="584"/>
      <point x="122" y="449"/>
      <point x="128" y="376" type="qcurve"/>
      <point x="262" y="397"/>
      <point x="347" y="408"/>
      <point x="390" y="412" type="qcurve"/>
      <point x="393" y="400"/>
      <point x="395" y="378"/>
      <point x="394" y="367" type="qcurve"/>
      <point x="318" y="361"/>
      <point x="208" y="347"/>
      <point x="132" y="333" type="qcurve"/>
      <point x="140" y="249"/>
      <point x="161" y="82"/>
      <point x="173" y="4" type="qcurve"/>
      <point x="268" y="7"/>
      <point x="396" y="22"/>
      <point x="461" y="36" type="qcurve"/>
      <point x="464" y="25"/>
      <point x="465" y="-4"/>
      <point x="463" y="-14" type="qcurve"/>
      <point x="428" y="-47"/>
      <point x="396" y="-102"/>
      <point x="396" y="-131" type="qcurve" smooth="yes"/>
      <point x="396" y="-150"/>
      <point x="415" y="-170"/>
      <point x="432" y="-170" type="qcurve" smooth="yes"/>
      <point x="450" y="-170"/>
      <point x="479" y="-148"/>
      <point x="491" y="-125" type="qcurve"/>
      <point x="499" y="-131"/>
      <point x="509" y="-148"/>
    </contour>
  </outline>
</glyph>
<glyph name="Iogonek" format="1">
  <advance width="219"/>
  <unicode hex="012E"/>
  <outline>
    <contour>
      <point x="182" y="-169" type="qcurve"/>
      <point x="163" y="-199"/>
      <point x="117" y="-226"/>
      <point x="86" y="-226" type="qcurve" smooth="yes"/>
      <point x="51" y="-226"/>
      <point x="9" y="-185"/>
      <point x="9" y="-152" type="qcurve" smooth="yes"/>
      <point x="9" y="-119"/>
      <point x="46" y="-58"/>
      <point x="84" y="-28" type="qcurve"/>
      <point x="83" y="-28" type="line"/>
      <point x="86" y="163"/>
      <point x="79" y="514"/>
      <point x="69" y="670" type="qcurve"/>
      <point x="79" y="675"/>
      <point x="99" y="679"/>
      <point x="110" y="679" type="qcurve" smooth="yes"/>
      <point x="114" y="679"/>
      <point x="123" y="678"/>
      <point x="130" y="677" type="qcurve"/>
      <point x="133" y="634"/>
      <point x="136" y="545"/>
      <point x="136" y="481" type="qcurve" smooth="yes"/>
      <point x="136" y="205"/>
      <point x="133" y="58"/>
      <point x="131" y="-22" type="qcurve"/>
      <point x="96" y="-55"/>
      <point x="64" y="-110"/>
      <point x="64" y="-139" type="qcurve" smooth="yes"/>
      <point x="64" y="-158"/>
      <point x="83" y="-178"/>
      <point x="100" y="-178" type="qcurve" smooth="yes"/>
      <point x="118" y="-178"/>
      <point x="147" y="-156"/>
      <point x="159" y="-133" type="qcurve"/>
      <point x="167" y="-139"/>
      <point x="177" y="-156"/>
    </contour>
  </outline>
</glyph>
<glyph name="iogonek" format="1">
  <advance width="189"/>
  <unicode hex="012F"/>
  <outline>
    <contour>
      <point x="176" y="729" type="qcurve"/>
      <point x="164" y="704"/>
      <point x="145" y="647"/>
      <point x="139" y="621" type="qcurve"/>
      <point x="132" y="620"/>
      <point x="107" y="620"/>
      <point x="95" y="621" type="qcurve"/>
      <point x="94" y="625"/>
      <point x="94" y="634"/>
      <point x="94" y="643" type="qcurve" smooth="yes"/>
      <point x="94" y="666"/>
      <point x="104" y="718"/>
      <point x="112" y="735" type="qcurve"/>
      <point x="121" y="738"/>
      <point x="133" y="740"/>
      <point x="142" y="739" type="qcurve" smooth="yes"/>
      <point x="153" y="738"/>
      <point x="168" y="734"/>
    </contour>
    <contour>
      <point x="157" y="-151" type="qcurve"/>
      <point x="138" y="-181"/>
      <point x="92" y="-208"/>
      <point x="61" y="-208" type="qcurve" smooth="yes"/>
      <point x="26" y="-208"/>
      <point x="-16" y="-167"/>
      <point x="-16" y="-134" type="qcurve" smooth="yes"/>
      <point x="-16" y="-100"/>
      <point x="25" y="-36"/>
      <point x="66" y="-5" type="qcurve"/>
      <point x="49" y="119"/>
      <point x="55" y="391"/>
      <point x="75" y="498" type="qcurve"/>
      <point x="84" y="503"/>
      <point x="102" y="508"/>
      <point x="111" y="508" type="qcurve" smooth="yes"/>
      <point x="115" y="508"/>
      <point x="125" y="507"/>
      <point x="130" y="505" type="qcurve"/>
      <point x="110" y="393"/>
      <point x="98" y="111"/>
      <point x="108" y="-4" type="qcurve"/>
      <point x="108" y="-4"/>
      <point x="106" y="-5"/>
      <point x="105" y="-5" type="qcurve"/>
      <point x="70" y="-39"/>
      <point x="39" y="-93"/>
      <point x="39" y="-121" type="qcurve" smooth="yes"/>
      <point x="39" y="-140"/>
      <point x="58" y="-160"/>
      <point x="75" y="-160" type="qcurve" smooth="yes"/>
      <point x="93" y="-160"/>
      <point x="122" y="-138"/>
      <point x="134" y="-115" type="qcurve"/>
      <point x="142" y="-121"/>
      <point x="152" y="-138"/>
    </contour>
  </outline>
</glyph>
<glyph name="Lslash" format="1">
  <advance width="455"/>
  <unicode hex="0141"/>
  <outline>
    <contour>
      <point x="450" y="-72" type="qcurve"/>
      <point x="358" y="-73"/>
      <point x="205" y="-83"/>
      <point x="109" y="-97" type="qcurve"/>
      <point x="98" y="-11"/>
      <point x="83" y="130"/>
      <point x="78" y="193" type="qcurve"/>
      <point x="59" y="181"/>
      <point x="12" y="154"/>
      <point x="-28" y="131" type="qcurve"/>
      <point x="-36" y="139"/>
      <point x="-49" y="161"/>
      <point x="-55" y="176" type="qcurve"/>
      <point x="-27" y="190"/>
      <point x="32" y="225"/>
      <point x="74" y="250" type="qcurve"/>
      <point x="67" y="357"/>
      <point x="62" y="565"/>
      <point x="65" y="666" type="qcurve"/>
      <point x="76" y="671"/>
      <point x="94" y="674"/>
      <point x="107" y="674" type="qcurve" smooth="yes"/>
      <point x="112" y="674"/>
      <point x="125" y="673"/>
      <point x="129" y="672" type="qcurve"/>
      <point x="124" y="616"/>
      <point x="121" y="493"/>
      <point x="122" y="392" type="qcurve" smooth="yes"/>
      <point x="122" y="386"/>
      <point x="123" y="371"/>
      <point x="123" y="356" type="qcurve" smooth="yes"/>
      <point x="123" y="326"/>
      <point x="124" y="296"/>
      <point x="125" y="283" type="qcurve"/>
      <point x="163" y="308"/>
      <point x="248" y="369"/>
      <point x="306" y="414" type="qcurve"/>
      <point x="314" y="406"/>
      <point x="327" y="388"/>
      <point x="334" y="373" type="qcurve"/>
      <point x="271" y="324"/>
      <point x="173" y="254"/>
      <point x="128" y="225" type="qcurve"/>
      <point x="132" y="157"/>
      <point x="145" y="26"/>
      <point x="155" y="-43" type="qcurve"/>
      <point x="227" y="-33"/>
      <point x="378" y="-22"/>
      <point x="446" y="-22" type="qcurve"/>
      <point x="448" y="-33"/>
      <point x="450" y="-63"/>
    </contour>
  </outline>
</glyph>
<glyph name="OE" format="1">
  <advance width="882"/>
  <unicode hex="0152"/>
  <outline>
    <contour>
      <point x="840" y="-14" type="qcurve"/>
      <point x="754" y="-26"/>
      <point x="603" y="-38"/>
      <point x="503" y="-41" type="qcurve"/>
      <point x="495" y="11"/>
      <point x="482" y="109"/>
      <point x="477" y="154" type="qcurve"/>
      <point x="451" y="58"/>
      <point x="354" y="-40"/>
      <point x="284" y="-40" type="qcurve" smooth="yes"/>
      <point x="180" y="-40"/>
      <point x="48" y="163"/>
      <point x="48" y="322" type="qcurve" smooth="yes"/>
      <point x="48" y="500"/>
      <point x="180" y="713"/>
      <point x="294" y="713" type="qcurve" smooth="yes"/>
      <point x="339" y="713"/>
      <point x="410" y="675"/>
      <point x="436" y="638" type="qcurve"/>
      <point x="436" y="643"/>
      <point x="436" y="655"/>
      <point x="435" y="666" type="qcurve" smooth="yes"/>
      <point x="435" y="677"/>
      <point x="435" y="688"/>
      <point x="435" y="693" type="qcurve"/>
      <point x="569" y="716"/>
      <point x="727" y="733"/>
      <point x="817" y="735" type="qcurve"/>
      <point x="818" y="722"/>
      <point x="816" y="699"/>
      <point x="814" y="688" type="qcurve"/>
      <point x="732" y="687"/>
      <point x="577" y="672"/>
      <point x="495" y="657" type="qcurve"/>
      <point x="494" y="584"/>
      <point x="499" y="449"/>
      <point x="505" y="376" type="qcurve"/>
      <point x="639" y="397"/>
      <point x="724" y="408"/>
      <point x="767" y="412" type="qcurve"/>
      <point x="770" y="400"/>
      <point x="772" y="378"/>
      <point x="771" y="367" type="qcurve"/>
      <point x="695" y="361"/>
      <point x="585" y="347"/>
      <point x="509" y="333" type="qcurve"/>
      <point x="517" y="249"/>
      <point x="538" y="82"/>
      <point x="550" y="4" type="qcurve"/>
      <point x="645" y="7"/>
      <point x="773" y="22"/>
      <point x="838" y="36" type="qcurve"/>
      <point x="841" y="25"/>
      <point x="842" y="-4"/>
    </contour>
    <contour>
      <point x="286" y="7" type="qcurve" smooth="yes"/>
      <point x="364" y="7"/>
      <point x="448" y="191"/>
      <point x="446" y="357" type="qcurve" smooth="yes"/>
      <point x="444" y="508"/>
      <point x="363" y="665"/>
      <point x="287" y="665" type="qcurve" smooth="yes"/>
      <point x="203" y="665"/>
      <point x="109" y="487"/>
      <point x="109" y="331" type="qcurve" smooth="yes"/>
      <point x="109" y="192"/>
      <point x="205" y="7"/>
    </contour>
  </outline>
</glyph>
<glyph name="oe" format="1">
  <advance width="754"/>
  <unicode hex="0153"/>
  <outline>
    <contour>
      <point x="208" y="25" type="qcurve" smooth="yes"/>
      <point x="257" y="25"/>
      <point x="331" y="166"/>
      <point x="331" y="267" type="qcurve" smooth="yes"/>
      <point x="331" y="374"/>
      <point x="275" y="478"/>
      <point x="217" y="478" type="qcurve" smooth="yes"/>
      <point x="164" y="478"/>
      <point x="86" y="340"/>
      <point x="86" y="241" type="qcurve" smooth="yes"/>
      <point x="86" y="149"/>
      <point x="152" y="25"/>
    </contour>
    <contour>
      <point x="398" y="299" type="qcurve"/>
      <point x="429" y="286"/>
      <point x="501" y="274"/>
      <point x="548" y="274" type="qcurve" smooth="yes"/>
      <point x="560" y="274"/>
      <point x="587" y="277"/>
      <point x="593" y="279" type="qcurve"/>
      <point x="600" y="308"/>
      <point x="608" y="358"/>
      <point x="608" y="379" type="qcurve" smooth="yes"/>
      <point x="608" y="427"/>
      <point x="576" y="468"/>
      <point x="540" y="468" type="qcurve" smooth="yes"/>
      <point x="494" y="468"/>
      <point x="416" y="374"/>
    </contour>
    <contour>
      <point x="640" y="157" type="qcurve"/>
      <point x="652" y="155"/>
      <point x="677" y="141"/>
      <point x="686" y="131" type="qcurve"/>
      <point x="668" y="73"/>
      <point x="554" y="-20"/>
      <point x="497" y="-20" type="qcurve" smooth="yes"/>
      <point x="445" y="-20"/>
      <point x="370" y="40"/>
      <point x="351" y="96" type="qcurve"/>
      <point x="325" y="40"/>
      <point x="248" y="-20"/>
      <point x="200" y="-20" type="qcurve" smooth="yes"/>
      <point x="123" y="-20"/>
      <point x="31" y="122"/>
      <point x="31" y="234" type="qcurve" smooth="yes"/>
      <point x="31" y="362"/>
      <point x="142" y="523"/>
      <point x="230" y="523" type="qcurve" smooth="yes"/>
      <point x="285" y="523"/>
      <point x="363" y="457"/>
      <point x="379" y="396" type="qcurve"/>
      <point x="410" y="453"/>
      <point x="496" y="514"/>
      <point x="545" y="514" type="qcurve" smooth="yes"/>
      <point x="600" y="514"/>
      <point x="663" y="441"/>
      <point x="663" y="378" type="qcurve" smooth="yes"/>
      <point x="663" y="343"/>
      <point x="650" y="275"/>
      <point x="638" y="245" type="qcurve"/>
      <point x="619" y="239"/>
      <point x="567" y="233"/>
      <point x="531" y="233" type="qcurve" smooth="yes"/>
      <point x="496" y="233"/>
      <point x="424" y="246"/>
      <point x="390" y="258" type="qcurve"/>
      <point x="389" y="246"/>
      <point x="387" y="222"/>
      <point x="387" y="211" type="qcurve" smooth="yes"/>
      <point x="387" y="128"/>
      <point x="446" y="25"/>
      <point x="496" y="25" type="qcurve" smooth="yes"/>
      <point x="540" y="25"/>
      <point x="625" y="102"/>
    </contour>
  </outline>
</glyph>
<glyph name="Uogonek" format="1">
  <advance width="538"/>
  <unicode hex="0172"/>
  <outline>
    <contour>
      <point x="370" y="-211" type="qcurve"/>
      <point x="353" y="-237"/>
      <point x="306" y="-264"/>
      <point x="276" y="-264" type="qcurve" smooth="yes"/>
      <point x="240" y="-264"/>
      <point x="197" y="-222"/>
      <point x="197" y="-187" type="qcurve" smooth="yes"/>
      <point x="197" y="-157"/>
      <point x="222" y="-106"/>
      <point x="251" y="-80" type="qcurve"/>
      <point x="247" y="-80"/>
      <point x="239" y="-80"/>
      <point x="235" y="-80" type="qcurve" smooth="yes"/>
      <point x="145" y="-80"/>
      <point x="58" y="95"/>
      <point x="58" y="274" type="qcurve" smooth="yes"/>
      <point x="58" y="365"/>
      <point x="87" y="564"/>
      <point x="108" y="630" type="qcurve"/>
      <point x="114" y="632"/>
      <point x="135" y="634"/>
      <point x="144" y="634" type="qcurve" smooth="yes"/>
      <point x="149" y="634"/>
      <point x="159" y="633"/>
      <point x="166" y="632" type="qcurve"/>
      <point x="143" y="540"/>
      <point x="119" y="369"/>
      <point x="119" y="293" type="qcurve" smooth="yes"/>
      <point x="119" y="120"/>
      <point x="177" y="-31"/>
      <point x="246" y="-31" type="qcurve" smooth="yes"/>
      <point x="326" y="-31"/>
      <point x="414" y="151"/>
      <point x="414" y="316" type="qcurve" smooth="yes"/>
      <point x="414" y="420"/>
      <point x="392" y="591"/>
      <point x="365" y="694" type="qcurve"/>
      <point x="379" y="698"/>
      <point x="407" y="703"/>
      <point x="427" y="705" type="qcurve"/>
      <point x="451" y="615"/>
      <point x="474" y="445"/>
      <point x="474" y="363" type="qcurve" smooth="yes"/>
      <point x="474" y="185"/>
      <point x="405" y="-18"/>
      <point x="327" y="-60" type="qcurve" smooth="yes"/>
      <point x="292" y="-79"/>
      <point x="252" y="-138"/>
      <point x="252" y="-170" type="qcurve" smooth="yes"/>
      <point x="252" y="-193"/>
      <point x="272" y="-220"/>
      <point x="288" y="-220" type="qcurve" smooth="yes"/>
      <point x="306" y="-220"/>
      <point x="335" y="-198"/>
      <point x="347" y="-175" type="qcurve"/>
      <point x="355" y="-181"/>
      <point x="365" y="-198"/>
    </contour>
  </outline>
</glyph>
<glyph name="uogonek" format="1">
  <advance width="386"/>
  <unicode hex="0173"/>
  <outline>
    <contour>
      <point x="294" y="-137" type="qcurve"/>
      <point x="277" y="-163"/>
      <point x="230" y="-190"/>
      <point x="200" y="-190" type="qcurve" smooth="yes"/>
      <point x="163" y="-190"/>
      <point x="121" y="-152"/>
      <point x="121" y="-118" type="qcurve" smooth="yes"/>
      <point x="121" y="-90"/>
      <point x="149" y="-38"/>
      <point x="179" y="-10" type="qcurve"/>
      <point x="177" y="-10" type="line" smooth="yes"/>
      <point x="110" y="-10"/>
      <point x="41" y="133"/>
      <point x="41" y="271" type="qcurve" smooth="yes"/>
      <point x="41" y="341"/>
      <point x="63" y="478"/>
      <point x="80" y="510" type="qcurve"/>
      <point x="86" y="512"/>
      <point x="99" y="515"/>
      <point x="106" y="515" type="qcurve" smooth="yes"/>
      <point x="111" y="515"/>
      <point x="122" y="512"/>
      <point x="127" y="510" type="qcurve"/>
      <point x="111" y="462"/>
      <point x="94" y="337"/>
      <point x="94" y="261" type="qcurve" smooth="yes"/>
      <point x="94" y="163"/>
      <point x="143" y="35"/>
      <point x="185" y="35" type="qcurve" smooth="yes"/>
      <point x="236" y="35"/>
      <point x="290" y="183"/>
      <point x="290" y="320" type="qcurve" smooth="yes"/>
      <point x="290" y="360"/>
      <point x="282" y="444"/>
      <point x="278" y="461" type="qcurve"/>
      <point x="289" y="466"/>
      <point x="322" y="472"/>
      <point x="335" y="472" type="qcurve"/>
      <point x="340" y="450"/>
      <point x="345" y="387"/>
      <point x="345" y="355" type="qcurve" smooth="yes"/>
      <point x="345" y="222"/>
      <point x="297" y="48"/>
      <point x="251" y="14" type="qcurve" smooth="yes"/>
      <point x="216" y="-12"/>
      <point x="176" y="-76"/>
      <point x="176" y="-106" type="qcurve" smooth="yes"/>
      <point x="176" y="-123"/>
      <point x="197" y="-146"/>
      <point x="212" y="-146" type="qcurve" smooth="yes"/>
      <point x="230" y="-146"/>
      <point x="259" y="-124"/>
      <point x="271" y="-101" type="qcurve"/>
      <point x="279" y="-107"/>
      <point x="289" y="-124"/>
    </contour>
  </outline>
</glyph>
<glyph name="florin" format="1">
  <advance width="333"/>
  <unicode hex="0192"/>
  <outline>
    <contour>
      <point x="213" y="63" type="qcurve" smooth="yes"/>
      <point x="213" y="-47"/>
      <point x="152" y="-155"/>
      <point x="89" y="-155" type="qcurve" smooth="yes"/>
      <point x="46" y="-155"/>
      <point x="-5" y="-87"/>
      <point x="-5" y="-32" type="qcurve" smooth="yes"/>
      <point x="-5" y="-16"/>
      <point x="3" y="20"/>
      <point x="8" y="30" type="qcurve"/>
      <point x="21" y="30"/>
      <point x="45" y="26"/>
      <point x="56" y="21" type="qcurve"/>
      <point x="51" y="9"/>
      <point x="46" y="-21"/>
      <point x="46" y="-39" type="qcurve" smooth="yes"/>
      <point x="46" y="-71"/>
      <point x="72" y="-110"/>
      <point x="94" y="-110" type="qcurve" smooth="yes"/>
      <point x="128" y="-110"/>
      <point x="161" y="-34"/>
      <point x="161" y="47" type="qcurve" smooth="yes"/>
      <point x="161" y="132"/>
      <point x="109" y="376"/>
      <point x="107" y="385" type="qcurve"/>
      <point x="81" y="388"/>
      <point x="34" y="397"/>
      <point x="13" y="403" type="qcurve"/>
      <point x="13" y="411"/>
      <point x="16" y="432"/>
      <point x="19" y="441" type="qcurve"/>
      <point x="35" y="438"/>
      <point x="70" y="433"/>
      <point x="100" y="430" type="qcurve"/>
      <point x="97" y="451"/>
      <point x="95" y="488"/>
      <point x="95" y="505" type="qcurve" smooth="yes"/>
      <point x="95" y="615"/>
      <point x="165" y="727"/>
      <point x="234" y="727" type="qcurve" smooth="yes"/>
      <point x="281" y="727"/>
      <point x="338" y="659"/>
      <point x="338" y="604" type="qcurve" smooth="yes"/>
      <point x="338" y="588"/>
      <point x="330" y="552"/>
      <point x="325" y="542" type="qcurve"/>
      <point x="312" y="542"/>
      <point x="288" y="547"/>
      <point x="277" y="551" type="qcurve"/>
      <point x="282" y="563"/>
      <point x="287" y="593"/>
      <point x="287" y="611" type="qcurve" smooth="yes"/>
      <point x="287" y="643"/>
      <point x="255" y="682"/>
      <point x="229" y="682" type="qcurve" smooth="yes"/>
      <point x="191" y="682"/>
      <point x="153" y="602"/>
      <point x="153" y="523" type="qcurve" smooth="yes"/>
      <point x="153" y="499"/>
      <point x="155" y="452"/>
      <point x="158" y="426" type="qcurve"/>
      <point x="169" y="425"/>
      <point x="197" y="425"/>
      <point x="227" y="425" type="qcurve" smooth="yes"/>
      <point x="244" y="425"/>
      <point x="278" y="428"/>
      <point x="303" y="432" type="qcurve"/>
      <point x="303" y="423"/>
      <point x="300" y="398"/>
      <point x="298" y="384" type="qcurve"/>
      <point x="285" y="382"/>
      <point x="246" y="379"/>
      <point x="223" y="379" type="qcurve" smooth="yes"/>
      <point x="212" y="379"/>
      <point x="188" y="380"/>
      <point x="163" y="381" type="qcurve"/>
      <point x="166" y="360"/>
      <point x="175" y="315"/>
      <point x="185" y="272" type="qcurve" smooth="yes"/>
      <point x="202" y="193"/>
      <point x="213" y="107"/>
    </contour>
  </outline>
</glyph>
<glyph name="circumflex" format="1">
  <advance width="260"/>
  <unicode hex="02C6"/>
  <outline>
    <contour>
      <point x="255" y="607" type="qcurve"/>
      <point x="246" y="598"/>
      <point x="231" y="589"/>
      <point x="221" y="584" type="qcurve"/>
      <point x="188" y="607"/>
      <point x="147" y="646"/>
      <point x="130" y="670" type="qcurve"/>
      <point x="114" y="647"/>
      <point x="72" y="606"/>
      <point x="39" y="583" type="qcurve"/>
      <point x="28" y="589"/>
      <point x="12" y="600"/>
      <point x="5" y="606" type="qcurve"/>
      <point x="47" y="644"/>
      <point x="88" y="698"/>
      <point x="105" y="736" type="qcurve"/>
      <point x="110" y="737"/>
      <point x="125" y="739"/>
      <point x="131" y="739" type="qcurve" smooth="yes"/>
      <point x="135" y="739"/>
      <point x="149" y="738"/>
      <point x="154" y="737" type="qcurve"/>
      <point x="169" y="702"/>
      <point x="210" y="648"/>
    </contour>
    <contour>
      <point x="131.0" y="560.0" type="move" name="_top"/>
    </contour>
  </outline>
</glyph>
<glyph name="caron" format="1">
  <advance width="260"/>
  <unicode hex="02C7"/>
  <outline>
    <component base="circumflex" xScale="-1" yScale="-1" xOffset="260" yOffset="1317"/>
    <contour>
      <point x="138" y="560" type="move" name="_top"/>
    </contour>
  </outline>
</glyph>
<glyph name="uni02C9" format="1">
  <advance width="260.090169944"/>
  <unicode hex="02C9"/>
  <outline>
    <contour>
      <point x="36" y="649" type="qcurve"/>
      <point x="35" y="660"/>
      <point x="37" y="687"/>
      <point x="39" y="698" type="qcurve"/>
      <point x="82" y="689"/>
      <point x="178" y="686"/>
      <point x="223" y="692" type="qcurve"/>
      <point x="224" y="680"/>
      <point x="224" y="657"/>
      <point x="222" y="641" type="qcurve"/>
      <point x="162" y="635"/>
      <point x="68" y="639"/>
    </contour>
  </outline>
</glyph>
<glyph name="ring" format="1">
  <advance width="260"/>
  <unicode hex="02DA"/>
  <outline>
    <contour>
      <point x="35" y="666" type="qcurve" smooth="yes"/>
      <point x="35" y="711"/>
      <point x="91" y="765"/>
      <point x="138" y="765" type="qcurve" smooth="yes"/>
      <point x="178" y="765"/>
      <point x="224" y="722"/>
      <point x="224" y="685" type="qcurve" smooth="yes"/>
      <point x="224" y="635"/>
      <point x="170" y="578"/>
      <point x="124" y="578" type="qcurve" smooth="yes"/>
      <point x="85" y="578"/>
      <point x="35" y="628"/>
    </contour>
    <contour>
      <point x="173" y="679" type="qcurve" smooth="yes"/>
      <point x="173" y="705"/>
      <point x="151" y="733"/>
      <point x="133" y="733" type="qcurve" smooth="yes"/>
      <point x="111" y="733"/>
      <point x="84" y="696"/>
      <point x="84" y="665" type="qcurve" smooth="yes"/>
      <point x="84" y="642"/>
      <point x="109" y="613"/>
      <point x="127" y="613" type="qcurve" smooth="yes"/>
      <point x="148" y="613"/>
      <point x="173" y="649"/>
    </contour>
    <contour>
      <point x="130.0" y="560.0" type="move" name="_top"/>
    </contour>
  </outline>
</glyph>
<glyph name="ogonek" format="1">
  <advance width="261"/>
  <unicode hex="02DB"/>
  <outline>
    <contour>
      <point x="127" y="8" type="qcurve"/>
      <point x="155" y="0" type="line"/>
      <point x="120" y="-33"/>
      <point x="88" y="-88"/>
      <point x="88" y="-117" type="qcurve" smooth="yes"/>
      <point x="88" y="-136"/>
      <point x="107" y="-156"/>
      <point x="124" y="-156" type="qcurve" smooth="yes"/>
      <point x="142" y="-156"/>
      <point x="171" y="-134"/>
      <point x="183" y="-111" type="qcurve"/>
      <point x="191" y="-117"/>
      <point x="201" y="-134"/>
      <point x="206" y="-147" type="qcurve"/>
      <point x="187" y="-177"/>
      <point x="141" y="-204"/>
      <point x="110" y="-204" type="qcurve" smooth="yes"/>
      <point x="75" y="-204"/>
      <point x="33" y="-163"/>
      <point x="33" y="-130" type="qcurve" smooth="yes"/>
      <point x="33" y="-93"/>
      <point x="80" y="-25"/>
    </contour>
    <contour>
      <point x="144.0" y="0.0" type="move" name="_bottom"/>
    </contour>
  </outline>
</glyph>
<glyph name="tilde" format="1">
  <advance width="260"/>
  <unicode hex="02DC"/>
  <outline>
    <contour>
      <point x="136" y="705" type="qcurve" smooth="yes"/>
      <point x="151" y="696"/>
      <point x="166" y="691"/>
      <point x="172" y="691" type="qcurve" smooth="yes"/>
      <point x="186" y="691"/>
      <point x="196" y="708"/>
      <point x="195" y="729" type="qcurve"/>
      <point x="206" y="730"/>
      <point x="224" y="726"/>
      <point x="237" y="720" type="qcurve"/>
      <point x="240" y="682"/>
      <point x="210" y="644"/>
      <point x="178" y="644" type="qcurve" smooth="yes"/>
      <point x="165" y="644"/>
      <point x="140" y="652"/>
      <point x="120" y="664" type="qcurve" smooth="yes"/>
      <point x="106" y="673"/>
      <point x="92" y="678"/>
      <point x="86" y="678" type="qcurve" smooth="yes"/>
      <point x="74" y="678"/>
      <point x="64" y="660"/>
      <point x="65" y="642" type="qcurve"/>
      <point x="54" y="641"/>
      <point x="33" y="645"/>
      <point x="23" y="649" type="qcurve"/>
      <point x="20" y="685"/>
      <point x="50" y="725"/>
      <point x="81" y="725" type="qcurve" smooth="yes"/>
      <point x="93" y="725"/>
      <point x="116" y="717"/>
    </contour>
    <contour>
      <point x="130.0" y="560.0" type="move" name="_top"/>
    </contour>
  </outline>
</glyph>
<glyph name="pi" format="1">
  <advance width="574"/>
  <unicode hex="03C0"/>
  <outline>
    <contour>
      <point x="189" y="467" type="qcurve"/>
      <point x="194" y="436"/>
      <point x="200" y="363"/>
      <point x="201" y="330" type="qcurve" smooth="yes"/>
      <point x="202" y="245"/>
      <point x="183" y="109"/>
      <point x="154" y="7" type="qcurve"/>
      <point x="141" y="8"/>
      <point x="112" y="15"/>
      <point x="104" y="19" type="qcurve"/>
      <point x="131" y="109"/>
      <point x="151" y="231"/>
      <point x="151" y="307" type="qcurve" smooth="yes"/>
      <point x="151" y="352"/>
      <point x="145" y="423"/>
      <point x="138" y="464" type="qcurve"/>
      <point x="117" y="462"/>
      <point x="68" y="457"/>
      <point x="28" y="452" type="qcurve"/>
      <point x="24" y="469"/>
      <point x="20" y="497"/>
      <point x="20" y="510" type="qcurve"/>
      <point x="116" y="515"/>
      <point x="432" y="524"/>
      <point x="546" y="524" type="qcurve"/>
      <point x="552" y="511"/>
      <point x="555" y="478"/>
      <point x="551" y="456" type="qcurve"/>
      <point x="517" y="459"/>
      <point x="450" y="463"/>
      <point x="419" y="464" type="qcurve"/>
      <point x="408" y="396"/>
      <point x="400" y="316"/>
      <point x="400" y="282" type="qcurve" smooth="yes"/>
      <point x="400" y="174"/>
      <point x="432" y="56"/>
      <point x="462" y="56" type="qcurve" smooth="yes"/>
      <point x="481" y="56"/>
      <point x="496" y="102"/>
      <point x="498" y="167" type="qcurve"/>
      <point x="510" y="166"/>
      <point x="534" y="160"/>
      <point x="543" y="155" type="qcurve"/>
      <point x="541" y="85"/>
      <point x="497" y="11"/>
      <point x="457" y="11" type="qcurve" smooth="yes"/>
      <point x="404" y="11"/>
      <point x="350" y="152"/>
      <point x="350" y="291" type="qcurve" smooth="yes"/>
      <point x="350" y="320"/>
      <point x="356" y="387"/>
      <point x="366" y="466" type="qcurve"/>
      <point x="310" y="467"/>
      <point x="258" y="468"/>
      <point x="237" y="468" type="qcurve" smooth="yes"/>
      <point x="216" y="468"/>
      <point x="197" y="468"/>
    </contour>
  </outline>
</glyph>
<glyph name="bn_danda" format="1">
  <advance width="586"/>
  <unicode hex="0964"/>
  <outline>
    <contour>
      <point x="440" y="262" type="qcurve" smooth="yes"/>
      <point x="440" y="158"/>
      <point x="455" y="-20"/>
      <point x="469" y="-81" type="qcurve"/>
      <point x="442" y="-92"/>
      <point x="416" y="-99"/>
      <point x="405" y="-99" type="qcurve"/>
      <point x="405" y="-89"/>
      <point x="403" y="-64"/>
      <point x="401" y="-39" type="qcurve" smooth="yes"/>
      <point x="398" y="2"/>
      <point x="396" y="44"/>
      <point x="396" y="63" type="qcurve" smooth="yes"/>
      <point x="396" y="268"/>
      <point x="406" y="475"/>
      <point x="418" y="587" type="qcurve"/>
      <point x="455" y="595" type="line"/>
      <point x="444" y="432"/>
      <point x="440" y="317"/>
    </contour>
  </outline>
</glyph>
<glyph name="bn_chandrabindu" format="1">
  <advance width="0"/>
  <unicode hex="0981"/>
  <outline>
    <contour>
      <point x="5" y="871" type="qcurve" smooth="yes"/>
      <point x="22" y="871"/>
      <point x="46" y="845"/>
      <point x="46" y="827" type="qcurve" smooth="yes"/>
      <point x="46" y="810"/>
      <point x="24" y="788"/>
      <point x="6" y="788" type="qcurve" smooth="yes"/>
      <point x="-12" y="788"/>
      <point x="-35" y="813"/>
      <point x="-35" y="832" type="qcurve" smooth="yes"/>
      <point x="-35" y="848"/>
      <point x="-12" y="871"/>
    </contour>
    <contour>
      <point x="112" y="816" type="qcurve"/>
      <point x="144" y="805" type="line"/>
      <point x="134" y="743"/>
      <point x="54" y="665"/>
      <point x="0" y="665" type="qcurve" smooth="yes"/>
      <point x="-50" y="665"/>
      <point x="-123" y="724"/>
      <point x="-132" y="770" type="qcurve"/>
      <point x="-87" y="788" type="line"/>
      <point x="-78" y="755"/>
      <point x="-27" y="713"/>
      <point x="6" y="713" type="qcurve" smooth="yes"/>
      <point x="44" y="713"/>
      <point x="101" y="769"/>
    </contour>
    <contour>
      <point x="0" y="665" type="move" name="_chandrabindu"/>
    </contour>
  </outline>
</glyph>
<glyph name="bn_anusvar" format="1">
  <advance width="438"/>
  <unicode hex="0982"/>
  <outline>
    <contour>
      <point x="230" y="599" type="qcurve" smooth="yes"/>
      <point x="288" y="599"/>
      <point x="363" y="529"/>
      <point x="363" y="474" type="qcurve" smooth="yes"/>
      <point x="363" y="415"/>
      <point x="276" y="330"/>
      <point x="215" y="330" type="qcurve" smooth="yes"/>
      <point x="159" y="330"/>
      <point x="85" y="401"/>
      <point x="85" y="456" type="qcurve" smooth="yes"/>
      <point x="85" y="516"/>
      <point x="169" y="599"/>
    </contour>
    <contour>
      <point x="215" y="556" type="qcurve" smooth="yes"/>
      <point x="176" y="556"/>
      <point x="131" y="511"/>
      <point x="131" y="472" type="qcurve" smooth="yes"/>
      <point x="131" y="427"/>
      <point x="185" y="373"/>
      <point x="229" y="373" type="qcurve" smooth="yes"/>
      <point x="269" y="373"/>
      <point x="317" y="421"/>
      <point x="317" y="461" type="qcurve" smooth="yes"/>
      <point x="317" y="504"/>
      <point x="261" y="556"/>
    </contour>
    <contour>
      <point x="50" y="310" type="qcurve"/>
      <point x="162" y="265"/>
      <point x="362" y="89"/>
      <point x="422" y="-21" type="qcurve"/>
      <point x="416" y="-29"/>
      <point x="400" y="-40"/>
      <point x="387" y="-45" type="qcurve"/>
      <point x="316" y="68"/>
      <point x="126" y="230"/>
      <point x="30" y="259" type="qcurve"/>
      <point x="33" y="275"/>
      <point x="42" y="298"/>
    </contour>
  </outline>
</glyph>
<glyph name="bn_a" format="1">
  <advance width="612"/>
  <unicode hex="0985"/>
  <note>
    uni0985
  </note>
  <outline>
    <contour>
      <point x="553" y="436" type="qcurve" smooth="yes"/>
      <point x="553" y="304"/>
      <point x="514" y="46"/>
      <point x="483" y="-18" type="qcurve"/>
      <point x="472" y="-18"/>
      <point x="449" y="-12"/>
      <point x="440" y="-6" type="qcurve"/>
      <point x="421" y="30"/>
      <point x="381" y="91"/>
      <point x="358" y="116" type="qcurve"/>
      <point x="343" y="107"/>
      <point x="309" y="97"/>
      <point x="290" y="97" type="qcurve" smooth="yes"/>
      <point x="209" y="97"/>
      <point x="72" y="269"/>
      <point x="18" y="438" type="qcurve"/>
      <point x="28" y="448"/>
      <point x="47" y="461"/>
      <point x="57" y="465" type="qcurve"/>
      <point x="107" y="305"/>
      <point x="223" y="149"/>
      <point x="290" y="149" type="qcurve" smooth="yes"/>
      <point x="336" y="149"/>
      <point x="384" y="222"/>
      <point x="384" y="291" type="qcurve" smooth="yes"/>
      <point x="384" y="366"/>
      <point x="337" y="458"/>
      <point x="298" y="458" type="qcurve" smooth="yes"/>
      <point x="273" y="458"/>
      <point x="247" y="418"/>
      <point x="247" y="380" type="qcurve" smooth="yes"/>
      <point x="247" y="360"/>
      <point x="258" y="321"/>
      <point x="268" y="308" type="qcurve"/>
      <point x="253" y="308"/>
      <point x="224" y="312"/>
      <point x="216" y="316" type="qcurve"/>
      <point x="209" y="330"/>
      <point x="201" y="366"/>
      <point x="201" y="383" type="qcurve" smooth="yes"/>
      <point x="201" y="433"/>
      <point x="251" y="498"/>
      <point x="290" y="498" type="qcurve" smooth="yes"/>
      <point x="349" y="498"/>
      <point x="429" y="370"/>
      <point x="429" y="281" type="qcurve" smooth="yes"/>
      <point x="429" y="240"/>
      <point x="408" y="169"/>
      <point x="389" y="144" type="qcurve"/>
      <point x="410" y="118"/>
      <point x="445" y="61"/>
      <point x="459" y="31" type="qcurve"/>
      <point x="481" y="102"/>
      <point x="502" y="300"/>
      <point x="502" y="433" type="qcurve" smooth="yes"/>
      <point x="502" y="464"/>
      <point x="501" y="520"/>
      <point x="499" y="554" type="qcurve"/>
      <point x="451" y="560"/>
      <point x="352" y="567"/>
      <point x="303" y="567" type="qcurve" smooth="yes"/>
      <point x="230" y="567"/>
      <point x="84" y="552"/>
      <point x="0" y="535" type="qcurve"/>
      <point x="-2" y="540"/>
      <point x="-5" y="553"/>
      <point x="-5" y="561" type="qcurve" smooth="yes"/>
      <point x="-5" y="567"/>
      <point x="-2" y="577"/>
      <point x="0" y="581" type="qcurve"/>
      <point x="77" y="599"/>
      <point x="229" y="616"/>
      <point x="306" y="616" type="qcurve" smooth="yes"/>
      <point x="386" y="616"/>
      <point x="550" y="597"/>
      <point x="612" y="581" type="qcurve"/>
      <point x="614" y="578"/>
      <point x="616" y="569"/>
      <point x="616" y="562" type="qcurve" smooth="yes"/>
      <point x="616" y="555"/>
      <point x="614" y="541"/>
      <point x="612" y="535" type="qcurve"/>
      <point x="594" y="539"/>
      <point x="564" y="544"/>
      <point x="550" y="546" type="qcurve"/>
      <point x="552" y="528"/>
      <point x="553" y="483"/>
    </contour>
    <contour>
      <point x="315" y="690" type="move" name="chandrabindu"/>
    </contour>
  </outline>
</glyph>
<glyph name="bn_aa" format="1">
  <advance width="836"/>
  <unicode hex="0986"/>
  <outline>
    <contour>
      <point x="758" y="489" type="qcurve"/>
      <point x="743" y="363"/>
      <point x="740" y="108"/>
      <point x="752" y="-26" type="qcurve"/>
      <point x="737" y="-29"/>
      <point x="697" y="-33"/>
      <point x="686" y="-32" type="qcurve"/>
      <point x="687" y="157"/>
      <point x="698" y="359"/>
      <point x="709" y="465" type="qcurve"/>
      <point x="703" y="494"/>
      <point x="625" y="537"/>
      <point x="556" y="551" type="qcurve"/>
      <point x="546" y="506"/>
      <point x="536" y="374"/>
      <point x="536" y="295" type="qcurve" smooth="yes"/>
      <point x="536" y="196"/>
      <point x="549" y="43"/>
      <point x="562" y="-4" type="qcurve"/>
      <point x="553" y="-10"/>
      <point x="526" y="-16"/>
      <point x="509" y="-16" type="qcurve"/>
      <point x="483" y="30"/>
      <point x="421" y="106"/>
      <point x="387" y="135" type="qcurve"/>
      <point x="369" y="114"/>
      <point x="320" y="92"/>
      <point x="291" y="92" type="qcurve" smooth="yes"/>
      <point x="210" y="92"/>
      <point x="73" y="264"/>
      <point x="19" y="433" type="qcurve"/>
      <point x="29" y="443"/>
      <point x="48" y="456"/>
      <point x="58" y="460" type="qcurve"/>
      <point x="108" y="300"/>
      <point x="224" y="144"/>
      <point x="291" y="144" type="qcurve" smooth="yes"/>
      <point x="337" y="144"/>
      <point x="385" y="217"/>
      <point x="385" y="286" type="qcurve" smooth="yes"/>
      <point x="385" y="361"/>
      <point x="338" y="453"/>
      <point x="299" y="453" type="qcurve" smooth="yes"/>
      <point x="274" y="453"/>
      <point x="248" y="413"/>
      <point x="248" y="375" type="qcurve" smooth="yes"/>
      <point x="248" y="355"/>
      <point x="259" y="316"/>
      <point x="269" y="303" type="qcurve"/>
      <point x="254" y="303"/>
      <point x="225" y="307"/>
      <point x="217" y="311" type="qcurve"/>
      <point x="210" y="325"/>
      <point x="202" y="361"/>
      <point x="202" y="378" type="qcurve" smooth="yes"/>
      <point x="202" y="428"/>
      <point x="252" y="493"/>
      <point x="291" y="493" type="qcurve" smooth="yes"/>
      <point x="350" y="493"/>
      <point x="430" y="365"/>
      <point x="430" y="276" type="qcurve" smooth="yes"/>
      <point x="430" y="244"/>
      <point x="419" y="190"/>
      <point x="408" y="168" type="qcurve"/>
      <point x="434" y="145"/>
      <point x="477" y="92"/>
      <point x="495" y="63" type="qcurve"/>
      <point x="492" y="92"/>
      <point x="490" y="163"/>
      <point x="490" y="207" type="qcurve" smooth="yes"/>
      <point x="490" y="314"/>
      <point x="504" y="502"/>
      <point x="517" y="558" type="qcurve"/>
      <point x="477" y="564"/>
      <point x="383" y="570"/>
      <point x="333" y="570" type="qcurve" smooth="yes"/>
      <point x="254" y="570"/>
      <point x="87" y="552"/>
      <point x="0" y="535" type="qcurve"/>
      <point x="-4" y="547"/>
      <point x="-5" y="574"/>
      <point x="0" y="581" type="qcurve"/>
      <point x="81" y="599"/>
      <point x="253" y="619"/>
      <point x="336" y="619" type="qcurve" smooth="yes"/>
      <point x="472" y="619"/>
      <point x="684" y="572"/>
      <point x="731" y="529" type="qcurve"/>
      <point x="746" y="545"/>
      <point x="800" y="572"/>
      <point x="836" y="581" type="qcurve"/>
      <point x="839" y="574"/>
      <point x="839" y="546"/>
      <point x="836" y="535" type="qcurve"/>
      <point x="806" y="526"/>
      <point x="766" y="503"/>
    </contour>
    <contour>
      <point x="439" y="690" type="move" name="chandrabindu"/>
    </contour>
  </outline>
</glyph>
<glyph name="bn_ii" format="1">
  <advance width="528"/>
  <unicode hex="0988"/>
  <outline>
    <contour>
      <point x="531" y="561" type="qcurve" smooth="yes"/>
      <point x="531" y="554"/>
      <point x="529" y="540"/>
      <point x="528" y="535" type="qcurve"/>
      <point x="474" y="548"/>
      <point x="341" y="561"/>
      <point x="268" y="561" type="qcurve" smooth="yes"/>
      <point x="196" y="561"/>
      <point x="62" y="548"/>
      <point x="0" y="535" type="qcurve"/>
      <point x="-3" y="541"/>
      <point x="-6" y="554"/>
      <point x="-6" y="560" type="qcurve" smooth="yes"/>
      <point x="-6" y="567"/>
      <point x="-3" y="577"/>
      <point x="0" y="581" type="qcurve"/>
      <point x="53" y="595"/>
      <point x="191" y="611"/>
      <point x="267" y="611" type="qcurve" smooth="yes"/>
      <point x="329" y="611"/>
      <point x="444" y="600"/>
      <point x="491" y="590" type="qcurve"/>
      <point x="479" y="643"/>
      <point x="429" y="697"/>
      <point x="391" y="697" type="qcurve" smooth="yes"/>
      <point x="373" y="697"/>
      <point x="333" y="693"/>
      <point x="295" y="686" type="qcurve" smooth="yes"/>
      <point x="260" y="679"/>
      <point x="224" y="675"/>
      <point x="209" y="675" type="qcurve" smooth="yes"/>
      <point x="162" y="675"/>
      <point x="91" y="721"/>
      <point x="62" y="770" type="qcurve"/>
      <point x="68" y="777"/>
      <point x="87" y="790"/>
      <point x="100" y="796" type="qcurve"/>
      <point x="129" y="752"/>
      <point x="179" y="721"/>
      <point x="211" y="721" type="qcurve" smooth="yes"/>
      <point x="223" y="721"/>
      <point x="254" y="725"/>
      <point x="288" y="731" type="qcurve" smooth="yes"/>
      <point x="328" y="738"/>
      <point x="370" y="743"/>
      <point x="388" y="743" type="qcurve" smooth="yes"/>
      <point x="444" y="743"/>
      <point x="518" y="657"/>
      <point x="528" y="581" type="qcurve"/>
      <point x="530" y="578"/>
      <point x="531" y="570"/>
    </contour>
    <contour>
      <point x="475" y="-4" type="qcurve"/>
      <point x="463" y="-9"/>
      <point x="437" y="-15"/>
      <point x="423" y="-16" type="qcurve"/>
      <point x="401" y="63"/>
      <point x="399" y="264"/>
      <point x="417" y="359" type="qcurve"/>
      <point x="359" y="190"/>
      <point x="258" y="76"/>
      <point x="173" y="76" type="qcurve" smooth="yes"/>
      <point x="149" y="76"/>
      <point x="92" y="86"/>
      <point x="65" y="95" type="qcurve"/>
      <point x="45" y="159" type="line"/>
      <point x="87" y="141"/>
      <point x="146" y="125"/>
      <point x="172" y="125" type="qcurve" smooth="yes"/>
      <point x="229" y="125"/>
      <point x="295" y="193"/>
      <point x="295" y="251" type="qcurve" smooth="yes"/>
      <point x="295" y="324"/>
      <point x="196" y="440"/>
      <point x="134" y="440" type="qcurve" smooth="yes"/>
      <point x="106" y="440"/>
      <point x="74" y="413"/>
      <point x="74" y="389" type="qcurve" smooth="yes"/>
      <point x="74" y="362"/>
      <point x="118" y="312"/>
      <point x="155" y="294" type="qcurve"/>
      <point x="148" y="284"/>
      <point x="121" y="268"/>
      <point x="110" y="266" type="qcurve"/>
      <point x="69" y="295"/>
      <point x="29" y="355"/>
      <point x="29" y="389" type="qcurve" smooth="yes"/>
      <point x="29" y="431"/>
      <point x="85" y="480"/>
      <point x="131" y="480" type="qcurve" smooth="yes"/>
      <point x="207" y="480"/>
      <point x="330" y="349"/>
      <point x="336" y="263" type="qcurve"/>
      <point x="356" y="323"/>
      <point x="405" y="425"/>
      <point x="426" y="451" type="qcurve"/>
      <point x="442" y="446"/>
      <point x="466" y="432"/>
      <point x="475" y="422" type="qcurve"/>
      <point x="444" y="327"/>
      <point x="444" y="112"/>
    </contour>
    <contour>
      <point x="253" y="775" type="move" name="chandrabindu"/>
    </contour>
  </outline>
</glyph>
<glyph name="bn_u" format="1">
  <advance width="556"/>
  <unicode hex="0989"/>
  <outline>
    <contour>
      <point x="535" y="203" type="qcurve" smooth="yes"/>
      <point x="535" y="102"/>
      <point x="437" y="-17"/>
      <point x="352" y="-17" type="qcurve" smooth="yes"/>
      <point x="237" y="-17"/>
      <point x="74" y="189"/>
      <point x="10" y="430" type="qcurve"/>
      <point x="19" y="437"/>
      <point x="40" y="449"/>
      <point x="52" y="455" type="qcurve"/>
      <point x="111" y="235"/>
      <point x="252" y="38"/>
      <point x="352" y="38" type="qcurve" smooth="yes"/>
      <point x="418" y="38"/>
      <point x="489" y="131"/>
      <point x="489" y="217" type="qcurve" smooth="yes"/>
      <point x="489" y="252"/>
      <point x="479" y="319"/>
      <point x="469" y="350" type="qcurve"/>
      <point x="425" y="296"/>
      <point x="360" y="253"/>
      <point x="329" y="253" type="qcurve" smooth="yes"/>
      <point x="284" y="253"/>
      <point x="222" y="325"/>
      <point x="222" y="375" type="qcurve" smooth="yes"/>
      <point x="222" y="405"/>
      <point x="238" y="491"/>
      <point x="259" y="566" type="qcurve"/>
      <point x="188" y="565"/>
      <point x="60" y="549"/>
      <point x="-1" y="535" type="qcurve"/>
      <point x="-3" y="540"/>
      <point x="-5" y="553"/>
      <point x="-5" y="560" type="qcurve" smooth="yes"/>
      <point x="-5" y="566"/>
      <point x="-3" y="577"/>
      <point x="-1" y="581" type="qcurve"/>
      <point x="63" y="599"/>
      <point x="203" y="616"/>
      <point x="280" y="616" type="qcurve" smooth="yes"/>
      <point x="344" y="616"/>
      <point x="463" y="603"/>
      <point x="519" y="590" type="qcurve"/>
      <point x="507" y="643"/>
      <point x="457" y="697"/>
      <point x="419" y="697" type="qcurve" smooth="yes"/>
      <point x="401" y="697"/>
      <point x="360" y="692"/>
      <point x="322" y="684" type="qcurve" smooth="yes"/>
      <point x="286" y="677"/>
      <point x="250" y="672"/>
      <point x="235" y="672" type="qcurve" smooth="yes"/>
      <point x="185" y="672"/>
      <point x="112" y="718"/>
      <point x="83" y="770" type="qcurve"/>
      <point x="90" y="779"/>
      <point x="110" y="795"/>
      <point x="120" y="799" type="qcurve"/>
      <point x="148" y="754"/>
      <point x="202" y="718"/>
      <point x="237" y="718" type="qcurve" smooth="yes"/>
      <point x="249" y="718"/>
      <point x="280" y="722"/>
      <point x="315" y="729" type="qcurve" smooth="yes"/>
      <point x="356" y="738"/>
      <point x="398" y="743"/>
      <point x="416" y="743" type="qcurve" smooth="yes"/>
      <point x="472" y="743"/>
      <point x="546" y="657"/>
      <point x="556" y="581" type="qcurve"/>
      <point x="558" y="577"/>
      <point x="561" y="565"/>
      <point x="561" y="560" type="qcurve" smooth="yes"/>
      <point x="561" y="554"/>
      <point x="558" y="540"/>
      <point x="556" y="535" type="qcurve"/>
      <point x="498" y="549"/>
      <point x="375" y="565"/>
      <point x="309" y="566" type="qcurve"/>
      <point x="279" y="457"/>
      <point x="267" y="392"/>
      <point x="267" y="368" type="qcurve" smooth="yes"/>
      <point x="267" y="336"/>
      <point x="296" y="300"/>
      <point x="323" y="300" type="qcurve" smooth="yes"/>
      <point x="345" y="300"/>
      <point x="406" y="351"/>
      <point x="457" y="414" type="qcurve"/>
      <point x="464" y="413"/>
      <point x="482" y="404"/>
      <point x="490" y="399" type="qcurve"/>
      <point x="511" y="356"/>
      <point x="535" y="254"/>
    </contour>
    <contour>
      <point x="281" y="775" type="move" name="chandrabindu"/>
    </contour>
  </outline>
</glyph>
<glyph name="bn_li" format="1">
  <advance width="460"/>
  <unicode hex="098C"/>
  <outline>
    <contour>
      <point x="418" y="327" type="qcurve" smooth="yes"/>
      <point x="418" y="257"/>
      <point x="379" y="74"/>
      <point x="346" y="-17" type="qcurve"/>
      <point x="332" y="-17"/>
      <point x="308" y="-11"/>
      <point x="297" y="-5" type="qcurve"/>
      <point x="301" y="106"/>
      <point x="226" y="246"/>
      <point x="164" y="246" type="qcurve" smooth="yes"/>
      <point x="121" y="246"/>
      <point x="68" y="181"/>
      <point x="68" y="127" type="qcurve" smooth="yes"/>
      <point x="68" y="84"/>
      <point x="103" y="33"/>
      <point x="130" y="33" type="qcurve" smooth="yes"/>
      <point x="153" y="33"/>
      <point x="189" y="72"/>
      <point x="200" y="108" type="qcurve"/>
      <point x="210" y="91"/>
      <point x="220" y="62"/>
      <point x="221" y="52" type="qcurve"/>
      <point x="208" y="21"/>
      <point x="158" y="-16"/>
      <point x="131" y="-16" type="qcurve" smooth="yes"/>
      <point x="87" y="-16"/>
      <point x="23" y="72"/>
      <point x="23" y="136" type="qcurve" smooth="yes"/>
      <point x="23" y="206"/>
      <point x="100" y="297"/>
      <point x="158" y="297" type="qcurve" smooth="yes"/>
      <point x="225" y="297"/>
      <point x="320" y="180"/>
      <point x="330" y="83" type="qcurve"/>
      <point x="350" y="138"/>
      <point x="375" y="289"/>
      <point x="375" y="356" type="qcurve" smooth="yes"/>
      <point x="375" y="414"/>
      <point x="320" y="468"/>
      <point x="223" y="488" type="qcurve" smooth="yes"/>
      <point x="161" y="502"/>
      <point x="110" y="518"/>
      <point x="93" y="529" type="qcurve" smooth="yes"/>
      <point x="65" y="545"/>
      <point x="32" y="599"/>
      <point x="24" y="641" type="qcurve"/>
      <point x="34" y="648"/>
      <point x="58" y="658"/>
      <point x="67" y="659" type="qcurve"/>
      <point x="79" y="605"/>
      <point x="127" y="555"/>
      <point x="189" y="542" type="qcurve"/>
      <point x="258" y="527" type="line" smooth="yes"/>
      <point x="347" y="508"/>
      <point x="418" y="417"/>
    </contour>
    <contour>
      <point x="239" y="690" type="move" name="chandrabindu"/>
    </contour>
  </outline>
</glyph>
<glyph name="bn_ai" format="1">
  <advance width="637"/>
  <unicode hex="0990"/>
  <outline>
    <contour>
      <point x="476" y="-9" type="qcurve"/>
      <point x="466" y="-13"/>
      <point x="442" y="-17"/>
      <point x="429" y="-17" type="qcurve"/>
      <point x="416" y="9"/>
      <point x="399" y="40"/>
      <point x="395" y="45" type="qcurve" smooth="yes"/>
      <point x="383" y="61"/>
      <point x="353" y="75"/>
      <point x="334" y="75" type="qcurve" smooth="yes"/>
      <point x="320" y="75"/>
      <point x="284" y="68"/>
      <point x="244" y="56" type="qcurve" smooth="yes"/>
      <point x="200" y="42"/>
      <point x="156" y="34"/>
      <point x="139" y="34" type="qcurve" smooth="yes"/>
      <point x="87" y="34"/>
      <point x="25" y="101"/>
      <point x="25" y="155" type="qcurve" smooth="yes"/>
      <point x="25" y="185"/>
      <point x="46" y="257"/>
      <point x="65" y="291" type="qcurve"/>
      <point x="77" y="290"/>
      <point x="97" y="283"/>
      <point x="105" y="275" type="qcurve"/>
      <point x="92" y="254"/>
      <point x="74" y="190"/>
      <point x="74" y="163" type="qcurve" smooth="yes"/>
      <point x="74" y="126"/>
      <point x="112" y="87"/>
      <point x="146" y="87" type="qcurve" smooth="yes"/>
      <point x="160" y="87"/>
      <point x="196" y="95"/>
      <point x="234" y="107" type="qcurve" smooth="yes"/>
      <point x="275" y="120"/>
      <point x="314" y="128"/>
      <point x="330" y="128" type="qcurve" smooth="yes"/>
      <point x="365" y="128"/>
      <point x="412" y="89"/>
      <point x="431" y="45" type="qcurve"/>
      <point x="443" y="134"/>
      <point x="456" y="375"/>
      <point x="456" y="501" type="qcurve" smooth="yes"/>
      <point x="456" y="540"/>
      <point x="421" y="585"/>
      <point x="392" y="585" type="qcurve" smooth="yes"/>
      <point x="365" y="585"/>
      <point x="300" y="548"/>
      <point x="271" y="517" type="qcurve" smooth="yes"/>
      <point x="243" y="487"/>
      <point x="212" y="421"/>
      <point x="212" y="391" type="qcurve" smooth="yes"/>
      <point x="212" y="362"/>
      <point x="243" y="331"/>
      <point x="270" y="331" type="qcurve" smooth="yes"/>
      <point x="293" y="331"/>
      <point x="334" y="354"/>
      <point x="354" y="377" type="qcurve"/>
      <point x="357" y="373"/>
      <point x="360" y="360"/>
      <point x="360" y="349" type="qcurve" smooth="yes"/>
      <point x="360" y="338"/>
      <point x="357" y="322"/>
      <point x="354" y="315" type="qcurve"/>
      <point x="336" y="299"/>
      <point x="289" y="281"/>
      <point x="263" y="281" type="qcurve" smooth="yes"/>
      <point x="215" y="281"/>
      <point x="156" y="339"/>
      <point x="156" y="387" type="qcurve" smooth="yes"/>
      <point x="156" y="425"/>
      <point x="195" y="508"/>
      <point x="229" y="545" type="qcurve" smooth="yes"/>
      <point x="265" y="583"/>
      <point x="348" y="627"/>
      <point x="383" y="627" type="qcurve" smooth="yes"/>
      <point x="434" y="627"/>
      <point x="503" y="546"/>
      <point x="503" y="484" type="qcurve" smooth="yes"/>
      <point x="503" y="476"/>
      <point x="503" y="459"/>
      <point x="503" y="451" type="qcurve"/>
      <point x="535" y="474"/>
      <point x="571" y="542"/>
      <point x="571" y="579" type="qcurve" smooth="yes"/>
      <point x="571" y="609"/>
      <point x="545" y="648"/>
      <point x="516" y="660" type="qcurve" smooth="yes"/>
      <point x="501" y="667"/>
      <point x="459" y="678"/>
      <point x="413" y="686" type="qcurve" smooth="yes"/>
      <point x="358" y="696"/>
      <point x="301" y="713"/>
      <point x="282" y="724" type="qcurve" smooth="yes"/>
      <point x="254" y="741"/>
      <point x="222" y="795"/>
      <point x="214" y="838" type="qcurve"/>
      <point x="224" y="845"/>
      <point x="248" y="855"/>
      <point x="257" y="856" type="qcurve"/>
      <point x="269" y="800"/>
      <point x="319" y="750"/>
      <point x="379" y="739" type="qcurve"/>
      <point x="448" y="725" type="line" smooth="yes"/>
      <point x="531" y="708"/>
      <point x="607" y="636"/>
      <point x="607" y="574" type="qcurve" smooth="yes"/>
      <point x="607" y="522"/>
      <point x="554" y="428"/>
      <point x="502" y="387" type="qcurve"/>
      <point x="501" y="281"/>
      <point x="488" y="86"/>
    </contour>
    <contour>
      <point x="444" y="775" type="move" name="chandrabindu"/>
    </contour>
  </outline>
</glyph>
<glyph name="bn_ka" format="1">
  <advance width="596"/>
  <unicode hex="0995"/>
  <outline>
    <contour>
      <point x="347" y="283" type="qcurve" smooth="yes"/>
      <point x="347" y="179"/>
      <point x="355" y="37"/>
      <point x="362" y="-7" type="qcurve"/>
      <point x="352" y="-12"/>
      <point x="327" y="-16"/>
      <point x="309" y="-16" type="qcurve"/>
      <point x="261" y="93"/>
      <point x="137" y="222"/>
      <point x="59" y="242" type="qcurve"/>
      <point x="47" y="254"/>
      <point x="34" y="280"/>
      <point x="32" y="299" type="qcurve"/>
      <point x="73" y="349"/>
      <point x="229" y="462"/>
      <point x="311" y="501" type="qcurve"/>
      <point x="313" y="527"/>
      <point x="316" y="554"/>
      <point x="317" y="566" type="qcurve"/>
      <point x="311" y="566"/>
      <point x="298" y="566"/>
      <point x="292" y="566" type="qcurve" smooth="yes"/>
      <point x="223" y="566"/>
      <point x="80" y="551"/>
      <point x="0" y="535" type="qcurve"/>
      <point x="-2" y="541"/>
      <point x="-5" y="554"/>
      <point x="-5" y="560" type="qcurve" smooth="yes"/>
      <point x="-5" y="566"/>
      <point x="-2" y="577"/>
      <point x="0" y="581" type="qcurve"/>
      <point x="70" y="598"/>
      <point x="221" y="616"/>
      <point x="296" y="616" type="qcurve" smooth="yes"/>
      <point x="375" y="616"/>
      <point x="540" y="597"/>
      <point x="596" y="581" type="qcurve"/>
      <point x="599" y="577"/>
      <point x="601" y="567"/>
      <point x="601" y="562" type="qcurve" smooth="yes"/>
      <point x="601" y="556"/>
      <point x="599" y="544"/>
      <point x="596" y="535" type="qcurve"/>
      <point x="542" y="546"/>
      <point x="419" y="561"/>
      <point x="359" y="564" type="qcurve"/>
      <point x="358" y="552"/>
      <point x="355" y="525"/>
      <point x="353" y="499" type="qcurve"/>
      <point x="455" y="475"/>
      <point x="569" y="371"/>
      <point x="569" y="303" type="qcurve" smooth="yes"/>
      <point x="569" y="256"/>
      <point x="515" y="167"/>
      <point x="475" y="146" type="qcurve"/>
      <point x="463" y="149"/>
      <point x="440" y="174"/>
      <point x="434" y="192" type="qcurve"/>
      <point x="483" y="211"/>
      <point x="533" y="266"/>
      <point x="533" y="303" type="qcurve" smooth="yes"/>
      <point x="533" y="353"/>
      <point x="436" y="427"/>
      <point x="350" y="444" type="qcurve"/>
      <point x="348" y="408"/>
      <point x="347" y="330"/>
    </contour>
    <contour>
      <point x="302" y="71" type="qcurve"/>
      <point x="300" y="95"/>
      <point x="299" y="160"/>
      <point x="299" y="203" type="qcurve" smooth="yes"/>
      <point x="299" y="273"/>
      <point x="303" y="386"/>
      <point x="307" y="439" type="qcurve"/>
      <point x="253" y="413"/>
      <point x="132" y="325"/>
      <point x="92" y="283" type="qcurve"/>
      <point x="159" y="252"/>
      <point x="265" y="145"/>
    </contour>
    <contour>
      <point x="323" y="0" type="move" name="blwm"/>
    </contour>
    <contour>
      <point x="115" y="0" type="move" name="nukt"/>
    </contour>
    <contour>
      <point x="328" y="690" type="move" name="reph"/>
    </contour>
    <contour>
      <point x="328" y="690" type="move" name="chandrabindu"/>
    </contour>
    <contour>
      <point x="276" y="0" type="move" name="haln"/>
    </contour>
  </outline>
</glyph>
<glyph name="bn_ga" format="1">
  <advance width="457"/>
  <unicode hex="0997"/>
  <outline>
    <contour>
      <point x="393" y="470" type="qcurve" smooth="yes"/>
      <point x="393" y="323"/>
      <point x="367" y="93"/>
      <point x="337" y="-16" type="qcurve"/>
      <point x="322" y="-16"/>
      <point x="296" y="-12"/>
      <point x="284" y="-8" type="qcurve"/>
      <point x="306" y="54"/>
      <point x="333" y="165"/>
      <point x="341" y="227" type="qcurve"/>
      <point x="340" y="226" type="line"/>
      <point x="340" y="230"/>
      <point x="346" y="288"/>
      <point x="347" y="303" type="qcurve"/>
      <point x="348" y="319"/>
      <point x="349" y="339"/>
      <point x="349" y="347" type="qcurve"/>
      <point x="349" y="348" type="line" smooth="yes"/>
      <point x="349" y="439"/>
      <point x="253" y="558"/>
      <point x="187" y="558" type="qcurve" smooth="yes"/>
      <point x="140" y="558"/>
      <point x="85" y="508"/>
      <point x="85" y="464" type="qcurve" smooth="yes"/>
      <point x="85" y="460"/>
      <point x="86" y="452"/>
      <point x="87" y="445" type="qcurve"/>
      <point x="108" y="457"/>
      <point x="155" y="471"/>
      <point x="175" y="471" type="qcurve" smooth="yes"/>
      <point x="216" y="471"/>
      <point x="273" y="414"/>
      <point x="273" y="373" type="qcurve" smooth="yes"/>
      <point x="273" y="333"/>
      <point x="214" y="229"/>
      <point x="151" y="160" type="qcurve"/>
      <point x="137" y="166"/>
      <point x="112" y="190"/>
      <point x="103" y="203" type="qcurve"/>
      <point x="170" y="265"/>
      <point x="233" y="352"/>
      <point x="233" y="380" type="qcurve" smooth="yes"/>
      <point x="233" y="401"/>
      <point x="207" y="424"/>
      <point x="183" y="424" type="qcurve" smooth="yes"/>
      <point x="158" y="424"/>
      <point x="98" y="401"/>
      <point x="71" y="382" type="qcurve"/>
      <point x="44" y="412" type="line"/>
      <point x="41" y="424"/>
      <point x="38" y="451"/>
      <point x="38" y="466" type="qcurve" smooth="yes"/>
      <point x="38" y="529"/>
      <point x="122" y="613"/>
      <point x="188" y="613" type="qcurve" smooth="yes"/>
      <point x="245" y="613"/>
      <point x="331" y="535"/>
      <point x="355" y="463" type="qcurve"/>
      <point x="355" y="467"/>
      <point x="355" y="476"/>
      <point x="354" y="484" type="qcurve" smooth="yes"/>
      <point x="354" y="490"/>
      <point x="354" y="496"/>
      <point x="354" y="499" type="qcurve" smooth="yes"/>
      <point x="354" y="518"/>
      <point x="367" y="544"/>
      <point x="381" y="553" type="qcurve" smooth="yes"/>
      <point x="393" y="561"/>
      <point x="431" y="575"/>
      <point x="457" y="581" type="qcurve"/>
      <point x="459" y="578"/>
      <point x="462" y="566"/>
      <point x="462" y="559" type="qcurve" smooth="yes"/>
      <point x="462" y="551"/>
      <point x="459" y="538"/>
      <point x="457" y="535" type="qcurve"/>
      <point x="442" y="531"/>
      <point x="420" y="523"/>
      <point x="413" y="519" type="qcurve" smooth="yes"/>
      <point x="402" y="513"/>
      <point x="393" y="492"/>
    </contour>
    <contour>
      <point x="318" y="0" type="move" name="blwm"/>
    </contour>
    <contour>
      <point x="148" y="0" type="move" name="nukt"/>
    </contour>
    <contour>
      <point x="390" y="690" type="move" name="reph"/>
    </contour>
    <contour>
      <point x="390" y="690" type="move" name="chandrabindu"/>
    </contour>
    <contour>
      <point x="209" y="0" type="move" name="haln"/>
    </contour>
  </outline>
</glyph>
<glyph name="bn_gha" format="1">
  <advance width="475"/>
  <unicode hex="0998"/>
  <outline>
    <contour>
      <point x="257" y="405" type="qcurve"/>
      <point x="265" y="394"/>
      <point x="273" y="367"/>
      <point x="272" y="352" type="qcurve"/>
      <point x="140" y="249" type="line"/>
      <point x="206" y="223"/>
      <point x="311" y="133"/>
      <point x="349" y="71" type="qcurve"/>
      <point x="346" y="99"/>
      <point x="343" y="172"/>
      <point x="343" y="221" type="qcurve" smooth="yes"/>
      <point x="343" y="316"/>
      <point x="353" y="478"/>
      <point x="363" y="555" type="qcurve"/>
      <point x="332" y="559"/>
      <point x="275" y="562"/>
      <point x="247" y="562" type="qcurve" smooth="yes"/>
      <point x="231" y="562"/>
      <point x="214" y="562"/>
      <point x="207" y="561" type="qcurve"/>
      <point x="153" y="536"/>
      <point x="98" y="476"/>
      <point x="98" y="442" type="qcurve" smooth="yes"/>
      <point x="98" y="410"/>
      <point x="137" y="369"/>
      <point x="167" y="369" type="qcurve" smooth="yes"/>
      <point x="188" y="369"/>
      <point x="235" y="388"/>
    </contour>
    <contour>
      <point x="392" y="285" type="qcurve" smooth="yes"/>
      <point x="392" y="183"/>
      <point x="404" y="39"/>
      <point x="416" y="-6" type="qcurve"/>
      <point x="408" y="-11"/>
      <point x="382" y="-16"/>
      <point x="364" y="-16" type="qcurve"/>
      <point x="313" y="79"/>
      <point x="183" y="190"/>
      <point x="101" y="208" type="qcurve"/>
      <point x="87" y="220"/>
      <point x="74" y="246"/>
      <point x="73" y="263" type="qcurve"/>
      <point x="165" y="332" type="line"/>
      <point x="163" y="332" type="line" smooth="yes"/>
      <point x="110" y="335"/>
      <point x="49" y="394"/>
      <point x="49" y="443" type="qcurve" smooth="yes"/>
      <point x="49" y="476"/>
      <point x="76" y="529"/>
      <point x="106" y="554" type="qcurve"/>
      <point x="78" y="551"/>
      <point x="24" y="541"/>
      <point x="0" y="535" type="qcurve"/>
      <point x="-3" y="542"/>
      <point x="-5" y="554"/>
      <point x="-5" y="560" type="qcurve" smooth="yes"/>
      <point x="-5" y="566"/>
      <point x="-2" y="577"/>
      <point x="0" y="581" type="qcurve"/>
      <point x="45" y="595"/>
      <point x="179" y="612"/>
      <point x="249" y="612" type="qcurve" smooth="yes"/>
      <point x="310" y="612"/>
      <point x="426" y="596"/>
      <point x="475" y="581" type="qcurve"/>
      <point x="477" y="578"/>
      <point x="479" y="568"/>
      <point x="479" y="562" type="qcurve" smooth="yes"/>
      <point x="479" y="555"/>
      <point x="477" y="540"/>
      <point x="475" y="535" type="qcurve"/>
      <point x="465" y="538"/>
      <point x="439" y="543"/>
      <point x="412" y="548" type="qcurve"/>
      <point x="401" y="482"/>
      <point x="392" y="368"/>
    </contour>
    <contour>
      <point x="376" y="0" type="move" name="blwm"/>
    </contour>
    <contour>
      <point x="134" y="0" type="move" name="nukt"/>
    </contour>
    <contour>
      <point x="291" y="690" type="move" name="reph"/>
    </contour>
    <contour>
      <point x="291" y="690" type="move" name="chandrabindu"/>
    </contour>
    <contour>
      <point x="264" y="0" type="move" name="haln"/>
    </contour>
  </outline>
</glyph>
<glyph name="bn_cha" format="1">
  <advance width="480"/>
  <unicode hex="099B"/>
  <outline>
    <contour>
      <point x="123" y="315" type="qcurve" smooth="yes"/>
      <point x="123" y="299"/>
      <point x="140" y="282"/>
      <point x="157" y="282" type="qcurve" smooth="yes"/>
      <point x="197" y="282"/>
      <point x="262" y="366"/>
      <point x="262" y="419" type="qcurve" smooth="yes"/>
      <point x="262" y="427"/>
      <point x="262" y="433"/>
      <point x="261" y="436" type="qcurve"/>
      <point x="214" y="447"/>
      <point x="151" y="486"/>
      <point x="131" y="516" type="qcurve"/>
      <point x="127" y="470"/>
      <point x="123" y="364"/>
    </contour>
    <contour>
      <point x="489" y="-100" type="qcurve"/>
      <point x="482" y="-109"/>
      <point x="465" y="-128"/>
      <point x="453" y="-138" type="qcurve"/>
      <point x="379" y="-53"/>
      <point x="219" y="70"/>
      <point x="128" y="111" type="qcurve"/>
      <point x="113" y="181" type="line"/>
      <point x="152" y="168"/>
      <point x="218" y="155"/>
      <point x="245" y="155" type="qcurve" smooth="yes"/>
      <point x="307" y="155"/>
      <point x="382" y="220"/>
      <point x="382" y="276" type="qcurve" smooth="yes"/>
      <point x="382" y="314"/>
      <point x="346" y="386"/>
      <point x="314" y="413" type="qcurve"/>
      <point x="309" y="340"/>
      <point x="226" y="241"/>
      <point x="168" y="241" type="qcurve" smooth="yes"/>
      <point x="128" y="241"/>
      <point x="73" y="287"/>
      <point x="73" y="323" type="qcurve" smooth="yes"/>
      <point x="73" y="383"/>
      <point x="80" y="497"/>
      <point x="87" y="551" type="qcurve"/>
      <point x="64" y="548"/>
      <point x="20" y="540"/>
      <point x="0" y="535" type="qcurve"/>
      <point x="-2" y="542"/>
      <point x="-5" y="555"/>
      <point x="-5" y="561" type="qcurve" smooth="yes"/>
      <point x="-5" y="567"/>
      <point x="-2" y="577"/>
      <point x="0" y="581" type="qcurve"/>
      <point x="41" y="594"/>
      <point x="186" y="613"/>
      <point x="249" y="613" type="qcurve" smooth="yes"/>
      <point x="313" y="613"/>
      <point x="449" y="594"/>
      <point x="480" y="581" type="qcurve"/>
      <point x="482" y="578"/>
      <point x="483" y="571"/>
      <point x="483" y="562" type="qcurve" smooth="yes"/>
      <point x="483" y="554"/>
      <point x="481" y="539"/>
      <point x="480" y="535" type="qcurve"/>
      <point x="446" y="546"/>
      <point x="308" y="563"/>
      <point x="246" y="563" type="qcurve" smooth="yes"/>
      <point x="219" y="563"/>
      <point x="163" y="560"/>
      <point x="136" y="557" type="qcurve"/>
      <point x="159" y="526"/>
      <point x="232" y="487"/>
      <point x="303" y="471" type="qcurve"/>
      <point x="361" y="436"/>
      <point x="430" y="326"/>
      <point x="430" y="265" type="qcurve" smooth="yes"/>
      <point x="430" y="192"/>
      <point x="330" y="107"/>
      <point x="242" y="102" type="qcurve"/>
      <point x="304" y="65"/>
      <point x="427" y="-36"/>
    </contour>
    <contour>
      <point x="236" y="0" type="move" name="blwm"/>
    </contour>
    <contour>
      <point x="111.0" y="-170.0" type="move" name="nukt"/>
    </contour>
    <contour>
      <point x="230" y="690" type="move" name="reph"/>
    </contour>
    <contour>
      <point x="230" y="690" type="move" name="chandrabindu"/>
    </contour>
    <contour>
      <point x="107" y="0" type="move" name="haln"/>
    </contour>
  </outline>
</glyph>
<glyph name="bn_ja" format="1">
  <advance width="678"/>
  <unicode hex="099C"/>
  <outline>
    <contour>
      <point x="626" y="2" type="qcurve"/>
      <point x="615" y="-3"/>
      <point x="582" y="-10"/>
      <point x="568" y="-10" type="qcurve"/>
      <point x="556" y="35"/>
      <point x="543" y="140"/>
      <point x="543" y="196" type="qcurve" smooth="yes"/>
      <point x="543" y="257"/>
      <point x="558" y="370"/>
      <point x="572" y="418" type="qcurve"/>
      <point x="556" y="412"/>
      <point x="519" y="406"/>
      <point x="500" y="406" type="qcurve" smooth="yes"/>
      <point x="436" y="406"/>
      <point x="340" y="487"/>
      <point x="310" y="564" type="qcurve"/>
      <point x="275" y="519"/>
      <point x="226" y="404"/>
      <point x="226" y="364" type="qcurve" smooth="yes"/>
      <point x="226" y="335"/>
      <point x="253" y="305"/>
      <point x="278" y="305" type="qcurve" smooth="yes"/>
      <point x="306" y="305"/>
      <point x="383" y="346"/>
      <point x="419" y="381" type="qcurve"/>
      <point x="427" y="377"/>
      <point x="445" y="362"/>
      <point x="452" y="354" type="qcurve"/>
      <point x="463" y="318"/>
      <point x="474" y="240"/>
      <point x="474" y="205" type="qcurve" smooth="yes"/>
      <point x="474" y="108"/>
      <point x="386" y="-3"/>
      <point x="309" y="-3" type="qcurve" smooth="yes"/>
      <point x="208" y="-3"/>
      <point x="65" y="196"/>
      <point x="9" y="430" type="qcurve"/>
      <point x="16" y="435"/>
      <point x="35" y="446"/>
      <point x="50" y="452" type="qcurve"/>
      <point x="101" y="241"/>
      <point x="223" y="51"/>
      <point x="309" y="51" type="qcurve" smooth="yes"/>
      <point x="370" y="51"/>
      <point x="431" y="138"/>
      <point x="431" y="223" type="qcurve" smooth="yes"/>
      <point x="431" y="246"/>
      <point x="427" y="296"/>
      <point x="423" y="320" type="qcurve"/>
      <point x="386" y="288"/>
      <point x="319" y="256"/>
      <point x="290" y="256" type="qcurve" smooth="yes"/>
      <point x="245" y="256"/>
      <point x="180" y="322"/>
      <point x="180" y="372" type="qcurve" smooth="yes"/>
      <point x="180" y="412"/>
      <point x="223" y="521"/>
      <point x="255" y="567" type="qcurve"/>
      <point x="189" y="564"/>
      <point x="53" y="547"/>
      <point x="0" y="535" type="qcurve"/>
      <point x="-2" y="542"/>
      <point x="-5" y="555"/>
      <point x="-5" y="561" type="qcurve" smooth="yes"/>
      <point x="-5" y="567"/>
      <point x="-2" y="577"/>
      <point x="0" y="581" type="qcurve"/>
      <point x="66" y="598"/>
      <point x="254" y="619"/>
      <point x="341" y="619" type="qcurve" smooth="yes"/>
      <point x="428" y="619"/>
      <point x="612" y="598"/>
      <point x="678" y="581" type="qcurve"/>
      <point x="680" y="578"/>
      <point x="682" y="567"/>
      <point x="682" y="561" type="qcurve" smooth="yes"/>
      <point x="682" y="554"/>
      <point x="680" y="540"/>
      <point x="678" y="535" type="qcurve"/>
      <point x="600" y="550"/>
      <point x="428" y="568"/>
      <point x="352" y="569" type="qcurve"/>
      <point x="379" y="507"/>
      <point x="444" y="456"/>
      <point x="493" y="456" type="qcurve" smooth="yes"/>
      <point x="519" y="456"/>
      <point x="570" y="469"/>
      <point x="593" y="482" type="qcurve"/>
      <point x="604" y="474"/>
      <point x="621" y="448"/>
      <point x="625" y="434" type="qcurve"/>
      <point x="609" y="389"/>
      <point x="594" y="288"/>
      <point x="594" y="233" type="qcurve" smooth="yes"/>
      <point x="594" y="176"/>
      <point x="610" y="60"/>
    </contour>
    <contour>
      <point x="304" y="0" type="move" name="blwm"/>
    </contour>
    <contour>
      <point x="239" y="-120" type="move" name="nukt"/>
    </contour>
    <contour>
      <point x="364" y="690" type="move" name="reph"/>
    </contour>
    <contour>
      <point x="364" y="690" type="move" name="chandrabindu"/>
    </contour>
    <contour>
      <point x="227" y="0" type="move" name="haln"/>
    </contour>
  </outline>
</glyph>
<glyph name="bn_ttha" format="1">
  <advance width="440"/>
  <unicode hex="09A0"/>
  <outline>
    <contour>
      <point x="57" y="175" type="qcurve"/>
      <point x="62" y="108"/>
      <point x="130" y="38"/>
      <point x="191" y="38" type="qcurve" smooth="yes"/>
      <point x="267" y="38"/>
      <point x="359" y="159"/>
      <point x="359" y="256" type="qcurve" smooth="yes"/>
      <point x="359" y="327"/>
      <point x="303" y="475"/>
      <point x="243" y="562" type="qcurve"/>
      <point x="243" y="562" type="line"/>
      <point x="255" y="535"/>
      <point x="267" y="482"/>
      <point x="267" y="454" type="qcurve" smooth="yes"/>
      <point x="267" y="361"/>
      <point x="158" y="218"/>
    </contour>
    <contour>
      <point x="283" y="560" type="qcurve"/>
      <point x="345" y="471"/>
      <point x="405" y="311"/>
      <point x="405" y="236" type="qcurve" smooth="yes"/>
      <point x="405" y="127"/>
      <point x="289" y="-15"/>
      <point x="197" y="-15" type="qcurve" smooth="yes"/>
      <point x="114" y="-15"/>
      <point x="23" y="93"/>
      <point x="23" y="188" type="qcurve" smooth="yes"/>
      <point x="23" y="193"/>
      <point x="24" y="206"/>
      <point x="25" y="222" type="qcurve"/>
      <point x="119" y="254"/>
      <point x="234" y="384"/>
      <point x="234" y="467" type="qcurve" smooth="yes"/>
      <point x="234" y="492"/>
      <point x="223" y="541"/>
      <point x="213" y="562" type="qcurve"/>
      <point x="159" y="561"/>
      <point x="53" y="548"/>
      <point x="0" y="535" type="qcurve"/>
      <point x="-2" y="542"/>
      <point x="-5" y="555"/>
      <point x="-5" y="561" type="qcurve" smooth="yes"/>
      <point x="-5" y="567"/>
      <point x="-2" y="577"/>
      <point x="0" y="581" type="qcurve"/>
      <point x="47" y="595"/>
      <point x="145" y="610"/>
      <point x="196" y="612" type="qcurve"/>
      <point x="174" y="647"/>
      <point x="152" y="718"/>
      <point x="152" y="752" type="qcurve" smooth="yes"/>
      <point x="152" y="789"/>
      <point x="179" y="863"/>
      <point x="204" y="895" type="qcurve"/>
      <point x="216" y="889"/>
      <point x="233" y="876"/>
      <point x="240" y="868" type="qcurve"/>
      <point x="221" y="846"/>
      <point x="195" y="776"/>
      <point x="195" y="744" type="qcurve" smooth="yes"/>
      <point x="195" y="713"/>
      <point x="217" y="650"/>
      <point x="241" y="612" type="qcurve"/>
      <point x="294" y="611"/>
      <point x="395" y="595"/>
      <point x="440" y="581" type="qcurve"/>
      <point x="442" y="577"/>
      <point x="445" y="567"/>
      <point x="445" y="561" type="qcurve" smooth="yes"/>
      <point x="445" y="555"/>
      <point x="442" y="542"/>
      <point x="440" y="535" type="qcurve"/>
      <point x="404" y="544"/>
      <point x="325" y="557"/>
    </contour>
    <contour>
      <point x="195" y="0" type="move" name="blwm"/>
    </contour>
    <contour>
      <point x="192" y="-120" type="move" name="nukt"/>
    </contour>
    <contour>
      <point x="224" y="690" type="move" name="reph"/>
    </contour>
    <contour>
      <point x="370" y="690" type="move" name="chandrabindu"/>
    </contour>
    <contour>
      <point x="80" y="0" type="move" name="haln"/>
    </contour>
  </outline>
</glyph>
<glyph name="bn_dda" format="1">
  <advance width="556"/>
  <unicode hex="09A1"/>
  <note>
    uni09A1
  </note>
  <outline>
    <contour>
      <point x="535" y="203" type="qcurve" smooth="yes"/>
      <point x="535" y="102"/>
      <point x="437" y="-17"/>
      <point x="352" y="-17" type="qcurve" smooth="yes"/>
      <point x="237" y="-17"/>
      <point x="74" y="189"/>
      <point x="10" y="430" type="qcurve"/>
      <point x="19" y="437"/>
      <point x="40" y="449"/>
      <point x="52" y="455" type="qcurve"/>
      <point x="111" y="235"/>
      <point x="252" y="38"/>
      <point x="352" y="38" type="qcurve" smooth="yes"/>
      <point x="418" y="38"/>
      <point x="489" y="131"/>
      <point x="489" y="217" type="qcurve" smooth="yes"/>
      <point x="489" y="252"/>
      <point x="479" y="319"/>
      <point x="469" y="350" type="qcurve"/>
      <point x="425" y="296"/>
      <point x="360" y="253"/>
      <point x="329" y="253" type="qcurve" smooth="yes"/>
      <point x="284" y="253"/>
      <point x="222" y="325"/>
      <point x="222" y="375" type="qcurve" smooth="yes"/>
      <point x="222" y="405"/>
      <point x="238" y="491"/>
      <point x="259" y="566" type="qcurve"/>
      <point x="188" y="565"/>
      <point x="60" y="549"/>
      <point x="-1" y="535" type="qcurve"/>
      <point x="-3" y="540"/>
      <point x="-5" y="553"/>
      <point x="-5" y="560" type="qcurve" smooth="yes"/>
      <point x="-5" y="566"/>
      <point x="-3" y="577"/>
      <point x="-1" y="581" type="qcurve"/>
      <point x="63" y="599"/>
      <point x="203" y="616"/>
      <point x="280" y="616" type="qcurve" smooth="yes"/>
      <point x="355" y="616"/>
      <point x="492" y="599"/>
      <point x="556" y="581" type="qcurve"/>
      <point x="558" y="577"/>
      <point x="561" y="565"/>
      <point x="561" y="560" type="qcurve" smooth="yes"/>
      <point x="561" y="554"/>
      <point x="558" y="540"/>
      <point x="556" y="535" type="qcurve"/>
      <point x="498" y="549"/>
      <point x="375" y="565"/>
      <point x="309" y="566" type="qcurve"/>
      <point x="279" y="457"/>
      <point x="267" y="392"/>
      <point x="267" y="368" type="qcurve" smooth="yes"/>
      <point x="267" y="336"/>
      <point x="296" y="300"/>
      <point x="323" y="300" type="qcurve" smooth="yes"/>
      <point x="345" y="300"/>
      <point x="406" y="351"/>
      <point x="457" y="414" type="qcurve"/>
      <point x="464" y="413"/>
      <point x="482" y="404"/>
      <point x="490" y="399" type="qcurve"/>
      <point x="511" y="356"/>
      <point x="535" y="254"/>
    </contour>
    <contour>
      <point x="330" y="0" type="move" name="blwm"/>
    </contour>
    <contour>
      <point x="316" y="-120" type="move" name="nukt"/>
    </contour>
    <contour>
      <point x="305" y="690" type="move" name="reph"/>
    </contour>
    <contour>
      <point x="305" y="690" type="move" name="chandrabindu"/>
    </contour>
    <contour>
      <point x="225" y="0" type="move" name="haln"/>
    </contour>
  </outline>
</glyph>
<glyph name="bn_nna" format="1">
  <advance width="441"/>
  <unicode hex="09A3"/>
  <outline>
    <contour>
      <point x="376" y="482" type="qcurve" smooth="yes"/>
      <point x="371" y="254"/>
      <point x="345" y="86"/>
      <point x="309" y="-16" type="qcurve"/>
      <point x="295" y="-16"/>
      <point x="269" y="-9"/>
      <point x="256" y="-1" type="qcurve"/>
      <point x="285" y="61"/>
      <point x="315" y="165"/>
      <point x="323" y="226" type="qcurve"/>
      <point x="323" y="226" type="line"/>
      <point x="325" y="245"/>
      <point x="328" y="277"/>
      <point x="329" y="290" type="qcurve"/>
      <point x="330" y="306"/>
      <point x="331" y="336"/>
      <point x="332" y="351" type="qcurve"/>
      <point x="331" y="442"/>
      <point x="243" y="557"/>
      <point x="181" y="557" type="qcurve" smooth="yes"/>
      <point x="139" y="557"/>
      <point x="85" y="492"/>
      <point x="85" y="441" type="qcurve" smooth="yes"/>
      <point x="85" y="402"/>
      <point x="124" y="354"/>
      <point x="153" y="354" type="qcurve" smooth="yes"/>
      <point x="176" y="354"/>
      <point x="204" y="383"/>
      <point x="204" y="407" type="qcurve" smooth="yes"/>
      <point x="204" y="421"/>
      <point x="191" y="455"/>
      <point x="181" y="470" type="qcurve"/>
      <point x="195" y="470"/>
      <point x="229" y="461"/>
      <point x="239" y="455" type="qcurve"/>
      <point x="245" y="444"/>
      <point x="251" y="417"/>
      <point x="251" y="403" type="qcurve" smooth="yes"/>
      <point x="251" y="361"/>
      <point x="195" y="306"/>
      <point x="153" y="306" type="qcurve" smooth="yes"/>
      <point x="102" y="306"/>
      <point x="34" y="385"/>
      <point x="34" y="446" type="qcurve" smooth="yes"/>
      <point x="34" y="517"/>
      <point x="115" y="609"/>
      <point x="177" y="609" type="qcurve" smooth="yes"/>
      <point x="233" y="609"/>
      <point x="315" y="537"/>
      <point x="338" y="469" type="qcurve"/>
      <point x="337" y="475"/>
      <point x="337" y="488"/>
      <point x="337" y="497" type="qcurve" smooth="yes"/>
      <point x="337" y="519"/>
      <point x="347" y="542"/>
      <point x="360" y="551" type="qcurve" smooth="yes"/>
      <point x="372" y="559"/>
      <point x="414" y="575"/>
      <point x="441" y="581" type="qcurve"/>
      <point x="443" y="578"/>
      <point x="446" y="566"/>
      <point x="446" y="559" type="qcurve" smooth="yes"/>
      <point x="446" y="551"/>
      <point x="443" y="538"/>
      <point x="441" y="535" type="qcurve"/>
      <point x="425" y="531"/>
      <point x="401" y="522"/>
      <point x="393" y="518" type="qcurve" smooth="yes"/>
      <point x="383" y="512"/>
      <point x="376" y="498"/>
    </contour>
    <contour>
      <point x="292" y="0" type="move" name="blwm"/>
    </contour>
    <contour>
      <point x="136" y="0" type="move" name="nukt"/>
    </contour>
    <contour>
      <point x="356" y="690" type="move" name="reph"/>
    </contour>
    <contour>
      <point x="356" y="690" type="move" name="chandrabindu"/>
    </contour>
    <contour>
      <point x="179" y="0" type="move" name="haln"/>
    </contour>
  </outline>
</glyph>
